<svg id="_8-Check" data-name="8-Check" xmlns="http://www.w3.org/2000/svg" width="85.742" height="85.742" viewBox="0 0 85.742 85.742">
  <path id="Path_16520" data-name="Path 16520" d="M42.871,85.742A42.871,42.871,0,1,1,85.742,42.871,42.871,42.871,0,0,1,42.871,85.742Zm0-80.383A37.512,37.512,0,1,0,80.383,42.871,37.512,37.512,0,0,0,42.871,5.359Z" fill="#15503f"/>
  <path id="Path_16521" data-name="Path 16521" d="M22.59,43.346a2.679,2.679,0,0,1-1.9-.777l-13.4-13.4,3.778-3.778L22.59,36.888,50.161,9.29l3.778,3.778L24.465,42.542A2.679,2.679,0,0,1,22.59,43.346Z" transform="translate(12.243 15.602)" fill="#15503f"/>
</svg>
