<svg id="calendar" xmlns="http://www.w3.org/2000/svg" width="14" height="14.7" viewBox="0 0 14 14.7">
  <path id="Path_62628" data-name="Path 62628" d="M14.112,4.821H12.587V4.047a.643.643,0,0,0-.632-.647.63.63,0,0,0-.616.647v.774H7.66V4.047A.643.643,0,0,0,7.029,3.4a.633.633,0,0,0-.632.647v.774H4.888A2.42,2.42,0,0,0,2.5,7.268v8.384A2.42,2.42,0,0,0,4.888,18.1h9.225A2.42,2.42,0,0,0,16.5,15.653V7.268A2.43,2.43,0,0,0,14.112,4.821ZM4.888,6.1H6.413V7.522a.643.643,0,0,0,.632.647.633.633,0,0,0,.632-.647V6.1h3.679V7.522a.643.643,0,0,0,.632.647.633.633,0,0,0,.632-.647V6.1h1.494a1.152,1.152,0,0,1,1.14,1.168v8.4a1.385,1.385,0,0,1-.313.775,1.458,1.458,0,0,1-.793.307H4.756a1.231,1.231,0,0,1-.748-.294,1.421,1.421,0,0,1-.26-.8V7.268A1.152,1.152,0,0,1,4.888,6.1Z" transform="translate(-2.5 -3.4)" fill="#262729"/>
</svg>
