<svg xmlns="http://www.w3.org/2000/svg" width="16.993" height="21.392" viewBox="0 0 16.993 21.392">
  <path id="_8685cce1d82f0a8df20def2c92473c1f" data-name="8685cce1d82f0a8df20def2c92473c1f" d="M21.183,14.19a.446.446,0,0,0,.107-.348l-.316-2.58a2.3,2.3,0,0,0-1.279-1.783l-1.337-.66a.352.352,0,0,0-.1-.027.446.446,0,0,0-.076,0h-.165l-.076.036-.085.058a2.154,2.154,0,0,1-1.653.847,1.912,1.912,0,0,1-1.261-.771l-.04-.04-.08-.071-.067-.036-.085-.036h-.165a.339.339,0,0,0-.089.027.236.236,0,0,0-.053,0l-1.337.66a2.3,2.3,0,0,0-1.275,1.783l-.316,2.616a.451.451,0,0,0,.446.5h8.967a.446.446,0,0,0,.334-.174Zm-8.8-.74.258-2.081a1.4,1.4,0,0,1,.784-1.105l1.025-.5a2.585,2.585,0,0,0,1.645.891,1.413,1.413,0,0,0,.192,0,2.91,2.91,0,0,0,1.956-.891l1.034.5a1.417,1.417,0,0,1,.789,1.105l.258,2.081Zm1.181-7.737a2.933,2.933,0,0,0,2.8,2.915,2.943,2.943,0,0,0,2.8-3.062,2.947,2.947,0,0,0-2.8-3.066,2.945,2.945,0,0,0-2.8,3.066.628.628,0,0,0,0,.089v.022C13.562,5.7,13.567,5.7,13.567,5.713Zm2.8,2.023a1.979,1.979,0,0,1-1.858-1.671,2.358,2.358,0,0,0,1.382-.891,3,3,0,0,0,2.331.891,1.983,1.983,0,0,1-1.854,1.671Zm0-4.345a2,2,0,0,1,1.876,1.783,2.108,2.108,0,0,1-2.006-1.012.446.446,0,0,0-.811.053,1.783,1.783,0,0,1-.936.914,2,2,0,0,1,1.876-1.738Zm1.052,20.5h6.569a.446.446,0,0,0,.446-.521L24.2,22.034a1.8,1.8,0,0,0-1-1.408L22.079,20.1a.446.446,0,0,0-.481.053,1.248,1.248,0,0,1-1.8,0,.446.446,0,0,0-.481-.053l-1.1.535a1.783,1.783,0,0,0-1,1.386l-.236,1.337a.467.467,0,0,0,.441.53Zm.673-1.738a.927.927,0,0,1,.513-.713l.86-.446a2.041,2.041,0,0,0,2.491,0l.869.446a.931.931,0,0,1,.513.74l.143.824H17.943ZM20.7,19.877a2.273,2.273,0,0,0,2.17-2.362,2.18,2.18,0,1,0-4.345,0A2.277,2.277,0,0,0,20.7,19.877Zm0-3.833a1.386,1.386,0,0,1,1.279,1.471,1.294,1.294,0,1,1-2.563,0A1.386,1.386,0,0,1,20.7,16.044ZM7.452,23.371a.446.446,0,0,0,.446.521h6.56a.454.454,0,0,0,.441-.521l-.232-1.337a1.809,1.809,0,0,0-1-1.408L12.55,20.1a.446.446,0,0,0-.477.053,1.252,1.252,0,0,1-1.809,0,.446.446,0,0,0-.477-.053l-1.105.535a1.783,1.783,0,0,0-.989,1.386Zm1.132-1.217a.914.914,0,0,1,.49-.713L9.921,21a2.041,2.041,0,0,0,2.469,0l.869.446a.931.931,0,0,1,.513.74l.16.82H8.419ZM9,17.515a2.273,2.273,0,0,0,2.17,2.362,2.37,2.37,0,0,0,0-4.724A2.273,2.273,0,0,0,9,17.515Zm3.454,0a1.386,1.386,0,0,1-1.284,1.471,1.386,1.386,0,0,1-1.279-1.471,1.386,1.386,0,0,1,1.279-1.471,1.386,1.386,0,0,1,1.284,1.471ZM17.5,18.923a.445.445,0,1,0,.588-.669L16.53,16.9V15.166a.446.446,0,1,0-.891,0v1.743l-1.386,1.364a.448.448,0,0,0,.628.637l1.226-1.2Z" transform="translate(-7.445 -2.5)" fill="#fff"/>
</svg>
