<svg xmlns="http://www.w3.org/2000/svg" width="17.93" height="21.846" viewBox="0 0 17.93 21.846">
  <g id="Group_66992" data-name="Group 66992" transform="translate(-29.727 -22.34)">
    <path id="Path_66051" data-name="Path 66051" d="M44.166,23.687V40.165a1.347,1.347,0,0,1-1.347,1.347H31.073a1.347,1.347,0,0,1-1.347-1.347V23.687a1.347,1.347,0,0,1,1.347-1.347H42.82A1.347,1.347,0,0,1,44.166,23.687Z" fill="#849694"/>
    <path id="Path_66052" data-name="Path 66052" d="M39.719,34.271a.4.4,0,0,1,.4-.4h8.634a.4.4,0,1,1,0,.794H40.118A.4.4,0,0,1,39.719,34.271Zm9.431,4.3a.4.4,0,0,1-.4.4H40.118a.4.4,0,1,1,0-.794h8.634A.4.4,0,0,1,49.15,38.566Zm0-2.148a.4.4,0,0,1-.4.4H40.118a.4.4,0,1,1,0-.794h8.634A.4.4,0,0,1,49.15,36.419Z" transform="translate(-7.488 -8.642)" fill="#fff"/>
    <path id="Path_66053" data-name="Path 66053" d="M43.67,22.757Z" transform="translate(-0.324 -0.313)" fill="#ededed"/>
    <path id="Path_66054" data-name="Path 66054" d="M69.159,71.2a5.2,5.2,0,1,1-5.2-5.2A5.2,5.2,0,0,1,69.159,71.2Z" transform="translate(-21.752 -32.713)" fill="none" stroke="#849694" stroke-width="0.5"/>
    <path id="Path_66056" data-name="Path 66056" d="M75.014,73.975a2.264,2.264,0,1,1-2.266-2.262A2.266,2.266,0,0,1,75.014,73.975Z" transform="translate(-30.545 -36.999)" fill="#fff" stroke="#849694" stroke-width="1"/>
    <path id="Path_66057" data-name="Path 66057" d="M70.836,90.966a5.2,5.2,0,0,1-8.724,0,5.181,5.181,0,0,1,3.409-2.288h0a5.128,5.128,0,0,1,1.9,0h0A5.181,5.181,0,0,1,70.836,90.966Z" transform="translate(-24.269 -49.646)" fill="#fff" stroke="#849694" stroke-width="1"/>
  </g>
</svg>
