<svg xmlns="http://www.w3.org/2000/svg" width="21.359" height="22.9" viewBox="0 0 21.359 22.9">
  <g id="Group_67002" data-name="Group 67002" transform="translate(-973.999 -263)">
    <path id="Path_66045" data-name="Path 66045" d="M20.826,7.035V8.77a.932.932,0,0,0,.931.931h1.736a.932.932,0,0,0,.931-.931V7.676l1.027-.932a.358.358,0,1,0-.481-.53l-.591.536a.932.932,0,0,0-.886-.646H21.757a.932.932,0,0,0-.93.931Zm2.881,0v.324l-.533.483-.6-.6a.358.358,0,1,0-.506.506l.843.843A.358.358,0,0,0,23.4,8.6l.3-.276V8.77a.218.218,0,0,1-.215.215H21.757a.218.218,0,0,1-.215-.215V7.035a.218.218,0,0,1,.215-.215h1.736A.218.218,0,0,1,23.707,7.035Zm1.262,4.047-.591.536a.932.932,0,0,0-.886-.646H21.757a.932.932,0,0,0-.931.931v1.736a.932.932,0,0,0,.931.931h1.736a.932.932,0,0,0,.931-.931V12.544l1.027-.932a.358.358,0,0,0-.481-.53Zm-1.262,2.556a.218.218,0,0,1-.215.215H21.757a.218.218,0,0,1-.215-.215V11.9a.218.218,0,0,1,.215-.215h1.736a.218.218,0,0,1,.215.215v.324l-.533.483-.6-.6a.358.358,0,1,0-.506.506l.843.843a.358.358,0,0,0,.493.012l.3-.276v.445Zm1.262,2.312-.591.536a.932.932,0,0,0-.886-.646H21.757a.932.932,0,0,0-.931.931v1.736a.932.932,0,0,0,.931.931h1.736a.932.932,0,0,0,.931-.931V17.412l1.027-.932a.358.358,0,0,0-.481-.53Zm-1.262,2.556a.218.218,0,0,1-.215.215H21.757a.218.218,0,0,1-.215-.215V16.771a.218.218,0,0,1,.215-.215h1.736a.218.218,0,0,1,.215.215V17.1l-.533.483-.6-.6a.358.358,0,0,0-.506.506l.843.843a.358.358,0,0,0,.493.012l.3-.276v.445ZM26.682,1.744a.447.447,0,1,1-.447-.447A.448.448,0,0,1,26.682,1.744Zm11.24,2.478-.334-.193a1.324,1.324,0,0,0-1.807.484l-.536.928V3.247a1.354,1.354,0,0,0-1.352-1.352H30.422V1.651a.358.358,0,0,0-.358-.358H28.14a2.05,2.05,0,0,0-3.81,0H22.406a.358.358,0,0,0-.358.358v.243H18.576a1.354,1.354,0,0,0-1.352,1.352v18.3A1.354,1.354,0,0,0,18.576,22.9H33.893a1.354,1.354,0,0,0,1.352-1.352V11.5l3.16-5.474a1.324,1.324,0,0,0-.484-1.807ZM36.4,4.871a.608.608,0,0,1,.675-.284l-5.014,8.684-.383-.221L36.4,4.871ZM31.548,13.8l.932.538-.932.538ZM33.893,2.61a.638.638,0,0,1,.637.637V6.68l-.668,1.157v-4.2a.358.358,0,0,0-.358-.358H30.422V2.61h3.471Zm-11.13-.6h1.828a.358.358,0,0,0,.348-.274,1.333,1.333,0,0,1,2.592,0,.358.358,0,0,0,.348.274h1.828v1.87H22.763Zm7.3,2.586a.358.358,0,0,0,.358-.358V3.993h2.725V9.077L30.88,13a.358.358,0,0,0-.048.179V15.5a.358.358,0,0,0,.537.31l1.777-1.026V20.8H19.323V3.993h2.725v.243a.358.358,0,0,0,.358.358h7.658ZM34.53,21.547a.638.638,0,0,1-.637.637H18.576a.638.638,0,0,1-.637-.637V3.247a.638.638,0,0,1,.637-.637h3.471v.668H18.965a.358.358,0,0,0-.358.358V21.158a.358.358,0,0,0,.358.358H33.5a.358.358,0,0,0,.358-.358V13.9l.668-1.157ZM37.786,5.671,33.064,13.85l-.383-.221L37.7,4.944a.608.608,0,0,1,.091.726ZM26.1,8.682a.358.358,0,0,1,.358-.358H28.5a.358.358,0,1,1,0,.716H26.453A.358.358,0,0,1,26.1,8.682Zm0-1.56a.358.358,0,0,1,.358-.358h4.092a.358.358,0,1,1,0,.716H26.453A.358.358,0,0,1,26.1,7.123Zm0,5.933a.358.358,0,0,1,.358-.358H28.5a.358.358,0,0,1,0,.716H26.453A.358.358,0,0,1,26.1,13.056Zm0-1.56a.358.358,0,0,1,.358-.358h4.092a.358.358,0,1,1,0,.716H26.453A.358.358,0,0,1,26.1,11.5Zm0,6.923a.358.358,0,0,1,.358-.358H28.5a.358.358,0,1,1,0,.716H26.453A.358.358,0,0,1,26.1,18.419Zm0-1.56a.358.358,0,0,1,.358-.358h4.092a.358.358,0,0,1,0,.716H26.453A.358.358,0,0,1,26.1,16.859Z" transform="translate(956.775 263)" fill="#fff"/>
  </g>
</svg>
