<svg xmlns="http://www.w3.org/2000/svg" xmlns:xlink="http://www.w3.org/1999/xlink" width="57.743" height="57.74" viewBox="0 0 57.743 57.74">
  <defs>
    <linearGradient id="linear-gradient" x1="0.5" y1="0.291" x2="0.5" y2="1" gradientUnits="objectBoundingBox">
      <stop offset="0" stop-color="#fff"/>
      <stop offset="1" stop-color="#fff" stop-opacity="0.161"/>
    </linearGradient>
  </defs>
  <g id="noun-certified-3324969" transform="translate(-89.895 -19.896)">
    <path id="Path_63276" data-name="Path 63276" d="M143.747,48.767l3.71-6.634a1.448,1.448,0,0,0-.525-1.942L140.4,36.306l-.1-7.6a1.458,1.458,0,0,0-1.437-1.438l-7.6-.1L127.361,20.6a1.448,1.448,0,0,0-1.942-.525l-6.653,3.71-6.634-3.71a1.448,1.448,0,0,0-1.942.525L106.3,27.138l-7.6.1a1.458,1.458,0,0,0-1.438,1.437l-.1,7.6L90.6,40.172a1.448,1.448,0,0,0-.525,1.942l3.71,6.653L90.075,55.4a1.448,1.448,0,0,0,.525,1.942l6.536,3.885.1,7.6a1.458,1.458,0,0,0,1.437,1.438l7.6.1L110.16,76.9h0a1.447,1.447,0,0,0,1.942.524l6.663-3.681,6.634,3.71a1.457,1.457,0,0,0,1.942-.525l3.885-6.536,7.6-.1a1.458,1.458,0,0,0,1.438-1.437l.1-7.6,6.536-3.885h0a1.447,1.447,0,0,0,.524-1.942Zm-13.957-6.8a99.033,99.033,0,0,0-12.538,15.385,1.466,1.466,0,0,1-1.1.7h-.146a1.438,1.438,0,0,1-1.068-.466l-7.226-7.848A1.457,1.457,0,0,1,109.86,47.8l5.993,6.439A109.958,109.958,0,0,1,127.7,39.92a1.467,1.467,0,0,1,2.059,0,1.447,1.447,0,0,1,.029,2.049Z" transform="translate(0 0)" fill="url(#linear-gradient)"/>
  </g>
</svg>
