<svg xmlns="http://www.w3.org/2000/svg" xmlns:xlink="http://www.w3.org/1999/xlink" width="52.547" height="52.547" viewBox="0 0 52.547 52.547">
  <defs>
    <linearGradient id="linear-gradient" x1="0.5" y1="0.291" x2="0.5" y2="1" gradientUnits="objectBoundingBox">
      <stop offset="0" stop-color="#fff"/>
      <stop offset="1" stop-color="#fff" stop-opacity="0.161"/>
    </linearGradient>
  </defs>
  <path id="noun-assesment-4658555" d="M161.094,84.841a6.33,6.33,0,0,0-3.753,1.276V51.062a6.256,6.256,0,0,0-6.256-6.256H116.054a1.251,1.251,0,0,0-1.251,1.251V91.1a6.256,6.256,0,0,0,6.256,6.256h40.036a6.256,6.256,0,1,0,0-12.511Zm-25.022,2.5H123.561a1.251,1.251,0,0,1,0-2.5h12.511a1.251,1.251,0,0,1,0,2.5Zm7.507-10.009H123.56a1.251,1.251,0,1,1,0-2.5h20.018a1.251,1.251,0,1,1,0,2.5Zm-21.269-11.26a1.251,1.251,0,0,1,1.251-1.251h12.511a1.251,1.251,0,0,1,0,2.5H123.56A1.251,1.251,0,0,1,122.309,66.074Zm23.771-8.758H123.56a1.251,1.251,0,0,1,0-2.5h22.52a1.251,1.251,0,0,1,0,2.5ZM161.094,94.85a3.754,3.754,0,1,1,2.654-1.1A3.752,3.752,0,0,1,161.094,94.85Z" transform="translate(-114.803 -44.806)" fill="url(#linear-gradient)"/>
</svg>
