<svg id="noun-remove-1199219" xmlns="http://www.w3.org/2000/svg" width="25.516" height="25.516" viewBox="0 0 25.516 25.516">
  <path id="Path_66062" data-name="Path 66062" d="M104.779,25.591l-3.824,3.824-3.824-3.824-1.543,1.544,3.824,3.824-3.824,3.824,1.543,1.544,3.824-3.824,3.824,3.824,1.543-1.544L102.5,30.958l3.824-3.824ZM100.955,18.2a12.758,12.758,0,1,0,12.758,12.758A12.773,12.773,0,0,0,100.955,18.2Zm0,23.333A10.575,10.575,0,1,1,111.53,30.958,10.587,10.587,0,0,1,100.955,41.533Z" transform="translate(-88.197 -18.2)" fill="#ff4b4b"/>
</svg>
