<svg xmlns="http://www.w3.org/2000/svg" width="97.04" height="77.713" viewBox="0 0 97.04 77.713">
  <path id="Path_70142" data-name="Path 70142" d="M47.192,44.248a4.861,4.861,0,0,0,3.451,8.312h.924a2.917,2.917,0,0,0,.924-.292,2.722,2.722,0,0,0,.826-.437l.729-.583a4.9,4.9,0,0,0-6.854-7Zm3.451,13.173a4.861,4.861,0,0,0-4.861,4.861V76.865a4.861,4.861,0,0,0,9.722,0V62.282A4.861,4.861,0,0,0,50.644,57.421ZM81.851,24.463a34.027,34.027,0,0,0-64.943,9.187A19.444,19.444,0,0,0,21.478,72H31.2a4.861,4.861,0,0,0,0-9.722H21.478a9.722,9.722,0,0,1,0-19.444,4.861,4.861,0,0,0,4.861-4.861,24.3,24.3,0,0,1,47.3-7.826,4.861,4.861,0,0,0,3.792,3.257,14.54,14.54,0,0,1-2.479,28.874H70.088a4.861,4.861,0,1,0,0,9.722h4.861a24.3,24.3,0,0,0,6.9-47.541Z" transform="translate(-1.991 -4.013)" fill="#20776e"/>
</svg>
