<svg id="help" xmlns="http://www.w3.org/2000/svg" width="27" height="27" viewBox="0 0 27 27">
  <path id="Path_11763" data-name="Path 11763" d="M111.5,28A13.5,13.5,0,1,0,125,41.5,13.513,13.513,0,0,0,111.5,28Zm0,1.8A11.7,11.7,0,1,1,99.8,41.5,11.686,11.686,0,0,1,111.5,29.8Zm0,4.2a4.514,4.514,0,0,0-4.5,4.5.9.9,0,1,0,1.8,0,2.7,2.7,0,1,1,5.4,0c.011,1.232-.624,1.863-1.509,2.7a10.325,10.325,0,0,0-1.35,1.425A3.7,3.7,0,0,0,110.6,44.8a.9.9,0,1,0,1.8,0,1.744,1.744,0,0,1,.394-1.116,9.735,9.735,0,0,1,1.134-1.181,5.385,5.385,0,0,0,2.072-4v-.009A4.514,4.514,0,0,0,111.5,34Zm0,12.6a1.2,1.2,0,1,0,1.2,1.2A1.2,1.2,0,0,0,111.5,46.6Z" transform="translate(-98 -28)" fill="#496c5c"/>
</svg>
