<svg id="Group_45995" data-name="Group 45995" xmlns="http://www.w3.org/2000/svg" width="24.051" height="24.052" viewBox="0 0 24.051 24.052">
  <path id="Path_41999" data-name="Path 41999" d="M27.105,26.668c.437-.429.837-.121,1.268.316l5.481,4.967a1.111,1.111,0,1,1-1.585,1.558l-4.846-5.6c-.429-.437-.756-.8-.319-1.239Z" transform="translate(-21.066 -20.728)" fill="#496c5c"/>
  <path id="Path_42000" data-name="Path 42000" d="M17.165,5.077h0a1.1,1.1,0,1,0,.121,2.2,9.818,9.818,0,1,1-7.192,3.012h0A1.1,1.1,0,1,0,8.632,8.641h0a12.025,12.025,0,1,0,8.533-3.564Z" transform="translate(-5.152 -5.077)" fill="#496c5c"/>
</svg>
