<svg xmlns="http://www.w3.org/2000/svg" width="38" height="38" viewBox="0 0 38 38">
  <g id="Group_46425" data-name="Group 46425" transform="translate(-1088 -2572)">
    <rect id="Rectangle_633" data-name="Rectangle 633" width="38" height="38" rx="6" transform="translate(1088 2572)" fill="#f6ab39"/>
    <g id="nex" transform="translate(1099 2584.836)">
      <path id="Path_11761" data-name="Path 11761" d="M424.58,138.7a.7.7,0,0,1-.5-1.2l4.966-4.966-4.966-4.966a.7.7,0,0,1,.993-.993l5.462,5.462a.7.7,0,0,1,0,.993l-5.462,5.462a.7.7,0,0,1-.5.206Z" transform="translate(-414.744 -126.372)" fill="#f8faf9"/>
      <path id="Path_11762" data-name="Path 11762" d="M119.518,263.937h-13.98c-.3,0-.538-.322-.538-.719s.241-.719.538-.719h13.98c.3,0,.538.322.538.719S119.815,263.937,119.518,263.937Z" transform="translate(-105 -257.046)" fill="#f8faf9"/>
    </g>
  </g>
</svg>
