<svg xmlns="http://www.w3.org/2000/svg" width="489.997" height="466.664" viewBox="0 0 489.997 466.664">
  <g id="noun-sub-bullet-3031236" transform="translate(-116.666 -46.668)">
    <path id="Path_66013" data-name="Path 66013" d="M583.33,93.332h-350a23.332,23.332,0,1,1,0-46.664h350a23.332,23.332,0,1,1,0,46.664Z" fill="#b0c2d2"/>
    <path id="Path_66014" data-name="Path 66014" d="M583.33,233.33h-280a23.332,23.332,0,1,1,0-46.664h280a23.332,23.332,0,1,1,0,46.664Z" fill="#b0c2d2"/>
    <path id="Path_66015" data-name="Path 66015" d="M583.33,373.33h-210a23.332,23.332,0,1,1,0-46.664h210a23.332,23.332,0,1,1,0,46.664Z" fill="#b0c2d2"/>
    <path id="Path_66016" data-name="Path 66016" d="M583.33,513.33h-140a23.332,23.332,0,1,1,0-46.664h140a23.332,23.332,0,1,1,0,46.664Z" fill="#b0c2d2"/>
    <path id="Path_66017" data-name="Path 66017" d="M163.33,70A23.332,23.332,0,1,1,140,46.668,23.331,23.331,0,0,1,163.33,70" fill="#b0c2d2"/>
    <path id="Path_66018" data-name="Path 66018" d="M233.33,210A23.332,23.332,0,1,1,210,186.668,23.331,23.331,0,0,1,233.33,210" fill="#b0c2d2"/>
    <path id="Path_66019" data-name="Path 66019" d="M303.33,350A23.332,23.332,0,1,1,280,326.668,23.331,23.331,0,0,1,303.33,350" fill="#b0c2d2"/>
    <path id="Path_66020" data-name="Path 66020" d="M373.33,490A23.332,23.332,0,1,1,350,466.668,23.331,23.331,0,0,1,373.33,490" fill="#b0c2d2"/>
  </g>
</svg>
