<svg xmlns="http://www.w3.org/2000/svg" width="384.999" height="419.996" viewBox="0 0 384.999 419.996">
  <path id="noun-text-colour-4414429" d="M525,455a17.5,17.5,0,0,1,3.145,34.719L525,490H175a17.5,17.5,0,0,1-3.145-34.719L175,455ZM363.96,76.93l1.691,2.746,157.5,315a17.5,17.5,0,0,1-29.644,18.343l-1.66-2.687L444.183,315H255.813l-47.664,95.328a17.508,17.508,0,0,1-20.539,8.98l-2.941-1.156a17.508,17.508,0,0,1-8.98-20.539l1.156-2.941,157.5-315a17.514,17.514,0,0,1,29.613-2.746ZM350,126.633,273.315,280h153.37Z" transform="translate(-157.501 -70.004)" fill="#b0c2d2" fill-rule="evenodd"/>
</svg>
