<svg xmlns="http://www.w3.org/2000/svg" width="490" height="385" viewBox="0 0 490 385">
  <path id="noun-bullet-list-3871822" d="M210,420a52.562,52.562,0,1,1-15.4-37.105A52.511,52.511,0,0,1,210,420ZM157.5,87.5a52.562,52.562,0,1,0,37.1,15.4A52.511,52.511,0,0,0,157.5,87.5Zm87.5,70H577.5a17.5,17.5,0,1,0,0-35H245a17.5,17.5,0,1,0,0,35Zm332.5,245H245a17.5,17.5,0,1,0,0,35H577.5a17.5,17.5,0,1,0,0-35Zm-420-175a52.562,52.562,0,1,0,37.1,15.4A52.511,52.511,0,0,0,157.5,227.5Zm420,35H245a17.5,17.5,0,1,0,0,35H577.5a17.5,17.5,0,1,0,0-35Z" transform="translate(-105 -87.5)" fill="#b0c2d2"/>
</svg>
