<svg xmlns="http://www.w3.org/2000/svg" width="420" height="455" viewBox="0 0 420 455">
  <path id="noun-align-center-3871867" d="M542.5,297.5h-385a17.5,17.5,0,1,1,0-35h385a17.5,17.5,0,1,1,0,35Zm-52.5,70H210a17.5,17.5,0,1,0,0,35H490a17.5,17.5,0,1,0,0-35Zm52.5,105h-385a17.5,17.5,0,1,0,0,35h385a17.5,17.5,0,1,0,0-35ZM490,157.5H210a17.5,17.5,0,1,0,0,35H490a17.5,17.5,0,1,0,0-35Zm52.5-105h-385a17.5,17.5,0,1,0,0,35h385a17.5,17.5,0,1,0,0-35Z" transform="translate(-140 -52.5)" fill="#b0c2d2"/>
</svg>
