<svg xmlns="http://www.w3.org/2000/svg" width="385.162" height="490.023" viewBox="0 0 385.162 490.023">
  <path id="noun-bold-3871803" d="M521.68,302.93a118.033,118.033,0,0,0-33.074-35.176A138.726,138.726,0,0,0,523.254,170.8c0-89.6-65.449-136.68-155.23-135.8H206.144a52.469,52.469,0,0,0-48.649,55.476v379.05a52.469,52.469,0,0,0,48.649,55.476h172.55c95.9.7,163.45-44.977,163.8-141.05a150.364,150.364,0,0,0-20.824-81.023ZM262.5,122.5h92.227c39.727.7,66.324,12.074,66.5,52.852-.352,40.074-27.125,51.625-66.5,52.148H262.5Zm102.02,315H262.5v-105H364.52c60.727,0,68.6,28,68.6,52.5S425.247,437.5,364.52,437.5Z" transform="translate(-157.401 -34.992)" fill="#b0c2d2"/>
</svg>
