<svg xmlns="http://www.w3.org/2000/svg" width="454.527" height="383.242" viewBox="0 0 454.527 383.242">
  <path id="noun-number-list-3871818" d="M560,157.5H227.5a17.5,17.5,0,1,1,0-35H560a17.5,17.5,0,1,1,0,35Zm0,105H227.5a17.5,17.5,0,1,0,0,35H560a17.5,17.5,0,1,0,0-35Zm0,140H227.5a17.5,17.5,0,1,0,0,35H560a17.5,17.5,0,1,0,0-35ZM172.54,95.47v89.047c-.758,9.152-21.09,9.16-21.84,0V113.251l-4.059,2.523c-9.113,5.484-14.453-10.887-6.3-14.98l18.484-11.2c4.488-2.523,13.6-.043,13.715,5.875Zm-37.871,235.7c-3.406.035-9.75-2.449-9.52-6.715V310.869A18.562,18.562,0,0,1,128.3,300.58c9.133-13.7,27.613-20.875,37.734-33.531,13.371-16.75-16.754-27.992-17.918-7.98-1.5,11.441-23.508,10.953-21.285-3.359h0a29,29,0,0,1,31.636-26.882,30.336,30.336,0,0,1,32.625,28.988,42.365,42.365,0,0,1-21.637,33.176c-7.449,6.605-21.227,10.578-21.625,21.141l36.684,0c8.824.742,8.648,18.184,0,19.035Zm53,92.68a23.473,23.473,0,0,0-10.223-7.137,29.709,29.709,0,0,0,6.652-38.007,32.281,32.281,0,0,0-27.1-10.3,27.683,27.683,0,0,0-31.914,25.062c-.523,7.652,3.977,9.059,11.34,8.816,6.9.023,9.977-1.969,10.219-7.98-.379-5.973,5.379-7.281,10.355-7.133,6.461.176,10.539,2.406,10.367,10.074-.086,5.773-.977,9.84-5.742,11.414a21.051,21.051,0,0,1-5.18.625c-8.594-.211-8.551,16.953,0,16.8a19.757,19.757,0,0,1,9.59,2.1c5.578,2.73,4.836,17.8.984,21.488-4.7,4.375-22.68,5.012-22.473-5.25-.285-6.965-3.867-7-11.2-7.281-6.937.215-10.262.813-10.367,7.98h0A29.458,29.458,0,0,0,156.3,471.585a35.484,35.484,0,0,0,30.66-13.227,35.116,35.116,0,0,0,.7-34.508Z" transform="translate(-122.973 -88.615)" fill="#b0c2d2"/>
</svg>
