<svg xmlns="http://www.w3.org/2000/svg" width="31" height="31" viewBox="0 0 31 31">
  <g id="Group_45488" data-name="Group 45488" transform="translate(0)">
    <g id="Group_45469" data-name="Group 45469">
      <g id="download3" transform="translate(0)">
        <g id="Rectangle_905" data-name="Rectangle 905" transform="translate(0)" fill="#fff" stroke="#217a70" stroke-width="1">
          <rect width="31" height="31" rx="6" stroke="none"/>
          <rect x="0.5" y="0.5" width="30" height="30" rx="5.5" fill="none"/>
        </g>
      </g>
    </g>
    <g id="noun-maximize-2494211" transform="translate(7.807 8.118)">
      <path id="Path_50816" data-name="Path 50816" d="M150.624,83.857a.613.613,0,0,1,.434,1.051l-4.222,4.216H150.4a.615.615,0,1,1,0,1.23h-5.09a.614.614,0,0,1-.326-.127.6.6,0,0,1-.108-.085.613.613,0,0,1-.15-.4V84.669a.615.615,0,1,1,1.23,0v3.589l4.232-4.222a.614.614,0,0,1,.434-.179Zm8.78-8.787h-5.041a.615.615,0,1,0,0,1.23h3.566l-4.222,4.219a.614.614,0,0,0,.868.868l4.219-4.222v3.589a.615.615,0,1,0,1.23,0V75.687a.614.614,0,0,0-.571-.61H159.4Z" transform="translate(-144.728 -75.07)" fill="#496c5c"/>
    </g>
  </g>
</svg>
