<svg id="Send_button" data-name="Send button" xmlns="http://www.w3.org/2000/svg" xmlns:xlink="http://www.w3.org/1999/xlink" width="40" height="40" viewBox="0 0 40 40">
  <defs>
    <linearGradient id="linear-gradient" x1="0.443" y1="0.976" x2="0.4" y2="-0.181" gradientUnits="objectBoundingBox">
      <stop offset="0" stop-color="#2d9d8d"/>
      <stop offset="1" stop-color="#20776e"/>
    </linearGradient>
  </defs>
  <circle id="Ellipse_66" data-name="Ellipse 66" cx="20" cy="20" r="20" fill="url(#linear-gradient)"/>
  <g id="paper-plane" transform="translate(11 10.84)">
    <path id="Path_49" data-name="Path 49" d="M17.858.31A.519.519,0,0,0,17.286.2L.312,7.641A.525.525,0,0,0,0,8.091a.515.515,0,0,0,.261.476L6.18,11.923,9.694,17.9a.523.523,0,0,0,.445.257h.031a.52.52,0,0,0,.445-.311L17.97.882A.513.513,0,0,0,17.858.31Zm-2.7,1.955L6.472,10.894l-4.8-2.719ZM10.07,16.5,7.209,11.624l8.737-8.679Z" transform="translate(0 0)" fill="#f5fbff"/>
  </g>
</svg>
