<svg id="Group_44572" data-name="Group 44572" xmlns="http://www.w3.org/2000/svg" width="40" height="40" viewBox="0 0 40 40">
  <circle id="Ellipse_1156" data-name="Ellipse 1156" cx="20" cy="20" r="20" fill="#196951"/>
  <g id="speaker" transform="translate(10.07 11.224)">
    <path id="Path_42003" data-name="Path 42003" d="M432.4,205.577a4.618,4.618,0,0,0,0-6.926.756.756,0,0,0-1,1.129,3.112,3.112,0,0,1,0,4.668.756.756,0,1,0,1,1.129Z" transform="translate(-417.367 -193.171)" fill="#fff" stroke="#196951" stroke-width="0.2"/>
    <path id="Path_42004" data-name="Path 42004" d="M489.268,139.6a.755.755,0,1,0-1.029,1.1,6.776,6.776,0,0,1,0,9.988.755.755,0,1,0,1.029,1.1,8.281,8.281,0,0,0,0-12.221Z" transform="translate(-471.676 -136.754)" fill="#fff" stroke="#196951" stroke-width="0.2"/>
    <path id="Path_42005" data-name="Path 42005" d="M135.554,80.508a.752.752,0,0,0-.778.05l-6.726,4.517h-2.033a2.259,2.259,0,0,0-2.259,2.259v4.091a2.259,2.259,0,0,0,2.259,2.259h2.033l6.726,4.517h0a.753.753,0,0,0,1.18-.627V81.16a.754.754,0,0,0-.4-.652Zm-8.031,11.669h-1.506a.753.753,0,0,1-.753-.753V87.308a.753.753,0,0,1,.753-.753h1.506Zm6.926,3.965-5.421-3.614V86.2l5.421-3.614Z" transform="translate(-123.759 -80.423)" fill="#fff" stroke="#196951" stroke-width="0.2"/>
  </g>
</svg>
