<svg xmlns="http://www.w3.org/2000/svg" width="103.643" height="105.71" viewBox="0 0 103.643 105.71">
  <g id="noun-thumbs-down-1018063" transform="translate(52.567 -101.218) rotate(60)">
    <path id="Path_51464" data-name="Path 51464" d="M172.775,66.021q-.006.582-.012,1.154c0,.381-.031.754-.044,1.126a35.7,35.7,0,0,1-1.05,7.953,11.014,11.014,0,0,1-2.876,5.326,6.977,6.977,0,0,1-2.078,1.343,8.4,8.4,0,0,1-2.123.553,11.376,11.376,0,0,1-2.674.025,20.571,20.571,0,0,0,1.407-1.787,14.02,14.02,0,0,0,2.248-4.844l.1-.419q.033-.2.062-.37.061-.341.079-.575c.031-.31.046-.468.046-.468a12.972,12.972,0,0,1-2.626,5.835,19.468,19.468,0,0,1-2.293,2.494l-.17.155A25.7,25.7,0,0,1,158.7,85.2a23.444,23.444,0,0,1-2.6,1.652c-.143.075-.239.144-.355.213l-.337.207c-.223.14-.451.273-.67.419-.434.3-.884.576-1.3.9a27.879,27.879,0,0,0-2.459,1.994,24.451,24.451,0,0,0-2.184,2.308,18.318,18.318,0,0,0-3.124,5.55,19.328,19.328,0,0,0-1,6.247c-.006,1.04.056,2.07.12,3.048l.039.713c.009.129,0,.2,0,.289a2.238,2.238,0,0,1-.018.274,6.023,6.023,0,0,1-.243,1.175,8.411,8.411,0,0,1-1.068,2.25,7.191,7.191,0,0,1-.747.934,5.118,5.118,0,0,1-.852.7,3.18,3.18,0,0,1-.9.409,2.973,2.973,0,0,1-.452.092c-.076.009-.153,0-.229.009a.991.991,0,0,1-.229,0,4.134,4.134,0,0,1-1.9-.679,10.1,10.1,0,0,1-1.827-1.543c-.279-.318-.569-.617-.83-.963l-.4-.5-.379-.529a21.022,21.022,0,0,1-2.429-4.442,12.973,12.973,0,0,1-.9-4.652,12.46,12.46,0,0,1,.861-4.5,16.228,16.228,0,0,1,2.323-4.032,23.791,23.791,0,0,1,3.248-3.424c.6-.515,1.209-1.008,1.837-1.471.315-.23.632-.454.951-.667.16-.107.319-.212.478-.311s.331-.2.443-.27a10.141,10.141,0,0,1,1.792-.89,12.28,12.28,0,0,0-2.834-.955,23.791,23.791,0,0,0-3.012-.39c-.4-.012-.8-.013-1.2,0a31.947,31.947,0,0,0-3.952.37q-.973.148-1.931.344c-.319.066-.637.133-.954.206l-.909.22a71.244,71.244,0,0,1-18.71,1.057,29.787,29.787,0,0,1-8.152-1.915,16.79,16.79,0,0,1-6.19-4.18,13.317,13.317,0,0,1-1.067-1.372,10.241,10.241,0,0,1-.8-1.436c-.05-.115-.1-.236-.139-.338-.018-.046-.044-.126-.04-.11,0-.008,0,.028-.011-.052a7.486,7.486,0,0,1-.1-.751,7.943,7.943,0,0,1,.009-1.526,4.765,4.765,0,0,1,.916-2.445,4.564,4.564,0,0,1,2.07-1.429,9.812,9.812,0,0,1,2.872-.54l.379-.025.385,0c.257,0,.511-.005.767,0,.517.036,1.025.037,1.537.1l.763.078c.254.029.507.073.758.108l1.56.22,1.585.214.777.1.773.053a44.369,44.369,0,0,0,10.87-.44,42.222,42.222,0,0,0,7.729-2.035A34.393,34.393,0,0,0,131.6,66.8c.489-.262.848-.483,1.087-.631s.351-.228.351-.228a44.378,44.378,0,0,1-12.478,2.708,51.881,51.881,0,0,1-9.334-.156c.174-.447.356-.89.56-1.319a20.159,20.159,0,0,1,1.56-2.765,19.621,19.621,0,0,1,1.887-2.373,18.589,18.589,0,0,1,2.148-1.925,17.25,17.25,0,0,1,4.734-2.478,21.614,21.614,0,0,1,4.667-1.006c.367-.046.73-.052,1.082-.08s.7-.059,1.034-.049l.981,0,.47,0,.454.024c.595.037,1.153.049,1.664.1l1.4.146c.422.034.792.1,1.113.149l.815.123.673.1a30.171,30.171,0,0,0-9.253-2.43,21.155,21.155,0,0,0-4.754.127,19.212,19.212,0,0,0-4.568,1.243q-.547.23-1.073.5c.081-.287.166-.57.262-.845a14.171,14.171,0,0,1,1-2.239,12.881,12.881,0,0,1,1.335-1.885,11.434,11.434,0,0,1,2.779-2.273s.823-.461,1.1-.575a17.262,17.262,0,0,1,3.23-1.08,24.671,24.671,0,0,1,3.323-.472l.723-.05c.232-.02.457-.031.671-.03l1.18-.02c.71-.006,1.261.032,1.636.034l.572.012a24.772,24.772,0,0,0-7.949-1.424l-.507,0-.015,0c.057-.047.113-.1.17-.144.36-.272.707-.559,1.071-.82l1.116-.741,1.162-.648a6,6,0,0,1,.595-.29l.6-.275a21.737,21.737,0,0,1,4.973-1.514l.631-.118a5.56,5.56,0,0,1,.632-.1l1.268-.133.629-.068c.209-.024.421-.016.63-.026l1.253-.036.621-.02c.207,0,.414.018.62.026l1.228.055c.815.009,1.616.131,2.407.216l1.178.132c.385.052.75.129,1.122.19s.732.149,1.09.234.716.164,1.058.278.693.2,1.024.322l.988.368c.636.278,1.264.549,1.849.873a20.152,20.152,0,0,1,3.206,2.129,21.847,21.847,0,0,1,3.379,3.524l.216.284c.3.4.572.8.825,1.193a24.311,24.311,0,0,1,1.383,2.407c.387.763.706,1.479.967,2.134a26.952,26.952,0,0,1,1.036,3.075c.094.358.161.632.2.816l.058.274a22.868,22.868,0,0,0-.63-3.976,26.84,26.84,0,0,0-1.257-3.83,23.785,23.785,0,0,0-1.516-3.023c.155-.111.312-.217.473-.315a7.3,7.3,0,0,1,2.775-1,4.777,4.777,0,0,1,4.526,1.82,11.848,11.848,0,0,1,2.055,4.619c.208.838.36,1.691.492,2.537q.085.641.17,1.272.06.64.118,1.271c.049.417.063.842.09,1.26s.062.83.071,1.246c.016.832.072,1.642.064,2.453s.026,1.6,0,2.379Z" fill="#fff"/>
  </g>
</svg>
