<svg xmlns="http://www.w3.org/2000/svg" width="22.883" height="22.003" viewBox="0 0 22.883 22.003">
  <g id="Group_66753" data-name="Group 66753" transform="translate(7598.326 -1661.499)">
    <g id="noun-analytics-1018764" transform="translate(-7729.925 1591.499)">
      <path id="Path_63193" data-name="Path 63193" d="M154.188,463.463h-22.3a.294.294,0,0,1-.293-.293v-.88a.294.294,0,0,1,.293-.293h22.3a.294.294,0,0,1,.293.293v.88A.294.294,0,0,1,154.188,463.463Z" transform="translate(0 -371.46)" fill="#20776e"/>
      <path id="Path_63194" data-name="Path 63194" d="M156.934,283.388v6.747a.587.587,0,0,1-.587.587h-1.76a.587.587,0,0,1-.587-.587v-6.747a.587.587,0,0,1,.587-.587h1.76A.587.587,0,0,1,156.934,283.388Z" transform="translate(-21.228 -201.653)" fill="#20776e"/>
      <path id="Path_63195" data-name="Path 63195" d="M268.934,182.588v12.028a.587.587,0,0,1-.587.587h-1.76a.587.587,0,0,1-.587-.587V182.588a.587.587,0,0,1,.587-.587h1.76A.587.587,0,0,1,268.934,182.588Z" transform="translate(-127.361 -106.134)" fill="#20776e"/>
      <path id="Path_63196" data-name="Path 63196" d="M380.934,238.588v9.094a.587.587,0,0,1-.587.587h-1.76a.587.587,0,0,1-.587-.587v-9.094a.587.587,0,0,1,.587-.587h1.76A.587.587,0,0,1,380.934,238.588Z" transform="translate(-233.493 -159.2)" fill="#20776e"/>
      <path id="Path_63197" data-name="Path 63197" d="M492.934,182.588v12.028a.587.587,0,0,1-.587.587h-1.76a.587.587,0,0,1-.587-.587V182.588a.587.587,0,0,1,.587-.587h1.76A.587.587,0,0,1,492.934,182.588Z" transform="translate(-339.626 -106.134)" fill="#20776e"/>
      <path id="Path_63198" data-name="Path 63198" d="M173.068,70a1.448,1.448,0,0,0-1.412,1.845L168.35,73.5a1.451,1.451,0,0,0-2.3,0l-3.307-1.654a1.448,1.448,0,0,0,.055-.378,1.467,1.467,0,1,0-2.934,0,1.451,1.451,0,0,0,.207.74l-3.739,3.365a1.494,1.494,0,1,0,.391.437l3.739-3.365a1.448,1.448,0,0,0,2.017-.274l3.307,1.654a1.467,1.467,0,1,0,2.823,0l3.307-1.654A1.464,1.464,0,1,0,173.068,70Zm-17.6,7.334a.587.587,0,1,1,.587-.587A.587.587,0,0,1,155.466,77.334Zm5.867-5.281a.587.587,0,1,1,.587-.587A.587.587,0,0,1,161.334,72.053Zm5.867,2.934a.587.587,0,1,1,.587-.587A.587.587,0,0,1,167.2,74.987Zm5.867-2.934a.587.587,0,1,1,.587-.587A.587.587,0,0,1,173.068,72.053Z" transform="translate(-21.228)" fill="#20776e"/>
    </g>
  </g>
</svg>
