<svg xmlns="http://www.w3.org/2000/svg" width="37.928" height="32" viewBox="0 0 37.928 32">
  <g id="Group_45786" data-name="Group 45786" transform="translate(-1325 -486)">
    <g id="noun-browser-5101895" transform="translate(1241.008 430.458)">
      <path id="Path_50822" data-name="Path 50822" d="M120.168,77.219l.872-.872a2.977,2.977,0,0,0-1.337-4.981l-3.753-1.007A16,16,0,1,0,99.992,87.542a15.852,15.852,0,0,0,10.613-4.023,3.048,3.048,0,0,0,1.594.453,2.941,2.941,0,0,0,2.091-.874l.87-.87.22.22a3.541,3.541,0,1,0,5.008-5.009ZM99.992,57.937a13.614,13.614,0,0,1,10.515,5.005H89.457A13.584,13.584,0,0,1,99.992,57.937Zm-12.106,7.4h24.2a13.444,13.444,0,0,1,1.386,4.357l-2.99-.8a2.952,2.952,0,0,0-2.876.772,3.014,3.014,0,0,0-.513.681H86.439a13.5,13.5,0,0,1,1.447-5.007Zm0,12.409a13.5,13.5,0,0,1-1.446-5.006h20.45l1.343,5.006Zm12.107,7.4a13.585,13.585,0,0,1-10.535-5.006h19.418l.369,1.378a13.479,13.479,0,0,1-9.252,3.628Zm19.356-10.495h0l-1.719,1.719a1.2,1.2,0,0,0,0,1.693l1.066,1.066a1.147,1.147,0,1,1-1.621,1.621l-1.067-1.066a1.2,1.2,0,0,0-1.693,0L112.6,81.4a.573.573,0,0,1-.562.15.565.565,0,0,1-.411-.414l-2.473-9.217a.577.577,0,0,1,.151-.566.585.585,0,0,1,.407-.172.6.6,0,0,1,.157.021l9.221,2.473a.564.564,0,0,1,.412.411.573.573,0,0,1-.15.562Z" transform="translate(0)" fill="#3b5854"/>
    </g>
    <g id="noun-browser-4950611" transform="translate(943.104 180.369)">
      <path id="Path_50849" data-name="Path 50849" d="M416.25,327.157l1.711-1.711a1.772,1.772,0,0,0-.8-2.964l-9.177-2.462a1.774,1.774,0,0,0-2.172,2.172l2.462,9.177a1.772,1.772,0,0,0,2.964.8l1.709-1.709,1.062,1.062a2.333,2.333,0,1,0,3.3-3.3Z" transform="translate(0.076 0.152)" fill="none" stroke="#849da2" stroke-linecap="round" stroke-linejoin="round" stroke-width="2.5"/>
    </g>
  </g>
</svg>
