<svg xmlns="http://www.w3.org/2000/svg" width="27.079" height="24" viewBox="0 0 27.079 24">
  <g id="noun-photo-2053877" transform="translate(-83.442 -44.24)">
    <path id="Path_50830" data-name="Path 50830" d="M247.421,193.76a5.5,5.5,0,1,0,5.5,5.5A5.523,5.523,0,0,0,247.421,193.76Zm2.565,6.385a.84.84,0,0,1-.855-.855,1.715,1.715,0,0,0-1.71-1.71.855.855,0,1,1,0-1.71,3.43,3.43,0,0,1,3.42,3.42.857.857,0,0,1-.855.855Z" transform="translate(-150.412 -141.91)" fill="#bccece"/>
    <path id="Path_50831" data-name="Path 50831" d="M105.3,48.116h-1.539l-1.4-2.793a1.934,1.934,0,0,0-1.739-1.083H93.361a1.934,1.934,0,0,0-1.739,1.083l-1.4,2.793H88.687a5.231,5.231,0,0,0-5.245,5.245V63a5.231,5.231,0,0,0,5.245,5.245h16.589A5.231,5.231,0,0,0,110.52,63V53.361a5.189,5.189,0,0,0-5.216-5.245ZM97.01,64.592a7.226,7.226,0,1,1,7.211-7.211A7.22,7.22,0,0,1,97.01,64.592Z" transform="translate(0)" fill="#bccece"/>
  </g>
</svg>
