<svg xmlns="http://www.w3.org/2000/svg" width="25.238" height="15.555" viewBox="0 0 25.238 15.555">
  <g id="Group_45693" data-name="Group 45693" transform="translate(0.614 0.5)" opacity="0.5">
    <path id="Path_41732" data-name="Path 41732" d="M23.11-19.182c-5.46,0-9.825,4.187-11.472,5.949a1.924,1.924,0,0,0,0,2.654c1.54,1.648,5.459,5.418,10.456,5.9a11.776,11.776,0,0,0,2.029,0c4.994-.482,8.916-4.245,10.461-5.9a1.924,1.924,0,0,0,.007-2.654c-1.643-1.758-6.013-5.955-11.479-5.955Zm0,3a4.293,4.293,0,0,1,4.28,4.28,4.292,4.292,0,0,1-4.28,4.278,4.286,4.286,0,0,1-4.273-4.278A4.288,4.288,0,0,1,23.11-16.185Z" transform="translate(-11.106 19.182)" fill="none" stroke="rgba(0,0,0,0.9)" stroke-width="1"/>
  </g>
</svg>
