<svg xmlns="http://www.w3.org/2000/svg" width="264.787" height="230.791" viewBox="0 0 264.787 230.791">
  <g id="Group_46366" data-name="Group 46366" transform="translate(-896 -448)">
    <g id="Group_46349" data-name="Group 46349" transform="translate(896 448)">
      <path id="Path_52594" data-name="Path 52594" d="M1505.677,761.666A115.521,115.521,0,0,1,1458,855.114c-.546.4-1.1.794-1.653,1.174A115.552,115.552,0,0,1,1342.626,866.8q-2.694-1.226-5.317-2.59a115.18,115.18,0,0,1-24.016-16.585,115.4,115.4,0,1,1,192.385-85.959Z" transform="translate(-1274.882 -646.273)" fill="#f9ddbf"/>
      <g id="Group_46331" data-name="Group 46331" transform="translate(36.165 23.029)">
        <g id="Group_46330" data-name="Group 46330" transform="translate(0 0)">
          <path id="Path_52595" data-name="Path 52595" d="M1559.87,870.244a116.261,116.261,0,0,1-29.368,31.04c-.546.4-1.1.794-1.653,1.174-13.719-2.675-30.361-20.163-44.479-27.528a30.862,30.862,0,0,0-7.281-2.827c-8.187-1.858-22.5,4.633-36.984,11.352-8.644,4.006-17.354,8.093-24.872,10.54-.067.024-.129.048-.195.067-6.776,2.186-12.574,3.022-16.466,1.24a7.775,7.775,0,0,1-2.067-1.363,54.169,54.169,0,0,1-7.289-8.069c-8.763-12.184-10.925-29.486,20.282-50.29,10.045-6.7-35.431-4.476-16.49-52.5,13.059-33.1,37.5-68.529,70.306-67.588a57.384,57.384,0,0,1,28.037,9.105c11.21,7.152,27.214,39.7,35.564,61.23s-7.969,35.184,5.2,46.76C1545.846,844.659,1557.3,857.846,1559.87,870.244Z" transform="translate(-1383.553 -715.472)" fill="#233862"/>
          <path id="Path_52596" data-name="Path 52596" d="M1520.912,759.025s34.716-34.968,56.736-2.987c0,0,13.6-3.953,19.54,24.008,6.062,28.529-3.2,45.969-13.013,40.61-6.291-3.437-11.054,7.573-11.054,7.573Z" transform="translate(-1475.2 -733.545)" fill="#233862"/>
          <path id="Path_52597" data-name="Path 52597" d="M1583.153,1078.163c-.546.4-1.1.794-1.653,1.174a115.552,115.552,0,0,1-113.716,10.511q-2.694-1.226-5.317-2.59a147.966,147.966,0,0,1,5.232-15.909v0l.186-.471A220.225,220.225,0,0,1,1491,1027.811a.413.413,0,0,1,.071,0c.019-.005.038-.005.066-.01l.124-.014h.014l.138-.014c.062-.009.123-.014.195-.019.19-.014.428-.037.7-.071.085-.009.166-.019.251-.023s.148-.015.219-.019.143-.014.214-.019l.161-.014.171-.014c.5-.048,1.069-.1,1.7-.157,4.381-.737,2.495-9.276,2.471-17.967-.005-1.958-.038-3.934-.085-5.86q-.015-.478-.029-.955c0-.29-.014-.575-.024-.855-.01-.252-.014-.5-.024-.741,0-.1,0-.19-.01-.28-.019-.618-.042-1.221-.066-1.815q-.029-.742-.057-1.44c-.1-2.243-.2-4.238-.294-5.821-.009-.181-.019-.357-.028-.528a.173.173,0,0,1,0-.048c0-.109-.009-.214-.019-.318-.014-.257-.033-.5-.048-.723-.01-.162-.019-.309-.028-.451-.01-.19-.019-.371-.033-.532a.419.419,0,0,0,0-.076c-.015-.252-.029-.461-.038-.627-.005-.057-.01-.11-.015-.157-.015-.185-.019-.281-.019-.281l33.188-6.572,2-.394,2.091-.413v.024c-.01,2.186.028,4.3.1,6.339.8,23.161,6.386,36.586,10.659,37.712,1.606.817,5.2,1.278,8.677,1.687,3.649.423,7.166.789,8.121,1.44C1571.625,1034.64,1579.8,1054.318,1583.153,1078.163Z" transform="translate(-1436.205 -892.351)" fill="#ffb27d"/>
          <path id="Path_52598" data-name="Path 52598" d="M1565.266,988.786s.8,11.073.824,21.5c19.69-.555,30.1-18.517,34.362-28.473Z" transform="translate(-1504.793 -893.18)" fill="#e8945b"/>
          <path id="Path_52599" data-name="Path 52599" d="M1559.66,825.362s10.318-16.3,12.795-30.244c1.768-9.953-3.3-46.846-40.374-41.532a50.368,50.368,0,0,0-20.889,7.9c-8.049,5.436-19.666,17.173-6.677,49.366l3.374,10.875Z" transform="translate(-1460.366 -740.554)" fill="#233862"/>
          <path id="Path_52600" data-name="Path 52600" d="M1514.4,874.839s46.586.769,46.617-28.25,6.067-48.463-23.676-50.18-35.533,9.349-37.9,19.032S1502.284,873.891,1514.4,874.839Z" transform="translate(-1460.503 -769.355)" fill="#ffb27d"/>
          <path id="Path_52601" data-name="Path 52601" d="M1550.688,782.8s12.755,34.045,32.33,39.078,28.066-.211,28.066-.211a55.431,55.431,0,0,1-18.13-32.749S1560.31,766.6,1550.688,782.8Z" transform="translate(-1495.067 -756.461)" fill="#233862"/>
          <path id="Path_52602" data-name="Path 52602" d="M1512.9,791.8a41.151,41.151,0,0,0-11.794,12.028c-4.248,6.477-8.486,12.225-7.855,25.046,0,0-9.609-23.139,1.19-36.23C1505.891,778.768,1512.9,791.8,1512.9,791.8Z" transform="translate(-1454.115 -762.697)" fill="#233862"/>
          <path id="Path_52603" data-name="Path 52603" d="M1540.5,1130.881c-8.321-11.1-35.251-12.84-35.251-12.84a.039.039,0,0,1,0,.014c-.2.532-5.826,15.487-16.371,25.471a39.134,39.134,0,0,1-5.156,4.148c-14.993,9.994-31.605,13.534-39.109,4.377a19.321,19.321,0,0,1-3.887-10.417c-.718-6.771,3.621-20.03,4.9-22.32.02-.028-.161-.023-.437-.009l-.171.014-.161.014c-.071,0-.137.009-.214.019s-.142.014-.218.019-.167.014-.252.024c-.247.019-.494.047-.7.071-.072,0-.133.01-.195.019l-.138.014h-.014l-.124.014a.661.661,0,0,0-.066.01.4.4,0,0,0-.071,0c-6.928.913-20.833,2.424-25.7,5.541l-.005,0c-.281.143-12.6,6.572-23.428,29.391q-1.739,3.671-3.417,7.927a115.228,115.228,0,0,0,24.017,16.584q2.623,1.361,5.317,2.59a115.552,115.552,0,0,0,113.716-10.511c.556-.38,1.107-.774,1.653-1.174a115.706,115.706,0,0,0,16.509-14.57C1548.276,1145,1544.655,1136.431,1540.5,1130.881Z" transform="translate(-1388.055 -984.068)" fill="#f99746"/>
        </g>
      </g>
      <g id="Group_46343" data-name="Group 46343" transform="translate(60.302 50.792)" opacity="0.5">
        <g id="Group_46336" data-name="Group 46336" transform="translate(0 0)">
          <g id="Group_46332" data-name="Group 46332">
            <path id="Path_52604" data-name="Path 52604" d="M1513,854.058a2.562,2.562,0,1,1,2.561,2.562A2.561,2.561,0,0,1,1513,854.058Z" transform="translate(-1494.057 -833.992)" fill="#fff"/>
            <path id="Path_52605" data-name="Path 52605" d="M1513,955.568a2.562,2.562,0,1,1,2.561,2.562A2.561,2.561,0,0,1,1513,955.568Z" transform="translate(-1494.057 -901.719)" fill="#fff"/>
            <path id="Path_52606" data-name="Path 52606" d="M1513,906.658a2.562,2.562,0,1,1,2.561,2.561A2.561,2.561,0,0,1,1513,906.658Z" transform="translate(-1494.057 -869.086)" fill="#fff"/>
            <path id="Path_52607" data-name="Path 52607" d="M1456.08,906.658a2.561,2.561,0,1,1,2.561,2.561A2.561,2.561,0,0,1,1456.08,906.658Z" transform="translate(-1456.08 -869.086)" fill="#fff"/>
            <path id="Path_52608" data-name="Path 52608" d="M1575.757,854.058a2.562,2.562,0,1,1,2.561,2.562A2.561,2.561,0,0,1,1575.757,854.058Z" transform="translate(-1535.929 -833.992)" fill="#fff"/>
            <path id="Path_52609" data-name="Path 52609" d="M1575.757,906.658a2.562,2.562,0,1,1,2.561,2.561A2.562,2.562,0,0,1,1575.757,906.658Z" transform="translate(-1535.929 -869.086)" fill="#fff"/>
            <path id="Path_52610" data-name="Path 52610" d="M1575.757,955.568a2.562,2.562,0,1,1,2.561,2.562A2.561,2.561,0,0,1,1575.757,955.568Z" transform="translate(-1535.929 -901.719)" fill="#fff"/>
            <path id="Path_52611" data-name="Path 52611" d="M1575.757,1007.406a2.562,2.562,0,1,1,2.561,2.561A2.562,2.562,0,0,1,1575.757,1007.406Z" transform="translate(-1535.929 -936.306)" fill="#fff"/>
            <path id="Path_52612" data-name="Path 52612" d="M1640.962,906.658a2.561,2.561,0,1,1,2.561,2.561A2.561,2.561,0,0,1,1640.962,906.658Z" transform="translate(-1579.434 -869.086)" fill="#fff"/>
            <path id="Path_52613" data-name="Path 52613" d="M1687.4,906.658a2.562,2.562,0,1,1,2.562,2.561A2.562,2.562,0,0,1,1687.4,906.658Z" transform="translate(-1610.42 -869.086)" fill="#fff"/>
            <path id="Path_52614" data-name="Path 52614" d="M1640.962,955.568a2.561,2.561,0,1,1,2.561,2.562A2.561,2.561,0,0,1,1640.962,955.568Z" transform="translate(-1579.434 -901.719)" fill="#fff"/>
            <path id="Path_52615" data-name="Path 52615" d="M1575.757,801.458a2.562,2.562,0,1,1,2.561,2.562A2.562,2.562,0,0,1,1575.757,801.458Z" transform="translate(-1535.929 -798.896)" fill="#fff"/>
            <path id="Path_52616" data-name="Path 52616" d="M1638.514,854.058a2.561,2.561,0,1,1,2.561,2.562A2.561,2.561,0,0,1,1638.514,854.058Z" transform="translate(-1577.801 -833.992)" fill="#fff"/>
          </g>
          <g id="Group_46333" data-name="Group 46333" transform="translate(21.172 2.562)">
            <path id="Path_52617" data-name="Path 52617" d="M1519.7,858.56V824.1h.664v33.1l20.221-15.759V806.594h.664v35.172Z" transform="translate(-1519.699 -806.594)" fill="#fff"/>
          </g>
          <g id="Group_46334" data-name="Group 46334" transform="translate(2.066 2.129)">
            <path id="Path_52618" data-name="Path 52618" d="M1502.608,874.691l-21.8-18.011h21.476V841.067h-21.466l21.794-18.267,22.036,17.776v15.6l14.668-15.447-16.044-17.261-20.656-17.313-20.672,17.326-18.661,17.245,17.564,15.5-.439.5-18.115-15.991,19.213-17.755,21.111-17.694L1523.74,823l16.484,17.734-15.579,16.407v.2h-.216Zm-19.958-17.347,19.966,16.492,20.745-16.492Zm20.293-.664h21.036V840.894l-21.364-17.234L1482.64,840.4h20.3Z" transform="translate(-1462.289 -805.292)" fill="#fff"/>
          </g>
          <g id="Group_46335" data-name="Group 46335" transform="translate(42.057 38.381)">
            <path id="Path_52619" data-name="Path 52619" d="M1583.12,946.944h-.664V929.527l20.4-15.3.4.531-20.14,15.1Z" transform="translate(-1582.456 -914.225)" fill="#fff"/>
          </g>
        </g>
        <g id="Group_46337" data-name="Group 46337" transform="translate(4.17 37.24)">
          <rect id="Rectangle_12242" data-name="Rectangle 12242" width="15.52" height="0.664" fill="#fff"/>
        </g>
        <g id="Group_46338" data-name="Group 46338" transform="translate(44.951 37.24)">
          <rect id="Rectangle_12243" data-name="Rectangle 12243" width="17.711" height="0.664" fill="#fff"/>
        </g>
        <g id="Group_46339" data-name="Group 46339" transform="translate(22.598 19.735)">
          <path id="Path_52620" data-name="Path 52620" d="M1565.8,874.977l-1.439-16.118h-40.372V858.2h40.98l1.493,16.722Z" transform="translate(-1523.985 -858.196)" fill="#fff"/>
        </g>
        <g id="Group_46340" data-name="Group 46340" transform="translate(41.855 19.812)">
          <path id="Path_52621" data-name="Path 52621" d="M1603.883,892.731,1581.849,876.2l21.206-17.774.427.509-20.564,17.236,21.365,16.026Z" transform="translate(-1581.849 -858.429)" fill="#fff"/>
        </g>
        <g id="Group_46341" data-name="Group 46341" transform="translate(21.299 19.806)">
          <rect id="Rectangle_12244" data-name="Rectangle 12244" width="0.664" height="26.567" transform="matrix(0.618, -0.786, 0.786, 0.618, 0, 0.522)" fill="#fff"/>
        </g>
        <g id="Group_46342" data-name="Group 46342" transform="translate(64.089 37.24)">
          <rect id="Rectangle_12245" data-name="Rectangle 12245" width="16.293" height="0.664" fill="#fff"/>
        </g>
      </g>
      <g id="Group_46348" data-name="Group 46348" transform="translate(34.285 40.334)">
        <g id="Group_46344" data-name="Group 46344" transform="translate(0 0.765)">
          <path id="Path_52622" data-name="Path 52622" d="M1383.51,786.921h-5.6V769.769h18.683v5.6H1383.51Z" transform="translate(-1377.905 -769.769)" fill="#fff"/>
        </g>
        <g id="Group_46345" data-name="Group 46345" transform="translate(141.359)">
          <path id="Path_52623" data-name="Path 52623" d="M1819.82,786.152h-5.6V773.075h-11.547v-5.6h17.152Z" transform="translate(-1802.668 -767.47)" fill="#fff"/>
        </g>
        <g id="Group_46346" data-name="Group 46346" transform="translate(139.828 110.697)">
          <path id="Path_52624" data-name="Path 52624" d="M1816.751,1117.249h-18.683v-5.6h13.078V1100.1h5.605Z" transform="translate(-1798.068 -1100.098)" fill="#fff"/>
        </g>
        <g id="Group_46347" data-name="Group 46347" transform="translate(0 109.931)">
          <path id="Path_52625" data-name="Path 52625" d="M1395.057,1116.48h-17.152V1097.8h5.6v13.078h11.547Z" transform="translate(-1377.905 -1097.798)" fill="#fff"/>
        </g>
      </g>
    </g>
    <path id="Path_51387" data-name="Path 51387" d="M204.947,79.206a3.589,3.589,0,0,0-5.14,0l-22.73,22.73-22.73-22.73a3.635,3.635,0,1,0-5.14,5.14l22.73,22.73-22.73,22.73a3.589,3.589,0,0,0,0,5.14,3.686,3.686,0,0,0,5.141,0l22.73-22.73,22.73,22.73a3.686,3.686,0,0,0,5.141,0,3.589,3.589,0,0,0,0-5.14l-22.73-22.73,22.73-22.73a3.738,3.738,0,0,0,0-5.14Z" transform="translate(954.754 419.731)" fill="red"/>
  </g>
</svg>
