<svg xmlns="http://www.w3.org/2000/svg" width="150" height="126.734" viewBox="0 0 150 126.734">
  <g id="Group_66894" data-name="Group 66894" transform="translate(-638.513 496.791)">
    <g id="Group_66893" data-name="Group 66893">
      <g id="Group_66783" data-name="Group 66783" transform="translate(662.204 -496.791)">
        <g id="Group_66781" data-name="Group 66781" transform="translate(0 0)">
          <path id="Path_52594" data-name="Path 52594" d="M1371.769,694.715a48.5,48.5,0,0,1-20.017,39.229c-.229.168-.461.333-.694.493a48.509,48.509,0,0,1-47.738,4.413q-1.131-.515-2.232-1.087a48.347,48.347,0,0,1-10.082-6.962,48.443,48.443,0,1,1,80.763-36.085Z" transform="translate(-1274.882 -646.273)" fill="#f9ddbf"/>
          <g id="Group_66777" data-name="Group 66777" transform="translate(15.414 5.833)">
            <path id="Path_66067" data-name="Path 66067" d="M80.137,182.672c1.7,1.394,3.52,2.676,5.088,4.21,2.4,2.346,3.01,9.864,3.544,13.308-.29.226-1.279,1.692-1.658,1.982C71.492,214.1,58.834,216.289,38.727,212.391c-27.644-15.911-11.4-12.2-16.4-12.2,1.306-2.411,3.335-9.356,5.054-11.581a45.753,45.753,0,0,1,5.163-4.965c.787-.6,1.392-1.064,2.114-1.556A28.224,28.224,0,0,1,47.4,178.074a15.2,15.2,0,0,0,18.953.052A45.117,45.117,0,0,1,80.137,182.672Z" transform="translate(-22.037 -122.929)" fill="#f99746"/>
            <path id="Path_66068" data-name="Path 66068" d="M96.668,88.632a53.048,53.048,0,0,0-13.985-4.609,57.687,57.687,0,0,1-2.394-5.667c-.038-1.781-.1-3.389-.077-5.1,1.58-2.3,3.08-4.5,4.673-6.574.764,1.563,1.9,2.182,3.3,1.377,1.494-.854,1.464-2.21.663-3.7,1.471-2.745,1.623-5.337-.028-7.944l-1.8.389c-.043-1.939-.718-3.64-2.571-4.127-3.572-.939-5.411-3.533-7.125-6.466-2.678-4.583-4.924-5.54-10.108-4.611-.4.071-.789.175-1.191.265l-.92-2.731c-.8,1.931-1.694,4.074-2.578,6.22-.092.224-.247.5-.185.7.943,2.986-.247,5.438-1.722,7.934-.658,1.114-.974,2.188-2.585,1.228a13.347,13.347,0,0,0-.638,7.169c-1.365,1.647-.49,2.941.617,3.891s1.915-.313,2.749-.9c.186-.13.308-.352.493-.361a18.185,18.185,0,0,0,1.3,3.727c1.124,1.861,2.5,3.568,3.749,5.5-.1,1.159-.18,2.164-.3,3.316-.8,2.253-1.555,4.358-2.31,6.462A31.709,31.709,0,0,0,50.982,87.97a64.943,64.943,0,0,1-1.89-6.492c-1.335-5.9-1.4-11.618,1.9-17.081,1.277-2.113,1.889-4.626,2.929-7a37.229,37.229,0,0,0,.842-4.181,3.729,3.729,0,0,1,.244-1.371c.164-2.478.19-4.912.215-7.345a1.1,1.1,0,0,1,.114-.664,41.224,41.224,0,0,0,.558-4.155,3.729,3.729,0,0,1,.342-1.078.764.764,0,0,0,.146-.511s.009-.069.157-.087a2.932,2.932,0,0,0,.477-.923c-.028-.131.01-.239.295-.4a1.276,1.276,0,0,0,.4-.421s.008.051.082.01a2.452,2.452,0,0,0,.307-.387c1.642-.548,3.291-1.075,4.922-1.653a4.95,4.95,0,0,0,1.849-.875c5.295-5.264,10.641-5.834,16.844-1.645a42.011,42.011,0,0,1,6.181,4.621,45.6,45.6,0,0,1,4.7,6.275c.105.311.185.381.3.412a.614.614,0,0,1,0,.141c.628,4.459,1.22,8.776,1.909,13.078.288,1.8.393,3.784,1.256,5.3,2.006,3.522,3.823,7.06,4.54,11.085.6,2.678,1.3,5.339,1.766,8.04C103.118,85.052,101.214,87.673,96.668,88.632Z" transform="translate(-38.425 -28.947)" fill="#0f0a32"/>
            <path id="Path_66070" data-name="Path 66070" d="M106.783,161.409c.738,1.786,1.475,3.573,2.275,5.481a14.735,14.735,0,0,1-18.751.085c.658-2.185,1.413-4.29,2.328-6.512,1.2.721,2.214,1.605,3.3,2.388,2.328,1.681,4.75,2.518,7.431.678C104.468,162.771,105.641,162.113,106.783,161.409Z" transform="translate(-64.94 -111.83)" fill="#ffb27d"/>
            <path id="Path_66071" data-name="Path 66071" d="M100.051,83.907c-1.5,2.2-3,4.39-4.672,6.758-.947.961-1.7,1.77-2.5,2.533-2.908,2.776-5.086,2.981-8.335.7-1.048-.734-1.971-1.646-2.951-2.476-1.272-1.772-2.65-3.479-3.773-5.34a20.218,20.218,0,0,1-1.351-3.82c-.092-2.949-1.159-3.648-3.75-2.663a12.44,12.44,0,0,1,.579-7.049c1.611.96,1.927-.114,2.585-1.228,1.475-2.5,2.665-4.949,1.722-7.934-.062-.195.093-.474.185-.7.884-2.146,1.776-4.289,2.578-6.22l.92,2.731c.4-.09.794-.194,1.191-.265,5.183-.928,7.429.029,10.108,4.611,1.714,2.933,3.553,5.527,7.125,6.466,1.853.487,2.528,2.188,2.571,4.127l1.8-.389c1.651,2.607,1.5,5.2-.087,7.886-2.343-.95-3.547-.244-3.944,2.267M87.7,81.954l-1.663-.313q-.019.278-.04.555a6,6,0,0,1,1.937.229l3.3-.133q-.066-.388-.132-.776a14.764,14.764,0,0,1-1.486.444,4.641,4.641,0,0,1-1.914-.007M73.582,75.667l.98,1.15.486-.282-.986-2.018a10.56,10.56,0,0,1-.762,1.047c.03-.013.059-.026.282.1m6.06-3.461a3.859,3.859,0,0,1,4.332-.03,2.512,2.512,0,0,0,1.577.3c.3-.035.63-.5.769-.839.052-.128-.355-.553-.628-.685a6.082,6.082,0,0,0-6.814,1.153l-.17.374c.222-.071.443-.141.935-.275M84.424,85.8c1.287,2.831,2.7,3.805,4.974,3.432,1.746-.286,3.126-1.984,3.476-4.5-2.071-.112-4.122-.224-6.464-.354-.778.223-2.021-.374-1.985,1.425m6.993-15.028-1.031,1.183c.534.169,1.224.639,1.576.457a5.391,5.391,0,0,1,5.393-.225c-1.249-1.8-2.35-2.05-5.938-1.415m4,5.131-.3-1.816-1.389.831a6.08,6.08,0,0,0,1.693.985m-13.758-.426c.6.825,1.31.958,1.853.054a1.393,1.393,0,0,0-.383-1.321c-.939-.5-1.435.059-1.47,1.267m-6.482,2.293-.247.053.089.325A.621.621,0,0,0,75.172,77.768Z" transform="translate(-53.683 -46.294)" fill="#ffb27d"/>
            <path id="Path_66072" data-name="Path 66072" d="M96.853,150.034c1,.675,1.927,1.587,2.975,2.321,3.249,2.277,5.428,2.072,8.335-.7.8-.763,1.555-1.572,2.422-2.427.151,1.542.21,3.151.248,4.931-1.163.875-2.336,1.533-3.441,2.291-2.682,1.84-5.1,1-7.431-.678-1.083-.783-2.093-1.667-3.252-2.536A25.537,25.537,0,0,1,96.853,150.034Z" transform="translate(-68.97 -104.747)" fill="#f98c79"/>
            <path id="Path_66073" data-name="Path 66073" d="M71.834,118.5c2.65-1.105,3.717-.407,3.775,2.372a1.269,1.269,0,0,1-.409.624c-.834.582-1.632,1.853-2.749.9S70.469,120.143,71.834,118.5Z" transform="translate(-52.859 -85.067)" fill="#ecf0f1"/>
            <path id="Path_66074" data-name="Path 66074" d="M147.349,126.3c.305-2.629,1.509-3.335,3.783-2.266.985,1.433,1.014,2.789-.479,3.643C149.244,128.485,148.113,127.866,147.349,126.3Z" transform="translate(-100.889 -88.572)" fill="#eef2f2"/>
            <path id="Path_66075" data-name="Path 66075" d="M107.347,131.968l6.173.336c-.35,2.52-1.73,4.217-3.476,4.5-2.275.373-3.687-.6-4.838-3.586a.673.673,0,0,1,.575-.158,7.4,7.4,0,0,1,1.206.993c1.425,1.609,2.625,1.629,4.553.144.423-.437.742-.819,1.2-1.371-1.143.056-1.984.1-2.939.065a4.4,4.4,0,0,0-1.322-.033,2.156,2.156,0,0,1-1.14-.221C107.344,132.327,107.345,132.147,107.347,131.968Z" transform="translate(-74.33 -93.872)" fill="#f63f3a"/>
            <path id="Path_66076" data-name="Path 66076" d="M122.145,94.546c3.436-.6,4.537-.355,5.786,1.448a5.391,5.391,0,0,0-5.393.225c-.352.182-1.042-.288-1.576-.457A11.088,11.088,0,0,1,122.145,94.546Z" transform="translate(-84.26 -70.103)" fill="#191236"/>
            <path id="Path_66077" data-name="Path 66077" d="M90.286,95.647a5.979,5.979,0,0,1,6.649-1.014c.273.132.68.557.628.685-.139.342-.47.8-.769.839a2.512,2.512,0,0,1-1.577-.3c-1.484-.991-2.894-.753-4.547-.016A.976.976,0,0,1,90.286,95.647Z" transform="translate(-64.927 -69.973)" fill="#150f34"/>
            <path id="Path_66078" data-name="Path 66078" d="M131.551,105.966a10.838,10.838,0,0,1-1.573-1.038l1.389-.831A9.444,9.444,0,0,1,131.551,105.966Z" transform="translate(-89.941 -76.308)" fill="#1d1436"/>
            <path id="Path_66079" data-name="Path 66079" d="M97.215,105.258c.085-1.079.581-1.634,1.519-1.138a1.393,1.393,0,0,1,.383,1.321C98.575,106.345,97.864,106.212,97.215,105.258Z" transform="translate(-69.294 -76.207)" fill="#231839"/>
            <path id="Path_66080" data-name="Path 66080" d="M75,106.28l.671-1.011.986,2.018-.486.282c-.327-.383-.653-.767-1.076-1.22Z" transform="translate(-55.296 -77.046)" fill="#fd9e8d"/>
            <path id="Path_66081" data-name="Path 66081" d="M107.127,131.944c.144.188.142.368.016.706a6.473,6.473,0,0,1-1.537.352l-.507.074C104.96,131.561,106.2,132.158,107.127,131.944Z" transform="translate(-74.255 -93.857)" fill="#f74a46"/>
            <path id="Path_66082" data-name="Path 66082" d="M106.763,134.482a11.262,11.262,0,0,1,1.435-.264,13.658,13.658,0,0,1,1.372.153c.592.027.96.021,1.329.016l2.825-.139a6.235,6.235,0,0,1-1.37,1.339c-1.653-.065-3.033-.153-4.413-.24C107.583,135.074,107.224,134.8,106.763,134.482Z" transform="translate(-75.311 -95.29)" fill="#fcebea"/>
          </g>
        </g>
        <g id="Group_66778" data-name="Group 66778" transform="translate(26.395 16.484)" opacity="0.67">
          <g id="Group_46336" data-name="Group 46336" transform="translate(0 0)">
            <g id="Group_46332" data-name="Group 46332">
              <path id="Path_52604" data-name="Path 52604" d="M1513,852.873a1.376,1.376,0,1,1,1.376,1.376A1.376,1.376,0,0,1,1513,852.873Z" transform="translate(-1502.826 -842.095)" fill="#fff"/>
              <path id="Path_52605" data-name="Path 52605" d="M1513,954.382a1.376,1.376,0,1,1,1.376,1.376A1.376,1.376,0,0,1,1513,954.382Z" transform="translate(-1502.826 -925.46)" fill="#fff"/>
              <path id="Path_52606" data-name="Path 52606" d="M1513,905.472a1.376,1.376,0,1,1,1.376,1.376A1.376,1.376,0,0,1,1513,905.472Z" transform="translate(-1502.826 -885.292)" fill="#fff"/>
              <path id="Path_52607" data-name="Path 52607" d="M1456.08,905.472a1.376,1.376,0,1,1,1.375,1.376A1.376,1.376,0,0,1,1456.08,905.472Z" transform="translate(-1456.08 -885.292)" fill="#fff"/>
              <path id="Path_52608" data-name="Path 52608" d="M1575.757,852.873a1.376,1.376,0,1,1,1.376,1.376A1.376,1.376,0,0,1,1575.757,852.873Z" transform="translate(-1554.366 -842.095)" fill="#fff"/>
              <path id="Path_52609" data-name="Path 52609" d="M1575.757,905.472a1.376,1.376,0,1,1,1.376,1.376A1.376,1.376,0,0,1,1575.757,905.472Z" transform="translate(-1554.366 -885.292)" fill="#fff"/>
              <path id="Path_52610" data-name="Path 52610" d="M1575.757,954.382a1.376,1.376,0,1,1,1.376,1.376A1.376,1.376,0,0,1,1575.757,954.382Z" transform="translate(-1554.366 -925.46)" fill="#fff"/>
              <path id="Path_52611" data-name="Path 52611" d="M1575.757,1006.22a1.376,1.376,0,1,1,1.376,1.376A1.376,1.376,0,0,1,1575.757,1006.22Z" transform="translate(-1554.366 -968.033)" fill="#fff"/>
              <path id="Path_52612" data-name="Path 52612" d="M1640.962,905.472a1.376,1.376,0,1,1,1.376,1.376A1.376,1.376,0,0,1,1640.962,905.472Z" transform="translate(-1607.916 -885.292)" fill="#fff"/>
              <path id="Path_52613" data-name="Path 52613" d="M1687.4,905.472a1.376,1.376,0,1,1,1.376,1.376A1.376,1.376,0,0,1,1687.4,905.472Z" transform="translate(-1646.056 -885.292)" fill="#fff"/>
              <path id="Path_52614" data-name="Path 52614" d="M1640.962,954.382a1.376,1.376,0,1,1,1.376,1.376A1.376,1.376,0,0,1,1640.962,954.382Z" transform="translate(-1607.916 -925.46)" fill="#fff"/>
              <path id="Path_52615" data-name="Path 52615" d="M1575.757,800.272a1.376,1.376,0,1,1,1.376,1.376A1.376,1.376,0,0,1,1575.757,800.272Z" transform="translate(-1554.366 -798.896)" fill="#fff"/>
              <path id="Path_52616" data-name="Path 52616" d="M1638.514,852.873a1.376,1.376,0,1,1,1.376,1.376A1.376,1.376,0,0,1,1638.514,852.873Z" transform="translate(-1605.906 -842.095)" fill="#fff"/>
            </g>
            <g id="Group_46333" data-name="Group 46333" transform="translate(11.371 1.376)">
              <path id="Path_52617" data-name="Path 52617" d="M1519.7,834.5V816h.357v17.779l10.86-8.464V806.594h.357v18.89Z" transform="translate(-1519.699 -806.594)" fill="#fff"/>
            </g>
            <g id="Group_46334" data-name="Group 46334" transform="translate(1.11 1.143)">
              <path id="Path_52618" data-name="Path 52618" d="M1483.944,842.565l-11.711-9.673h11.535v-8.386h-11.529l11.706-9.811,11.835,9.547v8.381l7.878-8.3-8.617-9.271-11.094-9.3-11.1,9.305-10.022,9.262,9.433,8.327-.236.267-9.729-8.589,10.319-9.536,11.338-9.5,11.347,9.513,8.853,9.525-8.368,8.812v.107h-.116Zm-10.719-9.317,10.723,8.858,11.142-8.858Zm10.9-.357h11.3v-8.479l-11.474-9.256-10.729,8.993h10.905Z" transform="translate(-1462.289 -805.292)" fill="#fff"/>
            </g>
            <g id="Group_46335" data-name="Group 46335" transform="translate(22.588 20.614)">
              <path id="Path_52619" data-name="Path 52619" d="M1582.812,931.8h-.357v-9.355l10.959-8.218.214.285-10.817,8.111Z" transform="translate(-1582.456 -914.225)" fill="#fff"/>
            </g>
          </g>
          <g id="Group_46337" data-name="Group 46337" transform="translate(2.24 20.001)">
            <rect id="Rectangle_12242" data-name="Rectangle 12242" width="8.336" height="0.357" fill="#fff"/>
          </g>
          <g id="Group_46338" data-name="Group 46338" transform="translate(24.143 20.001)">
            <rect id="Rectangle_12243" data-name="Rectangle 12243" width="9.512" height="0.357" fill="#fff"/>
          </g>
          <g id="Group_46339" data-name="Group 46339" transform="translate(12.137 10.599)">
            <path id="Path_52620" data-name="Path 52620" d="M1546.441,867.209l-.773-8.657h-21.683V858.2h22.01l.8,8.981Z" transform="translate(-1523.985 -858.196)" fill="#fff"/>
          </g>
          <g id="Group_46340" data-name="Group 46340" transform="translate(22.48 10.641)">
            <path id="Path_52621" data-name="Path 52621" d="M1593.683,876.852l-11.834-8.877,11.389-9.546.229.273-11.045,9.257,11.475,8.607Z" transform="translate(-1581.849 -858.429)" fill="#fff"/>
          </g>
          <g id="Group_46341" data-name="Group 46341" transform="translate(11.439 10.637)">
            <rect id="Rectangle_12244" data-name="Rectangle 12244" width="0.357" height="14.269" transform="matrix(0.618, -0.786, 0.786, 0.618, 0, 0.28)" fill="#fff"/>
          </g>
          <g id="Group_46342" data-name="Group 46342" transform="translate(34.422 20.001)">
            <rect id="Rectangle_12245" data-name="Rectangle 12245" width="8.751" height="0.357" fill="#fff"/>
          </g>
        </g>
        <g id="Group_66782" data-name="Group 66782" transform="translate(23.646 14.371)">
          <g id="Group_46344" data-name="Group 46344" transform="translate(0 0.257)">
            <path id="Path_52622" data-name="Path 52622" d="M1379.786,775.526h-1.881v-5.757h6.27v1.881h-4.389Z" transform="translate(-1377.905 -769.769)" fill="#fff"/>
          </g>
          <g id="Group_46345" data-name="Group 46345" transform="translate(47.443)">
            <path id="Path_52623" data-name="Path 52623" d="M1808.424,773.74h-1.881v-4.389h-3.875V767.47h5.757Z" transform="translate(-1802.668 -767.47)" fill="#fff"/>
          </g>
          <g id="Group_46346" data-name="Group 46346" transform="translate(46.929 37.152)">
            <path id="Path_52624" data-name="Path 52624" d="M1804.339,1105.854h-6.271v-1.881h4.389V1100.1h1.881Z" transform="translate(-1798.068 -1100.098)" fill="#fff"/>
          </g>
          <g id="Group_46347" data-name="Group 46347" transform="translate(0 36.895)">
            <path id="Path_52625" data-name="Path 52625" d="M1383.662,1104.068h-5.756v-6.27h1.881v4.389h3.875Z" transform="translate(-1377.905 -1097.798)" fill="#fff"/>
          </g>
        </g>
        <path id="Path_66083" data-name="Path 66083" d="M172.339,78.584a1.529,1.529,0,0,0-2.191,0l-9.687,9.694-9.687-9.694a1.55,1.55,0,0,0-2.191,2.192l9.687,9.694-9.687,9.694a1.531,1.531,0,0,0,0,2.192,1.57,1.57,0,0,0,2.191,0l9.687-9.694,9.687,9.694a1.57,1.57,0,0,0,2.191,0,1.531,1.531,0,0,0,0-2.192l-9.687-9.694,9.687-9.694a1.6,1.6,0,0,0,0-2.192Z" transform="translate(-70.185 -66.537)" fill="red"/>
      </g>
    </g>
    <g id="Group_66892" data-name="Group 66892" transform="translate(639.513 -394.058)">
      <g id="Group_45897" data-name="Group 45897" transform="translate(0 0)">
        <text id="Face_Not_detected" data-name="Face Not detected" transform="translate(74 17)" fill="#c22f2f" stroke="rgba(0,0,0,0)" stroke-miterlimit="10" stroke-width="1" font-size="16" font-family="Poppins-Medium, Poppins" font-weight="500"><tspan x="-73.696" y="0">Face Not detected</tspan></text>
      </g>
    </g>
  </g>
</svg>
