<svg xmlns="http://www.w3.org/2000/svg" width="18" height="23.501" viewBox="0 0 18 23.501">
  <g id="noun-upload-paperwork-525978" transform="translate(-148.401 -516.655)">
    <path id="Path_51398" data-name="Path 51398" d="M151.4,16.8a3.01,3.01,0,0,0-3,3v16a3.01,3.01,0,0,0,3,3h7.523a4.241,4.241,0,1,0,5.976-5.976V19.8a3.01,3.01,0,0,0-3-3H151.4Zm0,1.5h10.5a1.481,1.481,0,0,1,1.5,1.5V32a4.2,4.2,0,0,0-1.25-.2,4.261,4.261,0,0,0-4.25,4.25,4.2,4.2,0,0,0,.2,1.25h-6.7a1.481,1.481,0,0,1-1.5-1.5v-16a1.481,1.481,0,0,1,1.5-1.5Zm.25,2.75a.75.75,0,0,0,0,1.5h10a.75.75,0,1,0,0-1.5Zm0,4a.75.75,0,0,0,0,1.5h10a.75.75,0,0,0,0-1.5Zm0,4a.75.75,0,0,0,0,1.5h10a.75.75,0,0,0,0-1.5Zm0,4a.75.75,0,0,0,0,1.5h5a.75.75,0,0,0,0-1.5Zm10.5.25a2.75,2.75,0,1,1-2.75,2.75A2.739,2.739,0,0,1,162.151,33.3Zm0,.25a.749.749,0,0,0-.531.219l-1.25,1.25a.749.749,0,0,0,1.031,1.086v1.7a.75.75,0,1,0,1.5,0v-1.7a.749.749,0,0,0,1.031-1.086l-1.25-1.25a.749.749,0,0,0-.531-.219Z" transform="translate(0 499.855)" fill="#0a2f2a"/>
  </g>
</svg>
