<svg xmlns="http://www.w3.org/2000/svg" xmlns:xlink="http://www.w3.org/1999/xlink" width="285.353" height="285.353" viewBox="0 0 285.353 285.353">
  <defs>
    <linearGradient id="linear-gradient" x1="0.666" y1="0.729" x2="1.474" y2="1.845" gradientUnits="objectBoundingBox">
      <stop offset="0" stop-color="#fe7062"/>
      <stop offset="1" stop-color="#ff928e"/>
    </linearGradient>
    <linearGradient id="linear-gradient-2" x1="0.764" y1="0.768" x2="1.974" y2="2.07" xlink:href="#linear-gradient"/>
  </defs>
  <g id="Group_46373" data-name="Group 46373" transform="translate(-532.665 -119.881)">
    <circle id="Ellipse_1933" data-name="Ellipse 1933" cx="142.676" cy="142.676" r="142.676" transform="translate(532.665 405.234) rotate(-90)" fill="url(#linear-gradient)"/>
    <ellipse id="Ellipse_1934" data-name="Ellipse 1934" cx="125.827" cy="125.827" rx="125.827" ry="125.827" transform="translate(548.971 137.274)" fill="#ffdda9"/>
    <g id="Group_46371" data-name="Group 46371" transform="translate(585.584 161.603)">
      <g id="Group_46370" data-name="Group 46370" transform="translate(0 0)">
        <path id="Path_52675" data-name="Path 52675" d="M895.289,320.918c-13.5,25.447-60.155,113.16-78.127,143.441-1.9,3.208-5.594,4.577-8.437,3.131-14.063-7.153-65.283-33.972-87.187-47.639-4.562-2.847-5.813-9.372-2.848-14.918,14.256-26.659,54.637-101.48,76.063-134.124,2.567-3.911,7.111-5.631,10.817-4.1,15.973,6.609,69.058,30.595,87.691,42.925C896.622,311.861,897.5,316.757,895.289,320.918Z" transform="translate(-717.085 -266.155)" fill="#f6ab39"/>
        <path id="Path_52676" data-name="Path 52676" d="M921.778,345.542c-10.581,20.713-45.912,89.547-60.582,114.1-2.144,3.589-6.25,5.169-9.485,3.644-13.322-6.279-58.181-28.761-76.018-41.022-3.212-2.208-4.083-6.9-2.05-10.971,10.6-21.241,42.933-85.65,57.417-109.945,2.31-3.876,6.713-5.638,10.265-4.119,14.7,6.285,63.15,28.764,78.574,38.706C922.794,337.807,923.611,341.956,921.778,345.542Z" transform="translate(-754.021 -286.491)" fill="#ffdda9"/>
        <path id="Path_52677" data-name="Path 52677" d="M1114.768,342.1h0a1.568,1.568,0,0,1-1.981.794c-3.363-1.615-12.839-6.161-17.088-8.167a1.588,1.588,0,0,1-.327-2.441l.115-.144a1.526,1.526,0,0,1,1.756-.554,155.2,155.2,0,0,1,17.147,8.4A1.564,1.564,0,0,1,1114.768,342.1Z" transform="translate(-968.724 -309.661)" fill="#c49145"/>
      </g>
    </g>
    <g id="Group_46372" data-name="Group 46372" transform="translate(617.766 195.035)">
      <path id="Path_52678" data-name="Path 52678" d="M936.033,433.449l6.53-2.286a32.316,32.316,0,0,0,8.525,4.765l1.478,6.754a1.25,1.25,0,0,0,1.075.974l8.668,1.016a1.256,1.256,0,0,0,1.273-.7l3-6.229a32.3,32.3,0,0,0,9.4-2.665l5.825,3.733a1.252,1.252,0,0,0,1.45-.071l6.848-5.411a1.252,1.252,0,0,0,.4-1.394l-2.286-6.53a32.276,32.276,0,0,0,4.766-8.525l6.754-1.478a1.249,1.249,0,0,0,.974-1.076l1.016-8.668a1.251,1.251,0,0,0-.7-1.272l-6.229-3a32.285,32.285,0,0,0-2.665-9.4l3.733-5.824a1.25,1.25,0,0,0-.071-1.45l-5.411-6.848a1.252,1.252,0,0,0-1.394-.4l-6.53,2.286a32.281,32.281,0,0,0-8.525-4.765l-1.478-6.754a1.25,1.25,0,0,0-1.076-.974l-8.668-1.016a1.3,1.3,0,0,0-.152-.009,1.251,1.251,0,0,0-1.121.708l-3,6.23a32.284,32.284,0,0,0-9.4,2.665l-5.824-3.733a1.25,1.25,0,0,0-1.45.071l-6.848,5.411a1.251,1.251,0,0,0-.406,1.394l2.286,6.53a32.289,32.289,0,0,0-4.766,8.525l-6.754,1.478a1.251,1.251,0,0,0-.974,1.075l-1.016,8.669a1.251,1.251,0,0,0,.7,1.272l6.229,3a32.318,32.318,0,0,0,2.665,9.4l-3.733,5.824a1.25,1.25,0,0,0,.071,1.45l5.411,6.848A1.251,1.251,0,0,0,936.033,433.449Zm-1.658-14.427-.152-.326a31.008,31.008,0,0,1-2.745-9.676l-.041-.357-6.846-3.255.973-8.621,7.455-1.631.123-.339a31,31,0,0,1,4.907-8.779l.224-.282-2.541-7.147,6.784-5.408,6.429,4.121.326-.153a30.971,30.971,0,0,1,9.676-2.744l.357-.041,3.255-6.845,8.622.973,1.631,7.455.339.122A31,31,0,0,1,981.933,381l.281.224,7.146-2.54,5.408,6.784-4.121,6.429.153.326a30.983,30.983,0,0,1,2.745,9.676l.041.357,6.845,3.255-1.011,8.63L992,415.76l-.122.338a30.989,30.989,0,0,1-4.907,8.779l-.224.282,2.541,7.147-6.785,5.408-6.429-4.121-.326.153a30.981,30.981,0,0,1-9.676,2.745l-.357.041-3.255,6.845-8.621-.973-1.631-7.455-.339-.122a31,31,0,0,1-8.779-4.907l-.282-.224-7.146,2.54-5.408-6.784Z" transform="translate(-886.585 -366.233)" fill="#c79344"/>
      <path id="Path_52679" data-name="Path 52679" d="M994.43,462.234a21.712,21.712,0,0,0,24.092-19.037,21.868,21.868,0,0,0,.051-4.622.652.652,0,1,0-1.3.124,20.57,20.57,0,0,1-.048,4.345,20.4,20.4,0,1,1-7.823-18.551.653.653,0,0,0,.8-1.034,21.684,21.684,0,0,0-10.715-4.354,22.032,22.032,0,0,0-2.658-.15,21.714,21.714,0,0,0-2.4,43.279Z" transform="translate(-921.185 -401.342)" fill="#c79344"/>
      <path id="Path_52680" data-name="Path 52680" d="M1023.918,458.486a8.412,8.412,0,1,0,3.027.555A8.381,8.381,0,0,0,1023.918,458.486Zm6.669,10.932a7.1,7.1,0,1,1-4.107-9.159A7.1,7.1,0,0,1,1030.588,469.418Z" transform="translate(-948.028 -427.668)" fill="#c79344"/>
      <path id="Path_52681" data-name="Path 52681" d="M857.208,572.8a10.889,10.889,0,0,0,.69-2.188.652.652,0,1,0-1.279-.258,9.478,9.478,0,1,1-5.5-10.551,9.457,9.457,0,0,1,3.922,3.176.653.653,0,0,0,1.063-.757,10.782,10.782,0,1,0,1.107,10.578Z" transform="translate(-828.816 -493.743)" fill="#c79344"/>
      <path id="Path_52682" data-name="Path 52682" d="M815.933,562.371l3.141-.132a15.875,15.875,0,0,0,3.074,3.194l-.249,3.132a.94.94,0,0,0,.561.936l3.847,1.678a.938.938,0,0,0,1.068-.225l2.127-2.313a15.877,15.877,0,0,0,4.433.081l2.04,2.393a.941.941,0,0,0,1.059.265l3.908-1.534a.941.941,0,0,0,.6-.914l-.132-3.141a15.872,15.872,0,0,0,3.194-3.074l3.132.249a.941.941,0,0,0,.936-.561l1.678-3.846a.938.938,0,0,0-.224-1.069l-2.313-2.127a15.847,15.847,0,0,0,.082-4.432l2.393-2.04a.941.941,0,0,0,.265-1.059l-1.533-3.907a.946.946,0,0,0-.915-.6l-3.142.132a15.868,15.868,0,0,0-3.074-3.194l.249-3.132a.942.942,0,0,0-.561-.936l-3.848-1.678a.939.939,0,0,0-1.067.225l-2.127,2.313a15.914,15.914,0,0,0-4.433-.081l-2.04-2.393a.941.941,0,0,0-1.059-.265l-3.907,1.534a.941.941,0,0,0-.6.915l.132,3.141a15.867,15.867,0,0,0-3.194,3.075l-3.132-.249a.935.935,0,0,0-.936.561l-1.678,3.846a.939.939,0,0,0,.225,1.069l2.313,2.127a15.858,15.858,0,0,0-.081,4.432l-2.393,2.04a.94.94,0,0,0-.265,1.059l1.534,3.909A.954.954,0,0,0,815.933,562.371Zm-1.138-4.738,2.739-2.336-.052-.356a14.556,14.556,0,0,1,.087-4.727l.065-.354-2.648-2.435,1.47-3.37,3.586.285.215-.289a14.575,14.575,0,0,1,3.406-3.279l.3-.2-.151-3.6,3.423-1.344,2.335,2.739.357-.052a14.556,14.556,0,0,1,4.727.087l.354.065,2.435-2.648,3.37,1.471-.285,3.586.289.215a14.567,14.567,0,0,1,3.279,3.406l.2.3,3.6-.151,1.344,3.423L846.5,550.4l.052.356a14.567,14.567,0,0,1-.087,4.727l-.065.354,2.648,2.435-1.471,3.37-3.586-.285-.216.289a14.565,14.565,0,0,1-3.406,3.279l-.3.2.151,3.6L836.8,570.07l-2.336-2.739-.357.052a14.611,14.611,0,0,1-4.727-.086l-.354-.065-2.435,2.648-3.371-1.471.285-3.586-.289-.215a14.573,14.573,0,0,1-3.279-3.406l-.2-.3-3.6.151Z" transform="translate(-813.42 -478.125)" fill="#c79344"/>
    </g>
    <path id="Path_52683" data-name="Path 52683" d="M777.007,303.022,927.6,519.854l10.219-11.9L790.567,293.323Z" transform="translate(-182.615 -143.487)" fill="url(#linear-gradient-2)"/>
  </g>
</svg>
