<svg xmlns="http://www.w3.org/2000/svg" width="21.215" height="21.215" viewBox="0 0 21.215 21.215">
  <g id="Group_66754" data-name="Group 66754" transform="translate(7597.394 -1661.893)">
    <g id="noun-campus-4086637" transform="translate(-7684.894 1644.393)">
      <path id="Path_63199" data-name="Path 63199" d="M317.829,246.414A1.414,1.414,0,1,1,316.414,245a1.414,1.414,0,0,1,1.414,1.414" transform="translate(-218.307 -218.307)" fill="#20776e"/>
      <path id="Path_63200" data-name="Path 63200" d="M323.75,437.5h2.121v4.243H323.75Z" transform="translate(-226.703 -403.028)" fill="#20776e"/>
      <path id="Path_63201" data-name="Path 63201" d="M199.572,22.1v-.354h3.536a.707.707,0,0,0,.707-.707V18.207a.707.707,0,0,0-.707-.707h-4.243a.707.707,0,0,0-.707.707V22.1l-5.374,4.031a.707.707,0,0,0-.283.566V38.008a.707.707,0,0,0,.707.707h3.182v-4.95a.707.707,0,0,1,.707-.707h3.536a.707.707,0,0,1,.707.707v4.95h3.182a.707.707,0,0,0,.707-.707V26.693a.707.707,0,0,0-.283-.566Zm-.707,8.84a2.829,2.829,0,1,1,2-.829A2.828,2.828,0,0,1,198.864,30.936Z" transform="translate(-100.757)" fill="#20776e"/>
      <path id="Path_63202" data-name="Path 63202" d="M87.5,298.207v8.486a.707.707,0,0,0,.707.707h2.121v-9.9H88.207a.707.707,0,0,0-.707.707Z" transform="translate(0 -268.685)" fill="#20776e"/>
      <path id="Path_63203" data-name="Path 63203" d="M544.621,297.5H542.5v9.9h2.121a.707.707,0,0,0,.707-.707v-8.486a.707.707,0,0,0-.707-.707Z" transform="translate(-436.614 -268.685)" fill="#20776e"/>
    </g>
  </g>
</svg>
