<svg xmlns="http://www.w3.org/2000/svg" width="63" height="63" viewBox="0 0 63 63">
  <g id="Group_45987" data-name="Group 45987" transform="translate(-1361 -18)">
    <g id="NoPath_-_Copy_4_" data-name="NoPath - Copy (4)" transform="translate(1361 18)" fill="#0a2f2a" stroke="#b9c4bf" stroke-width="1">
      <circle cx="31.5" cy="31.5" r="31.5" stroke="none"/>
      <circle cx="31.5" cy="31.5" r="31" fill="none"/>
    </g>
    <g id="users" transform="translate(1381.591 36.642)">
      <path id="Path_2410" data-name="Path 2410" d="M34.211,34.358l-5.6-3.09c2.089-1.635,2.666-4.816,2.666-6.633V20.927c0-2.474-3.289-5.213-6.622-5.213s-6.711,2.74-6.711,5.213v3.707a9.174,9.174,0,0,0,2.8,6.583L15.011,34.31s-1.511.663-1.511,1.5v2.254a1.494,1.494,0,0,0,1.511,1.5H34.256a1.494,1.494,0,0,0,1.511-1.5V35.816C35.723,34.976,34.211,34.358,34.211,34.358ZM33.945,37.8H15.278V36.218a2.358,2.358,0,0,1,.444-.265c.045,0,.089-.045.133-.045l5.733-3.093a1.7,1.7,0,0,0,.933-1.413,1.792,1.792,0,0,0-.666-1.546,7.4,7.4,0,0,1-2.133-5.221V20.927c0-1.282,2.4-3.446,4.933-3.446,2.578,0,4.845,2.163,4.845,3.446v3.707c0,1.37-.444,4.02-1.955,5.213a1.7,1.7,0,0,0-.666,1.546,1.83,1.83,0,0,0,.933,1.413l5.6,3.093c.045.045.133.045.177.088a1.166,1.166,0,0,1,.4.221v1.586Z" transform="translate(-13.5 -15.714)" fill="#fff" stroke="#fff" stroke-linecap="round" stroke-linejoin="round" stroke-width="0.2"/>
    </g>
  </g>
</svg>
