<svg xmlns="http://www.w3.org/2000/svg" width="54" height="54" viewBox="0 0 54 54">
  <g id="Group_60969" data-name="Group 60969" transform="translate(8.6 10)">
    <circle id="Ellipse_1827" data-name="Ellipse 1827" cx="27" cy="27" r="27" transform="translate(-8.6 -10)" fill="#e9f7f4"/>
    <g id="noun-webcam-1099981" transform="translate(-116.6 5.75)">
      <path id="Path_52163" data-name="Path 52163" d="M272.31,142.938a3.333,3.333,0,0,0-4.837-3.038,1.022,1.022,0,0,1,.337.788,1.21,1.21,0,0,1-1.125,1.125,1.022,1.022,0,0,1-.788-.337,3.358,3.358,0,0,0,3.038,4.837,3.315,3.315,0,0,0,3.375-3.375Z" transform="translate(-133.935 -133.938)" fill="#0a2f2a"/>
      <path id="Path_52164" data-name="Path 52164" d="M144,9a9,9,0,1,0-10.125,8.888V20.25h-3.262a1.125,1.125,0,1,0,0,2.25h8.662a1.125,1.125,0,1,0,0-2.25h-3.15V17.888A8.992,8.992,0,0,0,144,9ZM129.375,9A5.641,5.641,0,0,1,135,3.375,5.57,5.57,0,0,1,140.625,9,5.57,5.57,0,0,1,135,14.625,5.641,5.641,0,0,1,129.375,9Z" fill="#0a2f2a"/>
    </g>
  </g>
</svg>
