<svg xmlns="http://www.w3.org/2000/svg" width="416" height="231.976" viewBox="0 0 416 231.976">
  <g id="Image_upload-cuate" data-name="Image upload-cuate" transform="translate(-50.72 -65.945)">
    <g id="freepik--background-complete--inject-18" transform="translate(50.72 65.945)">
      <path id="Path_51567" data-name="Path 51567" d="M674.661,109.911l3.778-6.087-1.867-1.155a1.706,1.706,0,0,1-.789-1.6,9.942,9.942,0,0,0,.032-1.071,1.706,1.706,0,0,1,.892-1.546l1.924-1.033L675.244,91.1l-1.924,1.039a1.719,1.719,0,0,1-1.783-.115,10.243,10.243,0,0,0-.911-.564,1.706,1.706,0,0,1-.9-1.546l.071-2.194-7.177-.218-.064,2.2a1.712,1.712,0,0,1-1,1.482c-.16.071-.314.154-.475.237s-.308.167-.455.257a1.687,1.687,0,0,1-1.777,0l-1.879-1.161L653.193,96.6l1.866,1.161a1.693,1.693,0,0,1,.789,1.6c0,.353-.038.706-.032,1.065a1.706,1.706,0,0,1-.892,1.546L653,103.01l3.387,6.318,1.924-1.039a1.719,1.719,0,0,1,1.783.115,10.156,10.156,0,0,0,.9.564,1.7,1.7,0,0,1,.9,1.539l-.064,2.2,7.158.225.07-2.2a1.687,1.687,0,0,1,.994-1.475l.475-.244c.154-.083.308-.167.455-.257a1.713,1.713,0,0,1,1.79,0Zm-6.061-4.49a3.565,3.565,0,1,0,0-.032Z" transform="translate(-266.685 -82.972)" fill="#ebebeb"/>
      <path id="Path_51568" data-name="Path 51568" d="M116.812,251.6l-2.508-4.349-1.328.77a1.187,1.187,0,0,1-1.283-.045,6.61,6.61,0,0,0-.641-.372,1.2,1.2,0,0,1-.641-1.065V245h-5v1.533a1.2,1.2,0,0,1-.641,1.065,5.861,5.861,0,0,0-.641.372,1.186,1.186,0,0,1-1.283.045l-1.334-.77L99,251.6l1.334.77a1.193,1.193,0,0,1,.59,1.1v.738a1.2,1.2,0,0,1-.584,1.1L99,256.09l2.508,4.349,1.334-.77a1.187,1.187,0,0,1,1.283.038,6.565,6.565,0,0,0,.641.378,1.187,1.187,0,0,1,.641,1.058v1.539h5.016v-1.539a1.2,1.2,0,0,1,.641-1.058,5.9,5.9,0,0,0,.641-.378,1.187,1.187,0,0,1,1.283-.038l1.334.77,2.508-4.349-1.334-.77a1.2,1.2,0,0,1-.584-1.1v-.744a1.212,1.212,0,0,1,.584-1.11Zm-4.8,2.245a4.105,4.105,0,1,1-1.2-2.909,4.112,4.112,0,0,1,1.2,2.909Z" transform="translate(-68.032 -139.448)" fill="#ebebeb"/>
      <path id="Path_51569" data-name="Path 51569" d="M78.967,301.23a19.551,19.551,0,1,0,19.544,19.548A19.551,19.551,0,0,0,78.967,301.23Zm0,28.672a9.127,9.127,0,1,1,9.127-9.121A9.127,9.127,0,0,1,78.967,329.9Z" transform="translate(-53.836 -159.611)" fill="#ebebeb"/>
      <path id="Path_51570" data-name="Path 51570" d="M91.557,299.524H84.04l.417-5.324h6.684Z" transform="translate(-62.668 -157.09)" fill="#ebebeb"/>
      <path id="Path_51571" data-name="Path 51571" d="M68.541,304.5l-5.311,5.317-3.47-4.054,4.727-4.727Z" transform="translate(-53.962 -159.543)" fill="#ebebeb"/>
      <path id="Path_51572" data-name="Path 51572" d="M57.5,325.01v7.517l-5.317-.417v-6.684Z" transform="translate(-51.244 -168.138)" fill="#ebebeb"/>
      <path id="Path_51573" data-name="Path 51573" d="M62.484,347.31l5.317,5.317-4.054,3.464-4.727-4.727Z" transform="translate(-53.696 -176.134)" fill="#ebebeb"/>
      <path id="Path_51574" data-name="Path 51574" d="M82.98,360.29H90.5l-.411,5.324H83.4Z" transform="translate(-62.288 -180.788)" fill="#ebebeb"/>
      <path id="Path_51575" data-name="Path 51575" d="M105.29,353.371l5.317-5.311,3.464,4.054-4.727,4.727Z" transform="translate(-70.288 -176.403)" fill="#ebebeb"/>
      <path id="Path_51576" data-name="Path 51576" d="M118.27,333.577V326.06l5.317.417v6.684Z" transform="translate(-74.942 -168.514)" fill="#ebebeb"/>
      <path id="Path_51577" data-name="Path 51577" d="M111.347,310.567l-5.317-5.317,4.06-3.47,4.727,4.727Z" transform="translate(-70.553 -159.808)" fill="#ebebeb"/>
      <path id="Path_51578" data-name="Path 51578" d="M636.644,377.368c3.669-.064,13.085-.225,16.626-.263h5.478l-.289.3v-7.177l.321.321c-3.669,0-13.034-.045-16.574-.1l-5.529-.071.154-.154-.154,7.177Zm0,0-.154-7.178v-.154h.16c2.758-.038,8.294-.1,11.052-.122l11.052-.045h.321v7.78h-5.863c-3.521-.038-12.893-.2-16.529-.263Z" transform="translate(-260.765 -184.224)" fill="#ebebeb"/>
      <path id="Path_51579" data-name="Path 51579" d="M655.914,391.478c3.675-.064,13.085-.225,16.632-.263l5.471-.032-.289.3L677.7,384.3l.321.321c-3.669,0-13.027-.051-16.574-.1l-5.529-.071.154-.154Zm0,0-.154-7.177v-.154h.154c2.758-.039,8.3-.1,11.052-.122l11.052-.045h.327v7.787h-5.869c-3.521-.039-12.892-.2-16.529-.263Z" transform="translate(-267.675 -189.283)" fill="#ebebeb"/>
      <path id="Path_51580" data-name="Path 51580" d="M619.774,204.815c3.669-.058,13.085-.218,16.626-.263h5.478l-.3.289v-7.178l.321.321c-3.675,0-13.034-.045-16.581-.1l-5.523-.064.154-.16Zm0,0-.154-7.178v-.148h.16l11.052-.122,11.052-.038h.321v.321l-.039,7.165v.3H636.3c-3.521-.045-12.886-.205-16.523-.269Z" transform="translate(-254.716 -122.354)" fill="#ebebeb"/>
      <path id="Path_51581" data-name="Path 51581" d="M638.994,218.98c3.669-.058,13.085-.218,16.626-.263H661.1l-.3.289-.051-7.178.321.321c-3.669,0-13.034-.045-16.581-.1l-5.523-.064.154-.16-.154,7.178Zm0,0-.154-7.152v-.148H639l11.052-.122,11.052-.038h.321v7.793h-5.863c-3.521-.045-12.892-.205-16.529-.269Z" transform="translate(-261.607 -127.443)" fill="#ebebeb"/>
      <rect id="Rectangle_12130" data-name="Rectangle 12130" width="22.103" height="7.178" transform="translate(374.834 91.544) rotate(180)" fill="#ebebeb"/>
      <rect id="Rectangle_12131" data-name="Rectangle 12131" width="22.103" height="7.178" transform="translate(37.979 202.195) rotate(180)" fill="#ebebeb"/>
      <rect id="Rectangle_12133" data-name="Rectangle 12133" width="22.103" height="7.178" transform="translate(164.21 0)" fill="#ebebeb"/>
      <rect id="Rectangle_12134" data-name="Rectangle 12134" width="34.868" height="42.295" transform="translate(20.429 60.717)" fill="#ebebeb"/>
      <rect id="Rectangle_12135" data-name="Rectangle 12135" width="26.901" height="34.573" transform="translate(24.412 64.578)" fill="#fff"/>
      <rect id="Rectangle_12136" data-name="Rectangle 12136" width="1.052" height="34.573" transform="translate(24.412 64.578)" fill="#c7c7c7"/>
      <rect id="Rectangle_12137" data-name="Rectangle 12137" width="1.052" height="42.295" transform="translate(55.297 60.717)" fill="#c7c7c7"/>
      <rect id="Rectangle_12138" data-name="Rectangle 12138" width="6.344" height="18.896" transform="translate(33.431 72.57)" fill="#dbdbdb"/>
      <path id="Path_51585" data-name="Path 51585" d="M115.569,197.947H98v-9.9h17.556Zm-16.914-.641h16.273v-8.614H98.641Z" transform="translate(-67.674 -119.027)" fill="#ebebeb"/>
      <rect id="Rectangle_12139" data-name="Rectangle 12139" width="34.868" height="42.295" transform="translate(0 8.499)" fill="#ebebeb"/>
      <rect id="Rectangle_12140" data-name="Rectangle 12140" width="26.901" height="34.573" transform="translate(3.983 12.36)" fill="#fff"/>
      <rect id="Rectangle_12141" data-name="Rectangle 12141" width="1.052" height="34.573" transform="translate(3.983 12.36)" fill="#c7c7c7"/>
      <rect id="Rectangle_12142" data-name="Rectangle 12142" width="1.052" height="42.295" transform="translate(34.868 8.499)" fill="#c7c7c7"/>
      <rect id="Rectangle_12143" data-name="Rectangle 12143" width="5.433" height="13.739" transform="translate(14.83 21.302)" fill="#ebebeb"/>
      <path id="Path_51586" data-name="Path 51586" d="M83.221,136.279H68V126.17H83.221Zm-14.6-.641H82.58v-8.826H68.641Z" transform="translate(-56.916 -96.838)" fill="#dbdbdb"/>
    </g>
    <g id="freepik--Floor--inject-18" transform="translate(50.72 297.286)">
      <path id="Path_51587" data-name="Path 51587" d="M50.72,441.424l52-.154,52-.058,104-.1,104,.1,52,.058,52,.154-52,.16-52,.058-104,.1-104-.1-52-.058Z" transform="translate(-50.72 -441.11)" fill="#263238"/>
    </g>
    <g id="freepik--Plant--inject-18" transform="translate(406.407 184.507)">
      <path id="Path_51588" data-name="Path 51588" d="M645.039,323.58a44.006,44.006,0,0,0-1.424,8.031c.077.135.058.641,0,.494,0,.443-.686.359-.686-.077v-.84c-1.565-1.924-3.849-3.207-5.683-4.875a10.635,10.635,0,0,1-3.117-4.958c-1.527-5.26-.1-10.84-1.924-16.087-1.578-4.522-4.419-8.46-6.825-12.559-2.566-4.336-4.407-8.89-4.593-13.97-.147-3.887.314-9.07,3.278-11.982,3.136-3.092,7.056-.776,9.435,1.982,6.972,8,10.192,18.107,11.5,28.441a111.054,111.054,0,0,1,1.283,17.248A46.78,46.78,0,0,1,645.039,323.58Z" transform="translate(-610.812 -265.283)" fill="#f6ab39"/>
      <path id="Path_51589" data-name="Path 51589" d="M647.74,341.574a98.291,98.291,0,0,0-.192-16.2v-.064c.09-4.381.436-8.743.27-13.124a78.452,78.452,0,0,0-1.924-14.111c0-.051-.1-.039-.083,0a91.946,91.946,0,0,1,1.52,13.771q.135,3.714-.058,7.428c-.045.8-.115,1.616-.173,2.425h0a86.657,86.657,0,0,0-13.034-34.489c-.09-.141-.34,0-.25.154a90.133,90.133,0,0,1,10.609,25.573c-3.355-6.209-8.415-11.315-12.187-17.28,0-.032-.07,0-.058.032,3.374,6.645,8.948,11.879,12.5,18.428.641,2.662,1.122,5.356,1.5,8.069a90.971,90.971,0,0,1,.808,11.206,127.159,127.159,0,0,1-5.831-11.5c-.045-.109-.2-.032-.167.071a45.052,45.052,0,0,0,6,12.283c0,2.656-.064,5.311-.218,7.96-.417,7.056-1.623,14.054-2.181,21.109a.161.161,0,0,0,.321.032A161.852,161.852,0,0,0,647.74,341.574Z" transform="translate(-614.905 -273.124)" fill="#263238"/>
      <path id="Path_51590" data-name="Path 51590" d="M644.68,286.875a.045.045,0,1,0-.077.032c1.283,3.573,2.021,7.2,2.951,10.859a.137.137,0,1,0,.269-.045A39.048,39.048,0,0,0,644.68,286.875Z" transform="translate(-619.356 -273.01)" fill="#263238"/>
      <path id="Path_51591" data-name="Path 51591" d="M681.63,308.009a53.572,53.572,0,0,1-2.976,6.1c-2.322,4.227-4.753,8.1-5.189,13.021a30.551,30.551,0,0,1-.937,6.523,19.763,19.763,0,0,1-2.6,5.131c-2.527,3.669-5.677,6.838-8.011,10.648A44.743,44.743,0,0,0,656.6,362.26c-.058.25-.449.186-.391-.064a.155.155,0,0,0,0-.058.094.094,0,0,1,0-.051c-.372-10.551.468-21.167,3.688-31.288a107.807,107.807,0,0,1,5.131-13.014,30.369,30.369,0,0,1,6.9-9.929c1.963-1.77,6.222-5.131,9.018-3.348C682.259,305.341,682.156,306.688,681.63,308.009Z" transform="translate(-623.491 -279.166)" fill="#f6ab39"/>
      <path id="Path_51592" data-name="Path 51592" d="M669.513,336.941a86.18,86.18,0,0,1-6.132,8.82c-1.026,1.328-2.059,2.655-3.079,3.99-.481.641-1.02,1.283-1.462,1.924q.411-1.661.834-3.329a130.431,130.431,0,0,1,4.7-15.837,107.25,107.25,0,0,1,7.325-14.361c.071-.122-.128-.212-.2-.09-2.226,3.669-4.49,7.325-6.363,11.193a58.794,58.794,0,0,0-2.707,6.639,103.537,103.537,0,0,1,3.6-14.188c0-.039-.045-.071-.064-.032a48.644,48.644,0,0,0-3.733,14.753h0c-.455,1.373-.872,2.758-1.283,4.15-1.668,5.9-3.124,11.866-4.49,17.851a63.773,63.773,0,0,1,1.02-11.732.07.07,0,0,0-.141,0,37.194,37.194,0,0,0-1.02,12.373q-.763,3.412-1.495,6.831c-1.039,4.862-2.309,9.814-2.919,14.753a.1.1,0,0,0,.2.032c.718-2.662,1.161-5.42,1.751-8.114s1.206-5.407,1.835-8.1q1.373-5.888,2.854-11.751a20.935,20.935,0,0,1,2.861-3.906c1.039-1.321,2.078-2.643,3.092-3.983a59.48,59.48,0,0,0,5.074-7.857C669.635,336.928,669.546,336.89,669.513,336.941Z" transform="translate(-621.977 -284.186)" fill="#263238"/>
      <path id="Path_51593" data-name="Path 51593" d="M676.7,340.489a55.17,55.17,0,0,0-6,9.532c0,.045.045.09.077.051,2.021-3.169,4-6.357,6.016-9.525C676.832,340.5,676.742,340.438,676.7,340.489Z" transform="translate(-628.718 -292.243)" fill="#263238"/>
      <path id="Path_51594" data-name="Path 51594" d="M608.3,319.207c1.366,2.354,2.925,5.183,2.341,8.011-.372,1.79-1.687,3.239-1.924,5.067-.526,4.028,3.489,6.7,6.414,8.6,7.248,4.759,17.184,8.98,18.5,18.7.051.34.641.257.6-.083a.275.275,0,0,0,0-.064s.032,0,.032-.058a37.2,37.2,0,0,0-.135-14.823,47.222,47.222,0,0,0-5.843-13.893c-4.355-7.441-8.98-15.054-15.567-20.756-1.828-1.572-5.561-4.407-7.017-.853S606.648,316.34,608.3,319.207Z" transform="translate(-605.249 -280.364)" fill="#f6ab39"/>
      <path id="Path_51595" data-name="Path 51595" d="M620.318,344.665c4.8,5.2,12.443,8.114,16.574,13.938a58.37,58.37,0,0,0-12.739-23.931.188.188,0,0,1,.269-.263,47.246,47.246,0,0,1,10.41,15.112,67.58,67.58,0,0,0-4.49-11.469.122.122,0,1,1,.212-.122,43.57,43.57,0,0,1,4.836,12.873c5.452,13.188,5.952,28.659,4.811,42.558a.16.16,0,0,1-.314,0c.314-10.955.141-22.1-2.489-32.8-.051-.224-.115-.443-.173-.641-4.49-6.267-12.1-9.172-16.985-15.125C620.189,344.69,620.266,344.607,620.318,344.665Z" transform="translate(-610.619 -290.049)" fill="#263238"/>
      <path id="Path_51596" data-name="Path 51596" d="M618.539,343.445c2.521,2.316,5,4.682,7.53,6.992,0,0,0,.07-.038.051a36.857,36.857,0,0,1-7.646-6.889.109.109,0,0,1,.154-.154Z" transform="translate(-609.949 -293.3)" fill="#263238"/>
      <path id="Path_51597" data-name="Path 51597" d="M617.921,327.824a79.177,79.177,0,0,0,7.556,10.365.045.045,0,1,1-.064.058,36.462,36.462,0,0,1-7.614-10.32.08.08,0,1,1,.122-.1Z" transform="translate(-609.743 -287.699)" fill="#263238"/>
      <path id="Path_51598" data-name="Path 51598" d="M635.72,424.991H657.8l-2.976-29.711H639.12Z" transform="translate(-616.175 -311.897)" fill="#455a64"/>
      <path id="Path_51599" data-name="Path 51599" d="M640.15,400.11H656.9l-.488-4.83H640.708Z" transform="translate(-617.764 -311.897)" fill="#263238"/>
      <rect id="Rectangle_12144" data-name="Rectangle 12144" width="20.705" height="4.747" transform="translate(40.943 84.832) rotate(180)" fill="#455a64"/>
    </g>
    <g id="freepik--Device--inject-18" transform="translate(62.208 66.99)">
      <rect id="Rectangle_12145" data-name="Rectangle 12145" width="393.024" height="14.317" transform="translate(0 216.3)" fill="#c7c7c7"/>
      <rect id="Rectangle_12146" data-name="Rectangle 12146" width="323.347" height="216.3" transform="translate(34.836)" fill="#dbdbdb"/>
      <rect id="Rectangle_12147" data-name="Rectangle 12147" width="318.652" height="211.021" transform="translate(37.19 2.636)" fill="#263238"/>
      <rect id="Rectangle_12148" data-name="Rectangle 12148" width="290.429" height="183.889" transform="translate(51.294 16.202)" fill="#fff"/>
      <rect id="Rectangle_12149" data-name="Rectangle 12149" width="290.429" height="7.075" transform="translate(51.294 16.202)" fill="#455a64"/>
      <path id="Path_51600" data-name="Path 51600" d="M157.5,112.1a1.341,1.341,0,1,1-1.341-1.341A1.341,1.341,0,0,1,157.5,112.1Z" transform="translate(-99.536 -92.358)" fill="#c7c7c7"/>
      <path id="Path_51601" data-name="Path 51601" d="M166.011,112.1a1.334,1.334,0,1,1-.388-.948A1.341,1.341,0,0,1,166.011,112.1Z" transform="translate(-102.587 -92.358)" fill="#fff"/>
      <path id="Path_51602" data-name="Path 51602" d="M174.5,112.1a1.341,1.341,0,1,1-1.341-1.341A1.341,1.341,0,0,1,174.5,112.1Z" transform="translate(-105.632 -92.358)" fill="#f6ab39"/>
      <path id="Path_51603" data-name="Path 51603" d="M292.41,324.357h-1.52V322.83h.481v1.046h1.039Z" transform="translate(-148.328 -168.402)" fill="#c7c7c7"/>
      <path id="Path_51604" data-name="Path 51604" d="M396.812,324.941h-2.566v-.481h2.566Zm-5.131,0h-2.566v-.481h2.566Zm-5.131,0h-2.566v-.481h2.566Zm-5.131,0h-2.566v-.481h2.566Zm-5.131,0h-2.566v-.481h2.566Zm-5.131,0h-2.566v-.481h2.566Zm-5.131,0h-2.566v-.481h2.566Zm-5.131,0h-2.566v-.481h2.566Zm-5.131,0H353.2v-.481h2.566Zm-5.131,0h-2.566v-.481h2.566Zm-5.131,0h-2.566v-.481H345.5Zm-5.131,0H337.8v-.481h2.566Zm-5.131,0H332.67v-.481h2.566Zm-5.131,0h-2.566v-.481H330.1Zm-5.131,0h-2.566v-.481h2.566Zm-5.131,0h-2.566v-.481h2.566Zm-5.131,0h-2.566v-.481h2.566Zm-5.131,0h-2.566v-.481h2.566Zm-5.131,0h-2.566v-.481h2.566Zm-5.131,0H296.75v-.481h2.566Z" transform="translate(-150.429 -168.986)" fill="#c7c7c7"/>
      <path id="Path_51605" data-name="Path 51605" d="M458.26,324.357h-1.52v-.481h1.039V322.83h.481Z" transform="translate(-207.798 -168.402)" fill="#c7c7c7"/>
      <path id="Path_51606" data-name="Path 51606" d="M458.841,262.9h-.481v-2.566h.481Zm0-5.131h-.481V255.2h.481Zm0-5.131h-.481v-2.566h.481Zm0-5.131h-.481v-2.566h.481Zm0-5.131h-.481v-2.566h.481Zm0-5.131h-.481v-2.566h.481Zm0-5.131h-.481v-2.566h.481Zm0-5.131h-.481v-2.566h.481Zm0-5.131h-.481v-2.566h.481Zm0-5.131h-.481v-2.566h.481Zm0-5.131h-.481v-2.566h.481Zm0-5.131h-.481v-2.566h.481Zm0-5.131h-.481V198.76h.481Zm0-5.131h-.481v-2.566h.481Zm0-5.131h-.481V188.5h.481Zm0-5.131h-.481v-2.566h.481Zm0-5.131h-.481v-2.566h.481Zm0-5.131h-.481V173.1h.481Zm0-5.131h-.481v-2.566h.481Zm0-5.131h-.481V162.84h.481Z" transform="translate(-208.379 -111.032)" fill="#c7c7c7"/>
      <path id="Path_51607" data-name="Path 51607" d="M458.26,158.507h-.481v-1.046H456.74v-.481h1.52Z" transform="translate(-207.798 -108.931)" fill="#c7c7c7"/>
      <path id="Path_51608" data-name="Path 51608" d="M396.812,157.468h-2.566V157h2.566Zm-5.131,0h-2.566V157h2.566Zm-5.131,0h-2.566V157h2.566Zm-5.131,0h-2.566V157h2.566Zm-5.131,0h-2.566V157h2.566Zm-5.131,0h-2.566V157h2.566Zm-5.131,0h-2.566V157h2.566Zm-5.131,0h-2.566V157h2.566Zm-5.131,0H353.2V157h2.566Zm-5.131,0h-2.566V157h2.566Zm-5.131,0h-2.566V157H345.5Zm-5.131,0H337.8V157h2.566Zm-5.131,0H332.67V157h2.566Zm-5.131,0h-2.566V157H330.1Zm-5.131,0h-2.566V157h2.566Zm-5.131,0h-2.566V157h2.566Zm-5.131,0h-2.566V157h2.566Zm-5.131,0h-2.566V157h2.566Zm-5.131,0h-2.566V157h2.566Zm-5.131,0H296.75V157h2.566Z" transform="translate(-150.429 -108.938)" fill="#c7c7c7"/>
      <path id="Path_51609" data-name="Path 51609" d="M291.371,158.507h-.481V156.98h1.52v.481h-1.039Z" transform="translate(-148.328 -108.931)" fill="#c7c7c7"/>
      <path id="Path_51610" data-name="Path 51610" d="M291.371,262.9h-.481v-2.566h.481Zm0-5.131h-.481V255.2h.481Zm0-5.131h-.481v-2.566h.481Zm0-5.131h-.481v-2.566h.481Zm0-5.131h-.481v-2.566h.481Zm0-5.131h-.481v-2.566h.481Zm0-5.131h-.481v-2.566h.481Zm0-5.131h-.481v-2.566h.481Zm0-5.131h-.481v-2.566h.481Zm0-5.131h-.481v-2.566h.481Zm0-5.131h-.481v-2.566h.481Zm0-5.131h-.481v-2.566h.481Zm0-5.131h-.481V198.76h.481Zm0-5.131h-.481v-2.566h.481Zm0-5.131h-.481V188.5h.481Zm0-5.131h-.481v-2.566h.481Zm0-5.131h-.481v-2.566h.481Zm0-5.131h-.481V173.1h.481Zm0-5.131h-.481v-2.566h.481Zm0-5.131h-.481V162.84h.481Z" transform="translate(-148.328 -111.032)" fill="#c7c7c7"/>
      <path id="Path_51611" data-name="Path 51611" d="M385.383,274.143H338.29v-14.5h3.047v11.449h41V260.371h3.047Z" transform="translate(-165.324 -145.743)" fill="#f6ab39"/>
      <path id="Path_51612" data-name="Path 51612" d="M379.923,226.047h-56.4v-.09a10.487,10.487,0,0,1,1.373-20.885,6.7,6.7,0,0,1,1.02.051,12.225,12.225,0,0,1,12.129-10.776,11.981,11.981,0,0,1,4.823.994,20.141,20.141,0,0,1,38.755,6.414,12.186,12.186,0,1,1-1.7,24.312Zm-55.361-1.283h55.361a10.916,10.916,0,0,0,1.02-21.808l-.565-.051v-.564a18.858,18.858,0,0,0-36.561-5.9l-.25.68-.641-.327a10.789,10.789,0,0,0-4.888-1.155,10.936,10.936,0,0,0-10.9,10.263l-.038.712-.706-.122a8.756,8.756,0,0,0-1.494-.122,9.2,9.2,0,0,0-.686,18.383Z" transform="translate(-156.76 -118.192)" fill="#f6ab39"/>
      <rect id="Rectangle_12150" data-name="Rectangle 12150" width="14.464" height="18.614" transform="translate(189.277 100.754)" fill="#f6ab39"/>
      <path id="Path_51613" data-name="Path 51613" d="M352.2,230.7h29.249L366.824,215.58Z" transform="translate(-170.312 -129.944)" fill="#f6ab39"/>
      <rect id="Rectangle_12151" data-name="Rectangle 12151" width="139.445" height="11.334" transform="translate(126.79 165.878)" fill="#ebebeb"/>
      <rect id="Rectangle_12152" data-name="Rectangle 12152" width="81.133" height="6.087" transform="translate(130.074 168.501)" fill="#f6ab39"/>
      <path id="Path_51614" data-name="Path 51614" d="M280.175,350.857h-4.15l-4.605-6.087h4.15Z" transform="translate(-141.346 -176.269)" fill="#fff" opacity="0.2"/>
      <path id="Path_51615" data-name="Path 51615" d="M293.832,350.857h-4.15l-4.612-6.087h4.156Z" transform="translate(-146.241 -176.269)" fill="#fff" opacity="0.2"/>
      <path id="Path_51616" data-name="Path 51616" d="M307.492,350.857h-4.156l-4.605-6.087h4.156Z" transform="translate(-151.139 -176.269)" fill="#fff" opacity="0.2"/>
      <path id="Path_51617" data-name="Path 51617" d="M321.152,350.857H317l-4.605-6.087h4.156Z" transform="translate(-156.037 -176.269)" fill="#fff" opacity="0.2"/>
      <path id="Path_51618" data-name="Path 51618" d="M334.812,350.857h-4.156l-4.605-6.087h4.156Z" transform="translate(-160.935 -176.269)" fill="#fff" opacity="0.2"/>
      <path id="Path_51619" data-name="Path 51619" d="M348.472,350.857h-4.156l-4.605-6.087h4.156Z" transform="translate(-165.834 -176.269)" fill="#fff" opacity="0.2"/>
      <path id="Path_51620" data-name="Path 51620" d="M362.125,350.857h-4.15l-4.605-6.087h4.15Z" transform="translate(-170.732 -176.269)" fill="#fff" opacity="0.2"/>
      <path id="Path_51621" data-name="Path 51621" d="M375.782,350.857h-4.15l-4.612-6.087h4.156Z" transform="translate(-175.626 -176.269)" fill="#fff" opacity="0.2"/>
      <path id="Path_51622" data-name="Path 51622" d="M389.442,350.857h-4.156l-4.605-6.087h4.156Z" transform="translate(-180.525 -176.269)" fill="#fff" opacity="0.2"/>
      <path id="Path_51623" data-name="Path 51623" d="M396.63,344.77V347.8l-2.29-3.028Z" transform="translate(-185.423 -176.269)" fill="#fff" opacity="0.2"/>
      <rect id="Rectangle_12153" data-name="Rectangle 12153" width="26.215" height="26.215" transform="translate(286.241 77.933) rotate(180)" fill="#ebebeb"/>
      <rect id="Rectangle_12154" data-name="Rectangle 12154" width="23.13" height="23.13" transform="translate(284.695 76.393) rotate(180)" fill="#dbdbdb"/>
      <path id="Path_51624" data-name="Path 51624" d="M482.206,172.739a2.181,2.181,0,1,0,1.713-1.713,2.181,2.181,0,0,0-1.713,1.713Z" transform="translate(-216.915 -113.953)" fill="#c7c7c7"/>
      <path id="Path_51625" data-name="Path 51625" d="M486.42,186.571h16.715l-8.358-9.371Z" transform="translate(-218.441 -116.182)" fill="#c7c7c7"/>
      <path id="Path_51626" data-name="Path 51626" d="M476.42,188.4h13.8l-6.9-6.1Z" transform="translate(-214.855 -118.01)" fill="#a6a6a6"/>
      <rect id="Rectangle_12155" data-name="Rectangle 12155" width="23.13" height="6.004" transform="translate(261.565 70.39)" fill="#a6a6a6"/>
      <path id="Path_51627" data-name="Path 51627" d="M540.105,190.546h-2.566v-.481h2.566Zm-5.131,0h-2.566v-.481h2.566Zm-5.131,0h-2.566v-.481h2.566Zm-5.131,0h-2.566v-.481h2.566Zm-5.131,0h-2.566v-.481h2.566Zm-5.131,0h-2.566v-.481h2.566Zm-5.131,0h-2.566v-.481h2.566Zm-5.131,0H501.62v-.481h2.566Zm-5.131,0h-2.566v-.481h2.566Zm-5.131,0h-2.566v-.481h2.566Zm-5.131,0h-2.566v-.481h2.566Zm-5.131,0h-2.566v-.481h2.566Zm-5.131,0h-2.566v-.481h2.566Zm-5.131,0h-2.566v-.481H473.4ZM468.811,190h-.481v-2.566h.481Zm71.531-1.1h-.481v-2.566h.481Zm-71.531-4.035h-.481V182.3h.481Zm71.531-1.1h-.481v-2.566h.481Zm-71.531-4.035h-.481v-2.566h.481Zm71.531-1.1h-.481v-2.566h.481Zm-71.531-4.035h-.481v-2.566h.481Zm71.531-1.1h-.481v-2.566h.481Zm-71.531-4.035h-.481V166.91h.481Zm71.531-1.1h-.481v-2.566h.481Zm-71.531-4.035h-.481v-2.566h.481Zm71.531-1.1h-.481v-2.566h.481Zm-71.531-4.035h-.481V157h.821v.481h-.34Zm71.531-1.1h-.481v-.641h-1.437V157h1.924Zm-4.49-.641h-2.566V157h2.566Zm-5.131,0h-2.566V157h2.566Zm-5.131,0h-2.566V157h2.566Zm-5.131,0h-2.566V157h2.566Zm-5.131,0h-2.566V157h2.566Zm-5.131,0H507.63V157H510.2Zm-5.131,0H502.5V157h2.566Zm-5.131,0h-2.566V157h2.566Zm-5.131,0h-2.566V157H494.8Zm-5.131,0H487.1V157h2.566Zm-5.131,0h-2.566V157h2.566Zm-5.131,0h-2.566V157h2.566Zm-5.131,0H471.71V157h2.566Z" transform="translate(-211.954 -108.938)" fill="#c7c7c7"/>
      <path id="Path_51628" data-name="Path 51628" d="M519.83,164.58a.334.334,0,0,1,.34-.34.346.346,0,0,1,.346.34v3.643a.346.346,0,0,1-.346.34.334.334,0,0,1-.34-.34Z" transform="translate(-230.421 -111.534)" fill="#ebebeb"/>
      <path id="Path_51629" data-name="Path 51629" d="M525.171,167.418V168.9a.327.327,0,0,1-.327.327.34.34,0,0,1-.334-.327v-1.482a.641.641,0,1,0-1.283,0v1.507h0v.038h0a.34.34,0,0,1-.308.2h-.071a.34.34,0,0,1-.269-.321v-1.462h0v-.956a.327.327,0,0,1,.327-.334.314.314,0,0,1,.3.186,1.238,1.238,0,0,1,.641-.186,1.32,1.32,0,0,0,1.937,0,1.283,1.283,0,0,1,1.283,1.283v1.462a.327.327,0,0,1-.327.327.334.334,0,0,1-.333-.327v-1.462a.62.62,0,1,0-1.238.045Z" transform="translate(-231.407 -112.198)" fill="#ebebeb"/>
      <path id="Path_51630" data-name="Path 51630" d="M534.184,167.716v1.212a.334.334,0,0,1-.327.327.34.34,0,0,1-.327-.263,1.379,1.379,0,0,1-.821.263,1.431,1.431,0,0,1-1.046-.449,1.565,1.565,0,0,1-.423-1.09,1.539,1.539,0,0,1,.423-1.084,1.418,1.418,0,0,1,1.046-.462,1.386,1.386,0,0,1,.821.269.34.34,0,0,1,.327-.269.334.334,0,0,1,.327.334Zm-.642,0a.911.911,0,0,0-.237-.641.764.764,0,0,0-.577-.25.738.738,0,0,0-.571.25.911.911,0,0,0-.237.641.937.937,0,0,0,.237.641.777.777,0,0,0,.571.237.8.8,0,0,0,.577-.237.936.936,0,0,0,.218-.641Z" transform="translate(-234.512 -112.227)" fill="#ebebeb"/>
      <path id="Path_51631" data-name="Path 51631" d="M540.685,167.721v1.148a1.488,1.488,0,0,1-1.488,1.488,1.405,1.405,0,0,1-.642-.16.327.327,0,0,1-.147-.443.34.34,0,0,1,.449-.154.7.7,0,0,0,.346.09.84.84,0,0,0,.815-.641,1.545,1.545,0,0,1-1.892-.257,1.533,1.533,0,0,1-.436-1.09,1.6,1.6,0,0,1,.436-1.1,1.463,1.463,0,0,1,1.045-.455,1.392,1.392,0,0,1,.828.257.334.334,0,0,1,.333-.257.327.327,0,0,1,.327.327V167.7Zm-.641,0a.968.968,0,0,0-.237-.641.769.769,0,0,0-.59-.263.738.738,0,0,0-.564.263.93.93,0,0,0,0,1.283.744.744,0,0,0,.564.25.783.783,0,0,0,.59-.25.963.963,0,0,0,.218-.648Z" transform="translate(-236.825 -112.219)" fill="#ebebeb"/>
      <path id="Path_51632" data-name="Path 51632" d="M544.07,167.709a1.527,1.527,0,0,1,1.507-1.539,1.475,1.475,0,0,1,1.488,1.43h0a.187.187,0,0,1,0,.058.3.3,0,0,1-.321.244h-1.963a.814.814,0,0,0,.212.411.943.943,0,0,0,.59.276,1.007,1.007,0,0,0,.641-.154.353.353,0,0,1,.462,0,.276.276,0,0,1,0,.4,1.565,1.565,0,0,1-1.1.4A1.533,1.533,0,0,1,544.07,167.709Zm.641-.3h1.751a1.02,1.02,0,0,0-.917-.641.866.866,0,0,0-.8.641Z" transform="translate(-239.113 -112.226)" fill="#ebebeb"/>
      <path id="Path_51633" data-name="Path 51633" d="M549.15,171.909a.289.289,0,0,1,.289-.289h3.733a.289.289,0,1,1,0,.577h-3.733a.289.289,0,0,1-.289-.289Z" transform="translate(-240.934 -114.181)" fill="#ebebeb"/>
      <path id="Path_51634" data-name="Path 51634" d="M559.056,167.483a.34.34,0,0,1-.346.34h-.058v.468a.34.34,0,0,1-.68,0v-.468h-1.924a.289.289,0,0,1-.212-.077.334.334,0,0,1-.058-.475l2.284-2.841h.34v.071h0a.057.057,0,0,1,0,.032v2.546h.058a.36.36,0,0,1,.6.4Zm-1.084-1.867-1.231,1.527h1.231Z" transform="translate(-243.285 -111.603)" fill="#ebebeb"/>
      <rect id="Rectangle_12156" data-name="Rectangle 12156" width="26.215" height="26.215" transform="translate(286.241 115.109) rotate(180)" fill="#ebebeb"/>
      <rect id="Rectangle_12157" data-name="Rectangle 12157" width="23.13" height="23.13" transform="translate(284.695 113.57) rotate(180)" fill="#dbdbdb"/>
      <path id="Path_51635" data-name="Path 51635" d="M482.206,230.689a2.181,2.181,0,1,0,1.713-1.713,2.181,2.181,0,0,0-1.713,1.713Z" transform="translate(-216.915 -134.732)" fill="#c7c7c7"/>
      <path id="Path_51636" data-name="Path 51636" d="M486.42,244.528h16.715l-8.358-9.378Z" transform="translate(-218.441 -136.961)" fill="#c7c7c7"/>
      <path id="Path_51637" data-name="Path 51637" d="M476.42,246.356h13.8l-6.9-6.106Z" transform="translate(-214.855 -138.79)" fill="#a6a6a6"/>
      <rect id="Rectangle_12158" data-name="Rectangle 12158" width="23.13" height="6.004" transform="translate(261.565 107.566)" fill="#a6a6a6"/>
      <path id="Path_51638" data-name="Path 51638" d="M540.105,248.493h-2.566v-.481h2.566Zm-5.131,0h-2.566v-.481h2.566Zm-5.131,0h-2.566v-.481h2.566Zm-5.131,0h-2.566v-.481h2.566Zm-5.131,0h-2.566v-.481h2.566Zm-5.131,0h-2.566v-.481h2.566Zm-5.131,0h-2.566v-.481h2.566Zm-5.131,0H501.62v-.481h2.566Zm-5.131,0h-2.566v-.481h2.566Zm-5.131,0h-2.566v-.481h2.566Zm-5.131,0h-2.566v-.481h2.566Zm-5.131,0h-2.566v-.481h2.566Zm-5.131,0h-2.566v-.481h2.566Zm-5.131,0h-2.566v-.481H473.4Zm-4.586-.545h-.481v-2.566h.481Zm71.531-1.1h-.481v-2.566h.481Zm-71.531-4.035h-.481V240.25h.481Zm71.531-1.1h-.481v-2.566h.481Zm-71.531-4.035h-.481v-2.566h.481Zm71.531-1.1h-.481v-2.566h.481Zm-71.531-4.035h-.481v-2.566h.481Zm71.531-1.1h-.481v-2.566h.481Zm-71.531-4.035h-.481v-2.566h.481Zm71.531-1.1h-.481V223.76h.481Zm-71.531-4.035h-.481v-2.566h.481Zm71.531-1.1h-.481v-2.566h.481Zm-71.531-4.035h-.481V214.94h.821v.481h-.34Zm71.531-1.1h-.481v-.641h-1.437v-.481h1.924Zm-4.49-.641h-2.566v-.481h2.566Zm-5.131,0h-2.566v-.481h2.566Zm-5.131,0h-2.566v-.481h2.566Zm-5.131,0h-2.566v-.481h2.566Zm-5.131,0h-2.566v-.481h2.566Zm-5.131,0H507.63v-.481H510.2Zm-5.131,0H502.5v-.481h2.566Zm-5.131,0h-2.566v-.481h2.566Zm-5.131,0h-2.566v-.481H494.8Zm-5.131,0H487.1v-.481h2.566Zm-5.131,0h-2.566v-.481h2.566Zm-5.131,0h-2.566v-.481h2.566Zm-5.131,0H471.71v-.481h2.566Z" transform="translate(-211.954 -129.714)" fill="#c7c7c7"/>
      <path id="Path_51639" data-name="Path 51639" d="M519.83,221.814a.334.334,0,0,1,.34-.334.34.34,0,0,1,.346.334v3.65a.346.346,0,0,1-.346.34.34.34,0,0,1-.34-.34Z" transform="translate(-230.421 -132.06)" fill="#ebebeb"/>
      <path id="Path_51640" data-name="Path 51640" d="M525.171,224.614V226.1a.334.334,0,0,1-.327.334.346.346,0,0,1-.333-.334v-1.482a.641.641,0,1,0-1.283,0v1.507h0v.038h0a.353.353,0,0,1-.308.2h-.071a.34.34,0,0,1-.269-.327v-1.462h0v-.956a.327.327,0,0,1,.327-.334.321.321,0,0,1,.3.186,2.4,2.4,0,0,0,2.578-.186,1.283,1.283,0,0,1,1.283,1.283v1.462a.334.334,0,0,1-.327.334.34.34,0,0,1-.333-.334v-1.462a.62.62,0,1,0-1.238.051Z" transform="translate(-231.407 -132.705)" fill="#ebebeb"/>
      <path id="Path_51641" data-name="Path 51641" d="M534.185,224.922v1.206a.34.34,0,0,1-.327.334.346.346,0,0,1-.327-.269,1.386,1.386,0,0,1-.821.269,1.411,1.411,0,0,1-1.045-.455,1.61,1.61,0,0,1,0-2.174,1.417,1.417,0,0,1,1.045-.462,1.385,1.385,0,0,1,.821.269.34.34,0,0,1,.327-.269.334.334,0,0,1,.327.334Zm-.641,0a.9.9,0,0,0-.237-.641.77.77,0,0,0-.577-.257.744.744,0,0,0-.571.257.9.9,0,0,0-.237.641.937.937,0,0,0,.237.641.776.776,0,0,0,.571.237.8.8,0,0,0,.577-.237.936.936,0,0,0,.218-.641Z" transform="translate(-234.513 -132.737)" fill="#ebebeb"/>
      <path id="Path_51642" data-name="Path 51642" d="M540.7,224.946v1.148a1.482,1.482,0,0,1-2.136,1.328.333.333,0,0,1-.147-.449.346.346,0,0,1,.449-.154.7.7,0,0,0,.346.09.834.834,0,0,0,.815-.641,1.434,1.434,0,0,1-1.86-.225,1.527,1.527,0,0,1-.436-1.084,1.617,1.617,0,0,1,.436-1.1,1.462,1.462,0,0,1,1.045-.455,1.353,1.353,0,0,1,.828.263.333.333,0,0,1,.333-.263.327.327,0,0,1,.327.327v1.232Zm-.641,0a.989.989,0,0,0-.237-.641.789.789,0,0,0-.59-.263.757.757,0,0,0-.564.263.93.93,0,0,0-.25.641.9.9,0,0,0,.25.641.744.744,0,0,0,.564.25.783.783,0,0,0,.59-.25.949.949,0,0,0,.218-.648Z" transform="translate(-236.839 -132.748)" fill="#ebebeb"/>
      <path id="Path_51643" data-name="Path 51643" d="M544.07,224.916a1.533,1.533,0,0,1,1.507-1.546,1.475,1.475,0,0,1,1.488,1.43v.032a.18.18,0,0,1,0,.058.3.3,0,0,1-.321.244h-1.963a.77.77,0,0,0,.212.411.943.943,0,0,0,.59.276.968.968,0,0,0,.641-.154.353.353,0,0,1,.462,0,.276.276,0,0,1,0,.4,1.572,1.572,0,0,1-1.1.411,1.533,1.533,0,0,1-1.514-1.565Zm.641-.3h1.751a1.007,1.007,0,0,0-.917-.641.853.853,0,0,0-.8.641Z" transform="translate(-239.113 -132.737)" fill="#ebebeb"/>
      <path id="Path_51644" data-name="Path 51644" d="M549.15,229.109a.289.289,0,0,1,.289-.289h3.733a.289.289,0,0,1,.289.289.3.3,0,0,1-.289.3h-3.733a.3.3,0,0,1-.289-.3Z" transform="translate(-240.934 -134.691)" fill="#ebebeb"/>
      <path id="Path_51645" data-name="Path 51645" d="M558.068,223.182a1.5,1.5,0,0,1,.455,1.09,1.552,1.552,0,0,1-1.533,1.533h0a1.494,1.494,0,0,1-1.071-.455.333.333,0,0,1,0-.494.353.353,0,0,1,.494,0,.832.832,0,1,0,1.174-1.18.782.782,0,0,0-.584-.237.808.808,0,0,0-.59.237.34.34,0,0,1-.494,0l-.071-.077h0a.05.05,0,0,0,0-.032v-.045h0a.276.276,0,0,1,0-.1l.186-1.6a.391.391,0,0,1,.154-.25h0a.327.327,0,0,1,.16-.032h1.822a.346.346,0,0,1,.353.346.353.353,0,0,1-.353.346h-1.52l-.077.641a1.591,1.591,0,0,1,.417-.058,1.5,1.5,0,0,1,1.078.366Z" transform="translate(-243.322 -132.081)" fill="#ebebeb"/>
      <rect id="Rectangle_12159" data-name="Rectangle 12159" width="26.215" height="26.215" transform="translate(286.241 152.28) rotate(180)" fill="#ebebeb"/>
      <rect id="Rectangle_12160" data-name="Rectangle 12160" width="23.13" height="23.13" transform="translate(284.695 150.734) rotate(180)" fill="#dbdbdb"/>
      <path id="Path_51646" data-name="Path 51646" d="M482.2,288.658a2.181,2.181,0,1,0,1.713-1.681,2.181,2.181,0,0,0-1.713,1.681Z" transform="translate(-216.911 -155.531)" fill="#c7c7c7"/>
      <path id="Path_51647" data-name="Path 51647" d="M486.42,302.481h16.715l-8.358-9.371Z" transform="translate(-218.441 -157.745)" fill="#c7c7c7"/>
      <path id="Path_51648" data-name="Path 51648" d="M476.42,304.306h13.8l-6.9-6.106Z" transform="translate(-214.855 -159.57)" fill="#a6a6a6"/>
      <rect id="Rectangle_12161" data-name="Rectangle 12161" width="23.13" height="6.004" transform="translate(261.565 144.737)" fill="#a6a6a6"/>
      <path id="Path_51649" data-name="Path 51649" d="M540.105,306.449h-2.566v-.481h2.566Zm-5.131,0h-2.566v-.481h2.566Zm-5.131,0h-2.566v-.481h2.566Zm-5.131,0h-2.566v-.481h2.566Zm-5.131,0h-2.566v-.481h2.566Zm-5.131,0h-2.566v-.481h2.566Zm-5.131,0h-2.566v-.481h2.566Zm-5.131,0H501.62v-.481h2.566Zm-5.131,0h-2.566v-.481h2.566Zm-5.131,0h-2.566v-.481h2.566Zm-5.131,0h-2.566v-.481h2.566Zm-5.131,0h-2.566v-.481h2.566Zm-5.131,0h-2.566v-.481h2.566Zm-5.131,0h-2.566v-.481H473.4Zm-4.586-.545h-.481v-2.566h.481Zm71.531-1.1h-.481v-2.566h.481Zm-71.531-4.028h-.481v-2.566h.481Zm71.531-1.1h-.481V297.1h.481Zm-71.531-4.028h-.481v-2.566h.481Zm71.531-1.1h-.481v-2.566h.481Zm-71.531-4.028h-.481v-2.566h.481Zm71.531-1.1h-.481v-2.566h.481Zm-71.531-4.028h-.481v-2.566h.481Zm71.531-1.1h-.481V281.71h.481Zm-71.531-4.028h-.481v-2.566h.481Zm71.531-1.1h-.481v-2.566h.481Zm-71.531-4.028h-.481V272.89h.821v.481h-.34Zm71.531-1.1h-.481v-.641h-1.437v-.481h1.924Zm-4.49-.641h-2.566v-.481h2.566Zm-5.131,0h-2.566v-.481h2.566Zm-5.131,0h-2.566v-.481h2.566Zm-5.131,0h-2.566v-.481h2.566Zm-5.131,0h-2.566v-.481h2.566Zm-5.131,0H507.63v-.481H510.2Zm-5.131,0H502.5v-.481h2.566Zm-5.131,0h-2.566v-.481h2.566Zm-5.131,0h-2.566v-.481H494.8Zm-5.131,0H487.1v-.481h2.566Zm-5.131,0h-2.566v-.481h2.566Zm-5.131,0h-2.566v-.481h2.566Zm-5.131,0H471.71v-.481h2.566Z" transform="translate(-211.954 -150.494)" fill="#c7c7c7"/>
      <path id="Path_51650" data-name="Path 51650" d="M519.83,279.22a.34.34,0,0,1,.34-.34.346.346,0,0,1,.346.34v3.643a.346.346,0,0,1-.346.34.334.334,0,0,1-.34-.34Z" transform="translate(-230.421 -152.642)" fill="#ebebeb"/>
      <path id="Path_51651" data-name="Path 51651" d="M525.171,282.07v1.482a.327.327,0,0,1-.327.327.34.34,0,0,1-.334-.327V282.07a.641.641,0,1,0-1.283,0v1.507h0v.07a.346.346,0,0,1-.308.192h-.071a.334.334,0,0,1-.269-.321v-1.462h0V281.1a.327.327,0,0,1,.327-.334.321.321,0,0,1,.3.186,2.465,2.465,0,0,0,2.6-.186,1.283,1.283,0,0,1,1.283,1.283v1.462a.327.327,0,0,1-.327.327.334.334,0,0,1-.334-.327V282.05a.629.629,0,1,0-1.257.019Z" transform="translate(-231.407 -153.317)" fill="#ebebeb"/>
      <path id="Path_51652" data-name="Path 51652" d="M534.184,282.362v1.206a.334.334,0,0,1-.327.327.34.34,0,0,1-.327-.263,1.379,1.379,0,0,1-.821.263,1.431,1.431,0,0,1-1.046-.449,1.608,1.608,0,0,1,0-2.174,1.418,1.418,0,0,1,1.046-.462,1.385,1.385,0,0,1,.821.269.34.34,0,0,1,.327-.269.334.334,0,0,1,.327.334Zm-.641,0a.925.925,0,0,0-.237-.641.763.763,0,0,0-.577-.25.738.738,0,0,0-.571.25.975.975,0,0,0,0,1.283.776.776,0,0,0,.571.237.8.8,0,0,0,.577-.237.937.937,0,0,0,.218-.641Z" transform="translate(-234.512 -153.334)" fill="#ebebeb"/>
      <path id="Path_51653" data-name="Path 51653" d="M540.7,282.371v1.122a1.482,1.482,0,0,1-2.136,1.328.333.333,0,0,1-.148-.449.347.347,0,0,1,.449-.154.7.7,0,0,0,.346.09.84.84,0,0,0,.815-.641,1.434,1.434,0,0,1-1.86-.225,1.526,1.526,0,0,1-.436-1.084,1.609,1.609,0,0,1,.436-1.1,1.462,1.462,0,0,1,1.045-.455,1.392,1.392,0,0,1,.827.257.334.334,0,0,1,.334-.257.327.327,0,0,1,.327.327v1.232Zm-.642,0a.988.988,0,0,0-.237-.641.77.77,0,0,0-.59-.263.738.738,0,0,0-.564.263.93.93,0,0,0-.25.641.9.9,0,0,0,.25.641.744.744,0,0,0,.564.25.783.783,0,0,0,.59-.25.949.949,0,0,0,.218-.648Z" transform="translate(-236.839 -153.33)" fill="#ebebeb"/>
      <path id="Path_51654" data-name="Path 51654" d="M544.07,282.356a1.533,1.533,0,0,1,1.507-1.546,1.475,1.475,0,0,1,1.488,1.43h0a.187.187,0,0,1,0,.058.3.3,0,0,1-.321.244h-1.963a.769.769,0,0,0,.212.41.943.943,0,0,0,.59.276,1.007,1.007,0,0,0,.641-.154.353.353,0,0,1,.462,0,.276.276,0,0,1,0,.4,1.565,1.565,0,0,1-1.1.4A1.527,1.527,0,0,1,544.07,282.356Zm.641-.3h1.751a1.02,1.02,0,0,0-.917-.641.866.866,0,0,0-.8.641Z" transform="translate(-239.113 -153.334)" fill="#ebebeb"/>
      <path id="Path_51655" data-name="Path 51655" d="M549.15,286.549a.289.289,0,0,1,.289-.289h3.733a.289.289,0,1,1,0,.577h-3.733A.289.289,0,0,1,549.15,286.549Z" transform="translate(-240.934 -155.288)" fill="#ebebeb"/>
      <path id="Path_51656" data-name="Path 51656" d="M558.789,281.712a1.5,1.5,0,0,1-2.989.16h0v-.353a3.648,3.648,0,0,1,.218-1.283,2.174,2.174,0,0,1,.8-1.052,1.8,1.8,0,0,1,.93-.3.346.346,0,0,1,.353.327.359.359,0,0,1-.334.359,1.154,1.154,0,0,0-.577.173,1.365,1.365,0,0,0-.391.436.922.922,0,0,0-.077.16,1.392,1.392,0,0,1,.59-.128A1.494,1.494,0,0,1,558.789,281.712Zm-.686,0a.815.815,0,1,0-.383.765A.814.814,0,0,0,558.1,281.712Z" transform="translate(-243.319 -152.646)" fill="#ebebeb"/>
      <rect id="Rectangle_12162" data-name="Rectangle 12162" width="26.215" height="26.215" transform="translate(94.494 77.933) rotate(180)" fill="#ebebeb"/>
      <rect id="Rectangle_12163" data-name="Rectangle 12163" width="23.13" height="23.13" transform="translate(92.948 76.393) rotate(180)" fill="#dbdbdb"/>
      <path id="Path_51657" data-name="Path 51657" d="M183.266,172.739a2.187,2.187,0,1,0,1.719-1.713A2.187,2.187,0,0,0,183.266,172.739Z" transform="translate(-109.72 -113.953)" fill="#c7c7c7"/>
      <path id="Path_51658" data-name="Path 51658" d="M187.49,186.571h16.715l-8.358-9.371Z" transform="translate(-111.251 -116.182)" fill="#c7c7c7"/>
      <path id="Path_51659" data-name="Path 51659" d="M177.49,188.4h13.8l-6.9-6.1Z" transform="translate(-107.665 -118.01)" fill="#a6a6a6"/>
      <rect id="Rectangle_12164" data-name="Rectangle 12164" width="23.13" height="6.004" transform="translate(69.825 70.39)" fill="#a6a6a6"/>
      <path id="Path_51660" data-name="Path 51660" d="M241.175,190.546h-2.566v-.481h2.566Zm-5.131,0h-2.566v-.481h2.566Zm-5.131,0h-2.566v-.481h2.566Zm-5.131,0h-2.566v-.481h2.566Zm-5.131,0h-2.566v-.481h2.566Zm-5.131,0h-2.566v-.481h2.566Zm-5.131,0h-2.566v-.481h2.566Zm-5.131,0H202.69v-.481h2.566Zm-5.131,0h-2.566v-.481h2.566Zm-5.131,0h-2.566v-.481h2.566Zm-5.131,0H187.3v-.481h2.566Zm-5.131,0h-2.566v-.481h2.566Zm-5.131,0h-2.566v-.481H179.6Zm-5.131,0H171.9v-.481h2.566ZM169.881,190H169.4v-2.566h.481Zm71.531-1.1h-.481v-2.566h.481Zm-71.531-4.035H169.4V182.3h.481Zm71.531-1.1h-.481v-2.566h.481Zm-71.531-4.035H169.4v-2.566h.481Zm71.531-1.1h-.481v-2.566h.481Zm-71.531-4.035H169.4v-2.566h.481Zm71.531-1.1h-.481v-2.566h.481Zm-71.531-4.035H169.4V166.91h.481Zm71.531-1.1h-.481v-2.566h.481Zm-71.531-4.035H169.4v-2.566h.481Zm71.531-1.1h-.481v-2.566h.481Zm-71.531-4.035H169.4V157h.821v.481h-.34Zm71.531-1.1h-.481v-.641h-1.437V157h1.924Zm-4.49-.641h-2.566V157h2.566Zm-5.131,0h-2.566V157h2.566Zm-5.131,0h-2.566V157h2.566Zm-5.131,0h-2.566V157h2.566Zm-5.131,0h-2.566V157H216.4Zm-5.131,0H208.7V157h2.566Zm-5.131,0h-2.566V157h2.566Zm-5.131,0h-2.566V157H201Zm-5.131,0h-2.566V157h2.566Zm-5.131,0h-2.566V157h2.566Zm-5.131,0h-2.566V157h2.566Zm-5.131,0h-2.566V157h2.566Zm-5.131,0H172.78V157h2.566Z" transform="translate(-104.764 -108.938)" fill="#c7c7c7"/>
      <path id="Path_51661" data-name="Path 51661" d="M220.9,164.58a.333.333,0,0,1,.34-.34.346.346,0,0,1,.346.34v3.643a.346.346,0,0,1-.346.34.334.334,0,0,1-.34-.34Z" transform="translate(-123.231 -111.534)" fill="#ebebeb"/>
      <path id="Path_51662" data-name="Path 51662" d="M226.249,167.417V168.9a.327.327,0,0,1-.327.327.34.34,0,0,1-.334-.327v-1.482a.641.641,0,1,0-1.283,0v1.507h0v.038h0a.346.346,0,0,1-.308.2h-.058a.334.334,0,0,1-.269-.321v-1.462h0v-.956a.327.327,0,0,1,.327-.334.3.3,0,0,1,.3.186,2.448,2.448,0,0,0,2.585-.186,1.283,1.283,0,0,1,1.283,1.283v1.462a.327.327,0,0,1-.327.327.334.334,0,0,1-.334-.327v-1.462a.626.626,0,1,0-1.251.045Z" transform="translate(-124.224 -112.198)" fill="#ebebeb"/>
      <path id="Path_51663" data-name="Path 51663" d="M235.248,167.716v1.212a.327.327,0,0,1-.327.327.334.334,0,0,1-.321-.263,1.392,1.392,0,0,1-.821.263,1.43,1.43,0,0,1-1.046-.449,1.565,1.565,0,0,1-.423-1.09,1.54,1.54,0,0,1,.423-1.084,1.417,1.417,0,0,1,1.046-.462,1.4,1.4,0,0,1,.821.269.334.334,0,0,1,.321-.269.327.327,0,0,1,.327.334Zm-.641,0a.911.911,0,0,0-.237-.641.763.763,0,0,0-.577-.25.737.737,0,0,0-.571.25.911.911,0,0,0-.237.641.936.936,0,0,0,.237.641.776.776,0,0,0,.571.237.8.8,0,0,0,.577-.237.936.936,0,0,0,.225-.641Z" transform="translate(-127.322 -112.227)" fill="#ebebeb"/>
      <path id="Path_51664" data-name="Path 51664" d="M241.767,167.739v1.148a1.488,1.488,0,0,1-1.482,1.488,1.4,1.4,0,0,1-.641-.16.327.327,0,0,1-.148-.443.334.334,0,0,1,.443-.154.738.738,0,0,0,.353.09.827.827,0,0,0,.808-.641,1.424,1.424,0,0,1-1.854-.225,1.533,1.533,0,0,1-.436-1.09,1.6,1.6,0,0,1,.436-1.1,1.462,1.462,0,0,1,1.046-.455,1.392,1.392,0,0,1,.827.257.334.334,0,0,1,.327-.257.327.327,0,0,1,.327.327v1.225Zm-.641,0a.962.962,0,0,0-.231-.641.77.77,0,0,0-.59-.263.738.738,0,0,0-.564.263.93.93,0,0,0,0,1.283.744.744,0,0,0,.564.25.783.783,0,0,0,.59-.25.962.962,0,0,0,.212-.648Z" transform="translate(-129.653 -112.237)" fill="#ebebeb"/>
      <path id="Path_51665" data-name="Path 51665" d="M245.14,167.709a1.527,1.527,0,0,1,1.507-1.539,1.475,1.475,0,0,1,1.488,1.43h0a.18.18,0,0,1,0,.058.3.3,0,0,1-.321.244h-1.963a.808.808,0,0,0,.205.411.981.981,0,0,0,.6.276,1.007,1.007,0,0,0,.641-.154.353.353,0,0,1,.462,0,.282.282,0,0,1,0,.4,1.565,1.565,0,0,1-1.1.4A1.533,1.533,0,0,1,245.14,167.709Zm.673-.3h1.745a1.007,1.007,0,0,0-.911-.641.866.866,0,0,0-.834.641Z" transform="translate(-131.923 -112.226)" fill="#ebebeb"/>
      <path id="Path_51666" data-name="Path 51666" d="M250.21,171.909a.3.3,0,0,1,.3-.289h3.727a.289.289,0,0,1,0,.577h-3.727A.3.3,0,0,1,250.21,171.909Z" transform="translate(-133.741 -114.181)" fill="#ebebeb"/>
      <path id="Path_51667" data-name="Path 51667" d="M258.042,164.609v3.643a.346.346,0,0,1-.346.34.34.34,0,0,1-.34-.34v-3.034l-.244.141a.346.346,0,0,1-.173.045.314.314,0,0,1-.289-.173.327.327,0,0,1,.109-.462l.757-.449h.3v.064a.244.244,0,0,0,0,.032.044.044,0,0,0,0,.038Z" transform="translate(-136.031 -111.563)" fill="#ebebeb"/>
      <rect id="Rectangle_12165" data-name="Rectangle 12165" width="26.215" height="26.215" transform="translate(94.494 115.109) rotate(180)" fill="#ebebeb"/>
      <rect id="Rectangle_12166" data-name="Rectangle 12166" width="23.13" height="23.13" transform="translate(92.948 113.57) rotate(180)" fill="#dbdbdb"/>
      <path id="Path_51668" data-name="Path 51668" d="M183.265,230.691A2.187,2.187,0,1,0,185,228.979,2.187,2.187,0,0,0,183.265,230.691Z" transform="translate(-109.72 -134.735)" fill="#c7c7c7"/>
      <path id="Path_51669" data-name="Path 51669" d="M187.49,244.528h16.715l-8.358-9.378Z" transform="translate(-111.251 -136.961)" fill="#c7c7c7"/>
      <path id="Path_51670" data-name="Path 51670" d="M177.49,246.356h13.8l-6.9-6.106Z" transform="translate(-107.665 -138.79)" fill="#a6a6a6"/>
      <rect id="Rectangle_12167" data-name="Rectangle 12167" width="23.13" height="6.004" transform="translate(69.825 107.566)" fill="#a6a6a6"/>
      <path id="Path_51671" data-name="Path 51671" d="M241.175,248.493h-2.566v-.481h2.566Zm-5.131,0h-2.566v-.481h2.566Zm-5.131,0h-2.566v-.481h2.566Zm-5.131,0h-2.566v-.481h2.566Zm-5.131,0h-2.566v-.481h2.566Zm-5.131,0h-2.566v-.481h2.566Zm-5.131,0h-2.566v-.481h2.566Zm-5.131,0H202.69v-.481h2.566Zm-5.131,0h-2.566v-.481h2.566Zm-5.131,0h-2.566v-.481h2.566Zm-5.131,0H187.3v-.481h2.566Zm-5.131,0h-2.566v-.481h2.566Zm-5.131,0h-2.566v-.481H179.6Zm-5.131,0H171.9v-.481h2.566Zm-4.586-.545H169.4v-2.566h.481Zm71.531-1.1h-.481v-2.566h.481Zm-71.531-4.035H169.4V240.25h.481Zm71.531-1.1h-.481v-2.566h.481Zm-71.531-4.035H169.4v-2.566h.481Zm71.531-1.1h-.481v-2.566h.481Zm-71.531-4.035H169.4v-2.566h.481Zm71.531-1.1h-.481v-2.566h.481Zm-71.531-4.035H169.4v-2.566h.481Zm71.531-1.1h-.481V223.76h.481Zm-71.531-4.035H169.4v-2.566h.481Zm71.531-1.1h-.481v-2.566h.481Zm-71.531-4.035H169.4V214.94h.821v.481h-.34Zm71.531-1.1h-.481v-.641h-1.437v-.481h1.924Zm-4.49-.641h-2.566v-.481h2.566Zm-5.131,0h-2.566v-.481h2.566Zm-5.131,0h-2.566v-.481h2.566Zm-5.131,0h-2.566v-.481h2.566Zm-5.131,0h-2.566v-.481H216.4Zm-5.131,0H208.7v-.481h2.566Zm-5.131,0h-2.566v-.481h2.566Zm-5.131,0h-2.566v-.481H201Zm-5.131,0h-2.566v-.481h2.566Zm-5.131,0h-2.566v-.481h2.566Zm-5.131,0h-2.566v-.481h2.566Zm-5.131,0h-2.566v-.481h2.566Zm-5.131,0H172.78v-.481h2.566Z" transform="translate(-104.764 -129.714)" fill="#c7c7c7"/>
      <path id="Path_51672" data-name="Path 51672" d="M220.9,221.814a.334.334,0,0,1,.34-.334.34.34,0,0,1,.346.334v3.65a.346.346,0,0,1-.346.34.34.34,0,0,1-.34-.34Z" transform="translate(-123.231 -132.06)" fill="#ebebeb"/>
      <path id="Path_51673" data-name="Path 51673" d="M226.249,224.614V226.1a.334.334,0,0,1-.327.334.346.346,0,0,1-.333-.334v-1.482a.641.641,0,0,0-1.283,0v1.507h0v.038h0a.359.359,0,0,1-.308.2h-.058a.334.334,0,0,1-.269-.327v-1.462h0v-.956a.327.327,0,0,1,.327-.334.314.314,0,0,1,.3.186,1.334,1.334,0,0,1,.641-.186,1.313,1.313,0,0,0,1.943,0,1.283,1.283,0,0,1,1.283,1.283v1.462a.334.334,0,0,1-.327.334.34.34,0,0,1-.333-.334v-1.462a.627.627,0,1,0-1.251.051Z" transform="translate(-124.224 -132.705)" fill="#ebebeb"/>
      <path id="Path_51674" data-name="Path 51674" d="M235.248,224.922v1.206a.334.334,0,0,1-.327.334.34.34,0,0,1-.321-.269,1.41,1.41,0,0,1-1.867-.186,1.61,1.61,0,0,1,0-2.174,1.417,1.417,0,0,1,1.046-.462,1.4,1.4,0,0,1,.821.269.334.334,0,0,1,.321-.269.327.327,0,0,1,.327.334Zm-.641,0a.9.9,0,0,0-.237-.641.77.77,0,0,0-.577-.257.744.744,0,0,0-.571.257.9.9,0,0,0-.237.641.937.937,0,0,0,.237.641.776.776,0,0,0,.571.237.8.8,0,0,0,.577-.237.936.936,0,0,0,.224-.641Z" transform="translate(-127.323 -132.737)" fill="#ebebeb"/>
      <path id="Path_51675" data-name="Path 51675" d="M241.763,224.946v1.148a1.475,1.475,0,0,1-2.13,1.328.336.336,0,0,1,.3-.6.738.738,0,0,0,.353.09.821.821,0,0,0,.808-.641,1.424,1.424,0,0,1-1.854-.225,1.527,1.527,0,0,1-.436-1.084,1.616,1.616,0,0,1,.436-1.1,1.462,1.462,0,0,1,1.046-.455,1.353,1.353,0,0,1,.827.263.333.333,0,0,1,.327-.263.327.327,0,0,1,.327.327v1.232Zm-.641,0a.981.981,0,0,0-.231-.641.789.789,0,0,0-.59-.263.757.757,0,0,0-.564.263.93.93,0,0,0-.25.641.9.9,0,0,0,.25.641.744.744,0,0,0,.564.25.783.783,0,0,0,.59-.25.943.943,0,0,0,.212-.648Z" transform="translate(-129.649 -132.748)" fill="#ebebeb"/>
      <path id="Path_51676" data-name="Path 51676" d="M245.14,224.916a1.533,1.533,0,0,1,1.507-1.546,1.475,1.475,0,0,1,1.488,1.43v.032a.18.18,0,0,1,0,.058.3.3,0,0,1-.321.244h-1.963a.757.757,0,0,0,.205.411,1,1,0,0,0,1.238.122.353.353,0,0,1,.462,0,.282.282,0,0,1,0,.4,1.571,1.571,0,0,1-1.1.411,1.533,1.533,0,0,1-1.514-1.565Zm.674-.3h1.745a.988.988,0,0,0-.911-.641A.853.853,0,0,0,245.813,224.614Z" transform="translate(-131.923 -132.737)" fill="#ebebeb"/>
      <path id="Path_51677" data-name="Path 51677" d="M250.21,229.109a.3.3,0,0,1,.3-.289h3.727a.3.3,0,0,1,.3.289.3.3,0,0,1-.3.3h-3.727A.3.3,0,0,1,250.21,229.109Z" transform="translate(-133.741 -134.691)" fill="#ebebeb"/>
      <path id="Path_51678" data-name="Path 51678" d="M259.584,225.433a.34.34,0,0,1-.34.34h-2.194a.334.334,0,0,1-.257-.115.34.34,0,0,1,0-.481l1.828-1.655a.77.77,0,0,0,.257-.59.8.8,0,0,0-.2-.539.789.789,0,0,0-.6-.263.821.821,0,0,0-.539.205l-.186.173A.343.343,0,0,1,256.9,222l.192-.173a1.462,1.462,0,0,1,.994-.378,1.5,1.5,0,0,1,1.1.487,1.462,1.462,0,0,1,.378.994,1.488,1.488,0,0,1-.487,1.1l-1.167,1.058h1.315a.34.34,0,0,1,.359.346Z" transform="translate(-136.066 -132.049)" fill="#ebebeb"/>
      <rect id="Rectangle_12168" data-name="Rectangle 12168" width="26.215" height="26.215" transform="translate(94.494 152.28) rotate(180)" fill="#ebebeb"/>
      <rect id="Rectangle_12169" data-name="Rectangle 12169" width="23.13" height="23.13" transform="translate(92.948 150.734) rotate(180)" fill="#dbdbdb"/>
      <path id="Path_51679" data-name="Path 51679" d="M183.261,288.66A2.187,2.187,0,1,0,185,286.98a2.187,2.187,0,0,0-1.738,1.68Z" transform="translate(-109.716 -155.533)" fill="#c7c7c7"/>
      <path id="Path_51680" data-name="Path 51680" d="M187.49,302.481h16.715l-8.358-9.371Z" transform="translate(-111.251 -157.745)" fill="#c7c7c7"/>
      <path id="Path_51681" data-name="Path 51681" d="M177.49,304.306h13.8l-6.9-6.106Z" transform="translate(-107.665 -159.57)" fill="#a6a6a6"/>
      <rect id="Rectangle_12170" data-name="Rectangle 12170" width="23.13" height="6.004" transform="translate(69.825 144.737)" fill="#a6a6a6"/>
      <path id="Path_51682" data-name="Path 51682" d="M241.175,306.449h-2.566v-.481h2.566Zm-5.131,0h-2.566v-.481h2.566Zm-5.131,0h-2.566v-.481h2.566Zm-5.131,0h-2.566v-.481h2.566Zm-5.131,0h-2.566v-.481h2.566Zm-5.131,0h-2.566v-.481h2.566Zm-5.131,0h-2.566v-.481h2.566Zm-5.131,0H202.69v-.481h2.566Zm-5.131,0h-2.566v-.481h2.566Zm-5.131,0h-2.566v-.481h2.566Zm-5.131,0H187.3v-.481h2.566Zm-5.131,0h-2.566v-.481h2.566Zm-5.131,0h-2.566v-.481H179.6Zm-5.131,0H171.9v-.481h2.566Zm-4.586-.545H169.4v-2.566h.481Zm71.531-1.1h-.481v-2.566h.481Zm-71.531-4.028H169.4v-2.566h.481Zm71.531-1.1h-.481V297.1h.481Zm-71.531-4.028H169.4v-2.566h.481Zm71.531-1.1h-.481v-2.566h.481Zm-71.531-4.028H169.4v-2.566h.481Zm71.531-1.1h-.481v-2.566h.481Zm-71.531-4.028H169.4v-2.566h.481Zm71.531-1.1h-.481V281.71h.481Zm-71.531-4.028H169.4v-2.566h.481Zm71.531-1.1h-.481v-2.566h.481Zm-71.531-4.028H169.4V272.89h.821v.481h-.34Zm71.531-1.1h-.481v-.641h-1.437v-.481h1.924Zm-4.49-.641h-2.566v-.481h2.566Zm-5.131,0h-2.566v-.481h2.566Zm-5.131,0h-2.566v-.481h2.566Zm-5.131,0h-2.566v-.481h2.566Zm-5.131,0h-2.566v-.481H216.4Zm-5.131,0H208.7v-.481h2.566Zm-5.131,0h-2.566v-.481h2.566Zm-5.131,0h-2.566v-.481H201Zm-5.131,0h-2.566v-.481h2.566Zm-5.131,0h-2.566v-.481h2.566Zm-5.131,0h-2.566v-.481h2.566Zm-5.131,0h-2.566v-.481h2.566Zm-5.131,0H172.78v-.481h2.566Z" transform="translate(-104.764 -150.494)" fill="#c7c7c7"/>
      <path id="Path_51683" data-name="Path 51683" d="M220.9,279.22a.34.34,0,0,1,.34-.34.346.346,0,0,1,.346.34v3.643a.346.346,0,0,1-.346.34.333.333,0,0,1-.34-.34Z" transform="translate(-123.231 -152.642)" fill="#ebebeb"/>
      <path id="Path_51684" data-name="Path 51684" d="M226.249,282.072v1.482a.327.327,0,0,1-.327.327.34.34,0,0,1-.334-.327v-1.482a.641.641,0,0,0-1.283,0v1.507h0v.071a.353.353,0,0,1-.308.192h-.058a.327.327,0,0,1-.269-.321v-1.462h0V281.1a.327.327,0,0,1,.327-.333.314.314,0,0,1,.3.186,1.334,1.334,0,0,1,.641-.186,1.327,1.327,0,0,0,1.943,0,1.283,1.283,0,0,1,1.283,1.283v1.462a.327.327,0,0,1-.327.327.333.333,0,0,1-.334-.327v-1.462a.626.626,0,1,0-1.251.019Z" transform="translate(-124.224 -153.32)" fill="#ebebeb"/>
      <path id="Path_51685" data-name="Path 51685" d="M235.248,282.362v1.206a.327.327,0,0,1-.327.327.334.334,0,0,1-.321-.263,1.392,1.392,0,0,1-.821.263,1.43,1.43,0,0,1-1.046-.449,1.608,1.608,0,0,1,0-2.174,1.418,1.418,0,0,1,1.046-.462,1.4,1.4,0,0,1,.821.269.334.334,0,0,1,.321-.269.327.327,0,0,1,.327.334Zm-.641,0a.924.924,0,0,0-.237-.641.763.763,0,0,0-.577-.25.738.738,0,0,0-.571.25.975.975,0,0,0,0,1.283.776.776,0,0,0,.571.237.8.8,0,0,0,.577-.237.937.937,0,0,0,.224-.641Z" transform="translate(-127.322 -153.334)" fill="#ebebeb"/>
      <path id="Path_51686" data-name="Path 51686" d="M241.763,282.371v1.122a1.475,1.475,0,0,1-2.13,1.328.336.336,0,1,1,.3-.6.738.738,0,0,0,.353.09.827.827,0,0,0,.808-.641,1.424,1.424,0,0,1-1.854-.225,1.527,1.527,0,0,1-.436-1.084,1.61,1.61,0,0,1,.436-1.1,1.463,1.463,0,0,1,1.046-.455,1.392,1.392,0,0,1,.827.257.334.334,0,0,1,.327-.257.327.327,0,0,1,.327.327v1.232Zm-.641,0a.981.981,0,0,0-.231-.641.77.77,0,0,0-.59-.263.738.738,0,0,0-.564.263.93.93,0,0,0-.25.642.9.9,0,0,0,.25.641.744.744,0,0,0,.564.25.783.783,0,0,0,.59-.25.943.943,0,0,0,.212-.648Z" transform="translate(-129.649 -153.33)" fill="#ebebeb"/>
      <path id="Path_51687" data-name="Path 51687" d="M245.14,282.356a1.533,1.533,0,0,1,1.507-1.546,1.475,1.475,0,0,1,1.488,1.43h0a.179.179,0,0,1,0,.058.3.3,0,0,1-.321.244h-1.963a.756.756,0,0,0,.205.41.981.981,0,0,0,.6.276,1.007,1.007,0,0,0,.641-.154.353.353,0,0,1,.462,0,.282.282,0,0,1,0,.4,1.565,1.565,0,0,1-1.1.4A1.527,1.527,0,0,1,245.14,282.356Zm.673-.3h1.745a1,1,0,0,0-.911-.641.866.866,0,0,0-.834.641Z" transform="translate(-131.923 -153.334)" fill="#ebebeb"/>
      <path id="Path_51688" data-name="Path 51688" d="M250.21,286.549a.3.3,0,0,1,.3-.289h3.727a.289.289,0,0,1,0,.577h-3.727A.3.3,0,0,1,250.21,286.549Z" transform="translate(-133.741 -155.288)" fill="#ebebeb"/>
      <path id="Path_51689" data-name="Path 51689" d="M259.231,280.583a1.514,1.514,0,0,1,.449,1.084,1.533,1.533,0,0,1-2.617,1.084.349.349,0,0,1,.494-.494.827.827,0,0,0,.59.244.853.853,0,0,0,.59-.244.828.828,0,0,0,.244-.59.8.8,0,0,0-.244-.59.827.827,0,0,0-.59-.244.3.3,0,0,1-.25-.116h0a.353.353,0,0,1,0-.494l.641-.641h-1a.346.346,0,0,1,0-.693h1.822a.346.346,0,0,1,.353.34.424.424,0,0,1-.038.167.451.451,0,0,1-.064.09l-.776.8A1.443,1.443,0,0,1,259.231,280.583Z" transform="translate(-136.161 -152.645)" fill="#ebebeb"/>
    </g>
    <g id="freepik--Character--inject-18" transform="translate(95.584 98.903)">
      <path id="Path_51690" data-name="Path 51690" d="M212.517,133.463c4.836,4.368,3.3,10.513,5.279,13.919,1.206,2.078,5.266,4.355,6.023,6.735,1.238,3.919-2.085,5.228-1.4,7.357.962,3.015,4.971,2.886,5.568,7.793s-4.92,9.974-17.729,11.052-19.7-3.778-20.044-7.941,3.932-5.433,4.3-8.524c.237-1.976-2.348-3.419-2.386-7.056s3.541-4.74,4.131-7.819-.853-10.641,3.791-14.361S210.125,131.3,212.517,133.463Z" transform="translate(-145.595 -131.823)" fill="#263238"/>
      <path id="Path_51691" data-name="Path 51691" d="M224.066,134.525a10.506,10.506,0,0,1,3.207,3.849,23.017,23.017,0,0,1,1.693,5.061,13.81,13.81,0,0,0,.917,3.034,7.646,7.646,0,0,0,1.655,2.162,48.982,48.982,0,0,1,4.182,3.714c1.206,1.437,2.008,3.162,1.488,4.958a18.5,18.5,0,0,1-1.379,2.675,2.3,2.3,0,0,0,.141,2.688,17.907,17.907,0,0,0,2.258,1.469,8.166,8.166,0,0,1,1.815,1.854,6.235,6.235,0,0,1,1.046,4.939c-.853,3.951-4.637,6.113-8.114,7.447l-1.462.545c-.071.032-.135-.077-.058-.109,3.5-1.456,7.55-3.169,8.98-6.992a5.844,5.844,0,0,0-.462-5.131,7.313,7.313,0,0,0-1.777-1.963c-.68-.532-1.475-.866-2.168-1.373a2.367,2.367,0,0,1-1.033-2.13,5.773,5.773,0,0,1,1.02-2.514,4.715,4.715,0,0,0,.885-2.649,5.164,5.164,0,0,0-.956-2.566,20.689,20.689,0,0,0-4-3.778,8.64,8.64,0,0,1-3-4.381c-.237-.917-.378-1.86-.584-2.784a24.9,24.9,0,0,0-.7-2.566,11.93,11.93,0,0,0-2.566-4.49,7.2,7.2,0,0,0-1.033-.9C224.008,134.564,224.008,134.493,224.066,134.525Z" transform="translate(-157.727 -132.789)" fill="#263238"/>
      <path id="Path_51692" data-name="Path 51692" d="M189.34,171.905a4.843,4.843,0,0,1,.937-1.834c.455-.552,1.007-1.013,1.514-1.52a3.643,3.643,0,0,0,1.084-1.693,3.438,3.438,0,0,0-.5-2.316,16.579,16.579,0,0,1-1.084-2.258,7.985,7.985,0,0,1-.423-2.393,8.184,8.184,0,0,1,1.4-4.714c.455-.7.962-1.366,1.418-2.065a10.34,10.34,0,0,0,1.2-2.45c.641-1.924.8-3.932,1.321-5.869a30.072,30.072,0,0,1,2.226-5.734c0-.051.09,0,.064.038a26.618,26.618,0,0,0-1.924,5.189c-.449,1.693-.641,3.432-.994,5.131a13.117,13.117,0,0,1-.744,2.489,13.268,13.268,0,0,1-1.167,2.11,11.89,11.89,0,0,0-2.1,4.413,7.755,7.755,0,0,0,.7,4.8c.641,1.283,1.539,2.713.917,4.182-.532,1.244-1.751,1.969-2.566,2.989a5.029,5.029,0,0,0-.969,4.015c.59,3.592,4.131,5.458,7.479,5.721a.083.083,0,1,1,0,.167c-2.918-.115-6.055-1.475-7.351-4.24A6.2,6.2,0,0,1,189.34,171.905Z" transform="translate(-145.226 -134.41)" fill="#263238"/>
      <path id="Path_51693" data-name="Path 51693" d="M215.979,167.808c5.465,2.861,24.438,11.013,29.865,8.108,3.566-1.924,20.461-16.51,21.007-19.441.378-2-11.193-11.655-12.521-9.929s-14.175,15.5-15.67,16.17-17.549-2.245-23.091-1.956C206.043,161.259,213.035,166.262,215.979,167.808Z" transform="translate(-152.963 -137.028)" fill="#f7a9a0"/>
      <path id="Path_51694" data-name="Path 51694" d="M249.868,151.52l12.707,13.053s-14.5,14.361-18.64,14.579-19.955-4.342-28.9-9.461-5.2-8.678,2.444-7.7,19.634,2.5,20.474,1.924S249.868,151.52,249.868,151.52Z" transform="translate(-152.638 -138.886)" fill="#f6ab39"/>
      <path id="Path_51695" data-name="Path 51695" d="M279.451,168.407q-2.643-2.566-5.163-5.228c-.827-.879-1.668-1.751-2.476-2.649s-1.61-1.924-2.444-2.829c-.064-.064.032-.167.1-.1.84.866,1.738,1.674,2.566,2.527s1.713,1.809,2.566,2.713q2.521,2.681,4.913,5.491C279.573,168.381,279.5,168.458,279.451,168.407Z" transform="translate(-173.979 -141.058)" fill="#263238"/>
      <path id="Path_51696" data-name="Path 51696" d="M233.824,183.011a92.149,92.149,0,0,1-18.787-7.485c-7.12-4.067-6.2-7.152-1.687-7.736Z" transform="translate(-152.636 -144.72)" opacity="0.1"/>
      <path id="Path_51697" data-name="Path 51697" d="M212.9,167.94c1.507,2.2,7.21,11.032,9.127,16s12.828,61.384,10.539,64-22.86,2.065-25.9-2.059c-5.773-7.832-1.11-43.662-1.11-43.662s-.872-19.441,3.162-29.428C210.437,168.466,212.9,167.94,212.9,167.94Z" transform="translate(-150.467 -144.774)" fill="#f6ab39"/>
      <path id="Path_51698" data-name="Path 51698" d="M298.484,177.108a20.115,20.115,0,0,1,.366-7.248A19.979,19.979,0,0,1,298.484,177.108Z" transform="translate(-184.365 -145.462)" fill="#263238"/>
      <path id="Path_51699" data-name="Path 51699" d="M288.15,179.226a20.005,20.005,0,0,1-3.31-6.465A20.134,20.134,0,0,1,288.15,179.226Z" transform="translate(-179.535 -146.502)" fill="#263238"/>
      <path id="Path_51700" data-name="Path 51700" d="M280.07,186.358a20.122,20.122,0,0,1-6.1-3.938A20.076,20.076,0,0,1,280.07,186.358Z" transform="translate(-175.637 -149.966)" fill="#263238"/>
      <path id="Path_51701" data-name="Path 51701" d="M276.6,196.5a20.013,20.013,0,0,1-7.254-.366A20.152,20.152,0,0,1,276.6,196.5Z" transform="translate(-173.98 -154.822)" fill="#263238"/>
      <path id="Path_51702" data-name="Path 51702" d="M278.716,205.35a20.115,20.115,0,0,1-6.465,3.3A20.057,20.057,0,0,1,278.716,205.35Z" transform="translate(-175.02 -158.188)" fill="#263238"/>
      <path id="Path_51703" data-name="Path 51703" d="M285.855,211.91A20.313,20.313,0,0,1,281.91,218a19.948,19.948,0,0,1,3.945-6.093Z" transform="translate(-178.484 -160.541)" fill="#263238"/>
      <path id="Path_51704" data-name="Path 51704" d="M295.989,214.73a19.965,19.965,0,0,1-.366,7.248,20.128,20.128,0,0,1,.366-7.248Z" transform="translate(-183.34 -161.552)" fill="#263238"/>
      <path id="Path_51705" data-name="Path 51705" d="M304.84,213.05a20.263,20.263,0,0,1,3.31,6.466,20.134,20.134,0,0,1-3.31-6.466Z" transform="translate(-186.706 -160.949)" fill="#263238"/>
      <path id="Path_51706" data-name="Path 51706" d="M311.4,207.33a20.019,20.019,0,0,1,6.1,3.945A20.14,20.14,0,0,1,311.4,207.33Z" transform="translate(-189.059 -158.898)" fill="#263238"/>
      <path id="Path_51707" data-name="Path 51707" d="M314.22,198.994a20.153,20.153,0,0,1,7.255.366A20.154,20.154,0,0,1,314.22,198.994Z" transform="translate(-190.07 -155.847)" fill="#263238"/>
      <path id="Path_51708" data-name="Path 51708" d="M312.54,188.693a20.185,20.185,0,0,1,6.466-3.3,19.987,19.987,0,0,1-6.466,3.3Z" transform="translate(-189.467 -151.031)" fill="#263238"/>
      <path id="Path_51709" data-name="Path 51709" d="M306.82,180.594a20.069,20.069,0,0,1,3.945-6.093A20.111,20.111,0,0,1,306.82,180.594Z" transform="translate(-187.416 -147.126)" fill="#263238"/>
      <path id="Path_51710" data-name="Path 51710" d="M243.206,421.664c-1.212.391-35.753-.064-37.061-.917-.5-.321-.725-5.349-.827-11.443,0-1.315-.038-2.675-.045-4.054-.058-8.98.09-18.46.09-18.46l22.45.122-.045,18.569-.16,4.054s13.149,6.087,14.483,7.171S244.418,421.279,243.206,421.664Z" transform="translate(-150.999 -223.249)" fill="#f7a9a0"/>
      <path id="Path_51711" data-name="Path 51711" d="M243.214,431.984c-1.212.391-35.753-.064-37.061-.917-.6-.391-.815-7.742-.872-15.5l22.45.231-.16,4.054s13.149,6.087,14.483,7.171S244.426,431.6,243.214,431.984Z" transform="translate(-151.006 -233.569)" fill="#ebebeb"/>
      <path id="Path_51712" data-name="Path 51712" d="M243.239,434.25c-1.212.391-35.753-.064-37.061-.917-.5-.321-.725-5.349-.827-11.443l22.27.231s13.149,6.087,14.483,7.171S244.451,433.865,243.239,434.25Z" transform="translate(-151.031 -235.835)" fill="#f6ab39"/>
      <path id="Path_51713" data-name="Path 51713" d="M244.145,438.774c-5.773-.218-29.153-.552-34.893-.334-.045,0-.045.039,0,.039,5.734.34,29.1.487,34.893.391C244.266,438.864,244.266,438.774,244.145,438.774Z" transform="translate(-152.418 -241.744)" fill="#263238"/>
      <path id="Path_51714" data-name="Path 51714" d="M256.517,431.448a4.657,4.657,0,0,0-3.483,1.366,4.49,4.49,0,0,0-1.334,3.079c0,.032.064.032.071,0a5.375,5.375,0,0,1,4.747-4.374.039.039,0,0,0,0-.071Z" transform="translate(-167.651 -239.261)" fill="#263238"/>
      <path id="Path_51715" data-name="Path 51715" d="M239.929,423.188c-2.316-.064-5.016.718-6.478,2.6-.058.071.045.154.115.115a32.007,32.007,0,0,1,6.414-2.425.148.148,0,0,0-.051-.289Z" transform="translate(-161.101 -236.299)" fill="#263238"/>
      <path id="Path_51716" data-name="Path 51716" d="M242.707,424.308c-2.322-.058-5.016.725-6.485,2.6-.051.077.051.154.122.122a31.961,31.961,0,0,1,6.414-2.431.148.148,0,0,0-.051-.289Z" transform="translate(-162.096 -236.701)" fill="#263238"/>
      <path id="Path_51717" data-name="Path 51717" d="M245.479,425.438c-2.316-.064-5.016.718-6.478,2.6-.058.071.045.148.115.115a32.419,32.419,0,0,1,6.414-2.431.143.143,0,0,0-.051-.282Z" transform="translate(-163.092 -237.106)" fill="#263238"/>
      <path id="Path_51718" data-name="Path 51718" d="M248.257,426.558c-2.322-.058-5.016.725-6.485,2.6-.051.071.051.154.122.115a32.076,32.076,0,0,1,6.414-2.425.147.147,0,0,0-.051-.289Z" transform="translate(-164.087 -237.508)" fill="#263238"/>
      <path id="Path_51719" data-name="Path 51719" d="M210.586,429.94c-2.6,0-2.649,4.015-.045,4.041S213.19,429.978,210.586,429.94Z" transform="translate(-152.2 -238.722)" fill="#fff"/>
      <path id="Path_51720" data-name="Path 51720" d="M244.477,413.365c-1.155-.988-2.649-.058-3.387.943a12.187,12.187,0,0,0-2.181,5.9.058.058,0,0,0,.071.064.282.282,0,0,0,.417.192c1.661-1.116,3.579-2.11,4.856-3.707C244.99,415.828,245.58,414.3,244.477,413.365Zm-2.906,4.888c-.808.571-1.636,1.1-2.418,1.7.43-1.148.808-2.309,1.353-3.419a12.257,12.257,0,0,1,.866-1.552c.513-.757,2.816-2.662,3.008-.141C244.49,416.232,242.534,417.572,241.572,418.252Z" transform="translate(-163.065 -232.627)" fill="#263238"/>
      <path id="Path_51721" data-name="Path 51721" d="M228.534,423.245c2.014.334,4.105-.212,6.093-.494a.282.282,0,0,0,.18-.417.064.064,0,0,0,0-.1,12.187,12.187,0,0,0-5.568-2.925c-1.219-.25-2.951.058-3.149,1.565S227.36,423.046,228.534,423.245Zm-1.379-1.341c-1.539-2.008,1.443-2.13,2.335-1.924a12.953,12.953,0,0,1,1.68.571c1.142.455,2.2,1.071,3.291,1.636-.988.077-1.956.244-2.931.359C230.355,422.7,228,423.014,227.155,421.9Z" transform="translate(-158.462 -234.881)" fill="#263238"/>
      <path id="Path_51722" data-name="Path 51722" d="M196.41,220.53s4.4,62.462,5.221,67.24c.186,1.084.212,6.979.154,14.56-.109,16.536-.205,46.356-.205,46.356l23.906.436s1.719-51.641.744-61.172-7.293-67.009-7.293-67.009Z" transform="translate(-147.826 -163.632)" fill="#37474f"/>
      <path id="Path_51723" data-name="Path 51723" d="M227.774,413.637c-3.714-.154-2.643-.167-6.363-.269-1.822-.058-13.771-.385-15.478-.109-.038,0-.038.071,0,.083,1.7.333,13.656.443,15.478.455,3.72,0,2.649,0,6.369-.038C227.826,413.759,227.826,413.644,227.774,413.637Z" transform="translate(-151.23 -232.701)" fill="#263238"/>
      <path id="Path_51724" data-name="Path 51724" d="M208.39,316.368q.058-5.657.122-11.321c.038-3.656.115-7.312,0-10.968-.218-7.4-1.584-14.695-2.521-22.026s-1.687-14.682-2.36-22.046c-.75-8.262-1.4-16.529-2.1-24.791,0-.058-.09-.058-.083,0,.956,14.753,2.053,29.505,3.849,44.175q.641,5.471,1.462,10.9c.545,3.688,1.078,7.37,1.283,11.09s.192,7.287.167,10.9l-.1,11.315c-.071,8.377-.224,21.27-.3,29.646a.128.128,0,0,0,.25,0C208.146,335.829,208.313,323.841,208.39,316.368Z" transform="translate(-149.633 -165.296)" fill="#263238"/>
      <path id="Path_51725" data-name="Path 51725" d="M187.86,220.37s9.884,62.564,10.705,67.349c.186,1.084.212,6.979.154,14.56h0l13.893-81.46Z" transform="translate(-144.76 -163.574)" fill="#263238"/>
      <path id="Path_51726" data-name="Path 51726" d="M151.193,413.676c-1.225-.34-29.884-19.628-30.512-21.051-.244-.539,2.322-4.881,5.568-10.032.706-1.116,1.437-2.258,2.181-3.419,4.856-7.524,10.179-15.394,10.179-15.394l18.71,12.379-10.2,15.51-2.348,3.3s7.7,12.29,8.191,13.932S152.419,414.016,151.193,413.676Z" transform="translate(-120.665 -214.998)" fill="#f7a9a0"/>
      <path id="Path_51727" data-name="Path 51727" d="M151.193,422.271c-1.225-.34-29.884-19.628-30.512-21.051-.3-.641,3.553-6.927,7.748-13.47l18.685,12.495-2.348,3.3s7.7,12.29,8.191,13.932S152.419,422.611,151.193,422.271Z" transform="translate(-120.665 -223.593)" fill="#ebebeb"/>
      <path id="Path_51728" data-name="Path 51728" d="M151.193,424.193c-1.225-.34-29.884-19.628-30.512-21.051-.244-.539,2.322-4.881,5.568-10.032l18.518,12.379s7.7,12.29,8.191,13.932S152.419,424.533,151.193,424.193Z" transform="translate(-120.665 -225.515)" fill="#f6ab39"/>
      <path id="Path_51729" data-name="Path 51729" d="M152.574,428.521c-4.721-3.355-24.1-16.42-29.024-19.371h0c4.612,3.425,24.092,16.337,28.992,19.422C152.625,428.662,152.689,428.591,152.574,428.521Z" transform="translate(-121.686 -231.267)" fill="#263238"/>
      <path id="Path_51730" data-name="Path 51730" d="M165.606,430.107a4.663,4.663,0,0,0-3.663-.763,4.49,4.49,0,0,0-2.8,1.841c0,.032.032.071.058.045a5.369,5.369,0,0,1,6.363-1.065C165.606,430.191,165.644,430.133,165.606,430.107Z" transform="translate(-134.461 -238.472)" fill="#263238"/>
      <path id="Path_51731" data-name="Path 51731" d="M156.788,414.177c-1.924-1.321-4.593-2.142-6.844-1.373-.083,0-.045.154.032.16a31.992,31.992,0,0,1,6.69,1.475.147.147,0,0,0,.122-.263Z" transform="translate(-131.147 -232.47)" fill="#263238"/>
      <path id="Path_51732" data-name="Path 51732" d="M158.5,416.637c-1.924-1.321-4.593-2.142-6.844-1.373-.09.032-.045.154,0,.16a32.234,32.234,0,0,1,6.716,1.488.152.152,0,1,0,.128-.276Z" transform="translate(-131.757 -233.353)" fill="#263238"/>
      <path id="Path_51733" data-name="Path 51733" d="M160.206,419.067c-1.924-1.321-4.593-2.142-6.844-1.373-.09.032-.045.154.032.16a32.232,32.232,0,0,1,6.684,1.469.147.147,0,0,0,.128-.256Z" transform="translate(-132.372 -234.224)" fill="#263238"/>
      <path id="Path_51734" data-name="Path 51734" d="M161.909,421.557c-1.924-1.321-4.586-2.142-6.844-1.373-.083,0-.038.154.038.16a32.329,32.329,0,0,1,6.684,1.469.142.142,0,1,0,.122-.257Z" transform="translate(-132.984 -235.117)" fill="#263238"/>
      <path id="Path_51735" data-name="Path 51735" d="M128.522,403.122c-2.162-1.45-4.413,1.924-2.245,3.355S130.684,404.565,128.522,403.122Z" transform="translate(-122.362 -228.978)" fill="#fff"/>
      <path id="Path_51736" data-name="Path 51736" d="M164.557,408.561c-.436-1.462-2.187-1.495-3.355-1.065a12.109,12.109,0,0,0-5.054,3.746.058.058,0,0,0,0,.09.289.289,0,0,0,.244.391c2.008,0,4.156.192,6.093-.449C163.633,410.9,164.961,409.946,164.557,408.561Zm-5.131,2.5c-.988.038-1.969,0-2.957.1a34.114,34.114,0,0,1,3-2.117,12.315,12.315,0,0,1,1.578-.827c.847-.353,3.816-.693,2.566,1.527-.622,1.2-3,1.276-4.169,1.321Z" transform="translate(-133.381 -230.588)" fill="#263238"/>
      <path id="Path_51737" data-name="Path 51737" d="M147.332,407.373c1.5,1.379,3.547,2.065,5.369,2.918.186.09.359-.083.378-.257a.058.058,0,0,0,.058-.077,12.1,12.1,0,0,0-3.06-5.491c-.879-.879-2.5-1.571-3.489-.417S146.428,406.565,147.332,407.373Zm-.423-1.879c-.192-2.527,2.373-.994,3-.321a12.318,12.318,0,0,1,1.1,1.4,31.476,31.476,0,0,1,1.86,3.169c-.872-.475-1.77-.872-2.655-1.283-1.078-.552-3.22-1.578-3.323-2.97Z" transform="translate(-129.799 -229.221)" fill="#263238"/>
      <path id="Path_51738" data-name="Path 51738" d="M150.066,342.449,129.9,329.941s25.657-38.485,25.843-42c.289-5.2,3.207-26.67,5.6-44.046,0,0-3.81-9.5,3.9-23.6l29.865.545s-2.251,13.515-5.831,22.046a40.028,40.028,0,0,0-6.716,2.912s-3.682,38.774-3.881,43.617C178.3,299,150.066,342.449,150.066,342.449Z" transform="translate(-123.976 -163.546)" fill="#37474f"/>
      <path id="Path_51739" data-name="Path 51739" d="M154.253,395.946c-3.156-2.065-2.219-1.52-5.394-3.547-1.559-.994-11.789-7.511-13.419-8.159-.032,0-.071.045-.045.071,1.283,1.167,11.655,7.492,13.232,8.454,3.207,1.963,2.322,1.36,5.561,3.284C154.253,396.081,154.311,395.984,154.253,395.946Z" transform="translate(-125.944 -222.335)" fill="#263238"/>
      <path id="Path_51740" data-name="Path 51740" d="M219.837,254.619a49.438,49.438,0,0,0-7.857,3.483.09.09,0,0,0,.071.16c2.636-1.078,5.33-2.1,7.9-3.323a.173.173,0,0,0-.115-.321Z" transform="translate(-153.395 -175.854)" fill="#263238"/>
      <path id="Path_51741" data-name="Path 51741" d="M218.171,240.156c.289-1.559.526-3.117.686-4.7a42.667,42.667,0,0,0,.064-8.82.077.077,0,0,0-.148,0,80.376,80.376,0,0,1-.936,12.187c-.327,1.924-1.36,4.836.641,5.17s3.483-4.522,3.759-5.856a44.547,44.547,0,0,0,.641-11.546c0-.09-.16-.115-.167,0a86.782,86.782,0,0,1-.6,8.743c-.148,1.347-1.366,8.781-3.695,8.191-.391-.1-.584-.488-.641-1.078a9.248,9.248,0,0,1,.353-2.277" transform="translate(-155.309 -165.779)" fill="#263238"/>
      <path id="Path_51742" data-name="Path 51742" d="M218.755,253.238a11.833,11.833,0,0,0-.558,1.533,3.6,3.6,0,0,0-.237,1.283c0,.077.115.09.16.032a4.348,4.348,0,0,0,.564-1.225c.186-.475.385-.943.558-1.424a.263.263,0,1,0-.487-.2Z" transform="translate(-155.553 -175.301)" fill="#263238"/>
      <path id="Path_51743" data-name="Path 51743" d="M172,223.32a28.087,28.087,0,0,0-2.328,4.875,30.69,30.69,0,0,0-1.424,5.208c-.186.885-.263,1.783-.372,2.675a17.178,17.178,0,0,0-.109,2.694,28.266,28.266,0,0,0,.526,5.349v.058q-1.244,11.276-2.566,22.552t-2.636,22.54l-.09.706-.038.353a1.193,1.193,0,0,1-.083.378,11.091,11.091,0,0,1-.712,1.283c-.488.815-.994,1.61-1.507,2.412-1.02,1.591-2.059,3.175-3.1,4.753-2.085,3.156-14.182,21.4-18.492,27.613l18.075-27.889c1.033-1.578,2.065-3.162,3.079-4.759.507-.8,1.007-1.591,1.495-2.4a11.01,11.01,0,0,0,.641-1.187.9.9,0,0,0,.058-.308l.045-.353.077-.706q1.283-11.263,2.643-22.527t2.72-22.52v.058a28.475,28.475,0,0,1-.468-5.42c0-.911.083-1.815.141-2.72a16.646,16.646,0,0,1,.436-2.688,30.146,30.146,0,0,1,1.533-5.208A27.745,27.745,0,0,1,172,223.32Z" transform="translate(-127.265 -164.632)" fill="#263238"/>
      <path id="Path_51744" data-name="Path 51744" d="M214.845,201.7l.84-7.665a8.576,8.576,0,0,0,1.623-9.121c-.93-2.251-6.741-13.932-10.6-16.536-3.624-2.444-6.555-1.6-8.518.359-6.28,6.286-10.455,17.184-13.188,32.43Z" transform="translate(-143.734 -144.393)" fill="#ebebeb"/>
      <path id="Path_51745" data-name="Path 51745" d="M220.969,206a18.019,18.019,0,0,1,3.6.674c.59.186,1.174.41,1.757.641.289.122.577.225.872.334a3,3,0,0,0,.93.205v.058a3.726,3.726,0,0,1-1.738-.167c-.6-.18-1.193-.4-1.8-.59-1.206-.385-2.418-.763-3.637-1.026C220.892,206.141,220.9,206,220.969,206Z" transform="translate(-156.612 -158.421)" fill="#263238"/>
      <path id="Path_51746" data-name="Path 51746" d="M216.47,208.421a18.5,18.5,0,0,1,2.963-.353,12.829,12.829,0,0,1,1.488.058l.712.083c.263.032.526.122.789.148v.064h-2.97c-.994,0-1.982,0-2.976.064C216.425,208.537,216.419,208.428,216.47,208.421Z" transform="translate(-155.006 -159.162)" fill="#263238"/>
      <path id="Path_51747" data-name="Path 51747" d="M192.694,167.56c.77,2.566,4.022,16.074,4.336,21.4s-5.471,61.493-8.467,63.289-22.4-4.99-24.047-9.852c-3.117-9.217,12.238-41.923,12.238-41.923s4.31-20.692,11.2-28.973C190.937,167.906,192.694,167.56,192.694,167.56Z" transform="translate(-136.239 -144.638)" fill="#f6ab39"/>
      <rect id="Rectangle_12171" data-name="Rectangle 12171" width="73.667" height="73.667" transform="matrix(1, 0.003, -0.003, 1, 77.979, 8.096)" fill="#ebebeb"/>
      <rect id="Rectangle_12172" data-name="Rectangle 12172" width="64.995" height="64.995" transform="matrix(1, 0.003, -0.003, 1, 82.302, 12.444)" fill="#f6ab39"/>
      <path id="Path_51748" data-name="Path 51748" d="M327.109,172.885a6.132,6.132,0,1,1-4.8-4.823A6.132,6.132,0,0,1,327.109,172.885Z" transform="translate(-190.335 -144.773)" opacity="0.1"/>
      <path id="Path_51749" data-name="Path 51749" d="M295.721,211.711l-46.971-.135,23.559-26.266Z" transform="translate(-166.594 -151.002)" opacity="0.1"/>
      <path id="Path_51750" data-name="Path 51750" d="M328.4,216.933l-38.78-.109,19.441-17.094Z" transform="translate(-181.249 -156.173)" fill="#f6ab39"/>
      <g id="Group_45998" data-name="Group 45998" transform="translate(108.371 43.557)" opacity="0.2">
        <path id="Path_51751" data-name="Path 51751" d="M328.4,216.933l-38.78-.109,19.441-17.094Z" transform="translate(-289.62 -199.73)"/>
      </g>
      <rect id="Rectangle_12173" data-name="Rectangle 12173" width="64.995" height="16.869" transform="matrix(-1, -0.003, 0.003, -1, 147.095, 77.639)" fill="#f6ab39"/>
      <rect id="Rectangle_12174" data-name="Rectangle 12174" width="64.995" height="16.869" transform="matrix(-1, -0.003, 0.003, -1, 147.095, 77.639)" opacity="0.2"/>
      <path id="Path_51752" data-name="Path 51752" d="M197.29,177.144c-3.772,9.365-8.011,29.307-5.824,32.674,3.784,5.824,13.027,12.565,18.6,15.394,1.886.962,9.185-13.553,6.985-14.111-2.63-.641-13.066-8.781-13.149-9.358-.115-.776-.641-13.233-.988-21.757C202.46,169.806,198.8,173.4,197.29,177.144Z" transform="translate(-145.838 -146.711)" fill="#f7a9a0"/>
      <path id="Path_51753" data-name="Path 51753" d="M218.55,245.825c4.836,3,10.673,7.056,17.094,7.19a3.156,3.156,0,0,0,1.995-.584c2.88.122,3.8-1.2,3.8-1.2,2.713-.712,3.47-2.194,3.47-2.194s3.38.1,3.784-1.924c.455-2.277-4.381-1.982-7.139-3.438-6.324-3.348-14.374-9.878-16.1-11.026Z" transform="translate(-155.765 -167.978)" fill="#f7a9a0"/>
      <path id="Path_51754" data-name="Path 51754" d="M240.183,251.621a47.594,47.594,0,0,0,5.7,2.617,46.954,46.954,0,0,0,6.7,1.533.058.058,0,1,1,0,.115,24.374,24.374,0,0,1-12.431-4.182C240.03,251.646,240.087,251.569,240.183,251.621Z" transform="translate(-163.486 -174.774)" fill="#263238"/>
      <path id="Path_51755" data-name="Path 51755" d="M236.156,257.1a33.947,33.947,0,0,0,11.546,2.816v.038a21.808,21.808,0,0,1-11.6-2.764C236.015,257.13,236.015,257.028,236.156,257.1Z" transform="translate(-162.037 -176.737)" fill="#263238"/>
      <path id="Path_51756" data-name="Path 51756" d="M234.049,260.1a33.925,33.925,0,0,0,9.089,2.155v.038a20.407,20.407,0,0,1-9.147-2.091C233.869,260.149,233.921,260.027,234.049,260.1Z" transform="translate(-161.277 -177.812)" fill="#263238"/>
      <path id="Path_51757" data-name="Path 51757" d="M238.043,239.036c-.641-.757-.257-1.1,1.494-.757s8.338,3.207,9.166.827-8.589-6.305-11.546-6.664a47.528,47.528,0,0,0-7.857.09C230.981,233.661,234.784,236.785,238.043,239.036Z" transform="translate(-159.619 -167.86)" fill="#f7a9a0"/>
      <path id="Path_51758" data-name="Path 51758" d="M215.391,209.583l-8.229,15.952s-17.171-11.372-18.024-16.773,4.3-24.631,6.767-30.57,5.651-8,6.645,0,1.129,22.86,1.187,23.213S215.391,209.583,215.391,209.583Z" transform="translate(-145.184 -146.566)" fill="#f6ab39"/>
      <path id="Path_51759" data-name="Path 51759" d="M213.666,241.863q1.5-3.348,3.207-6.626c.552-1.078,1.084-2.162,1.655-3.207s1.283-2.155,1.841-3.258c.038-.077.167,0,.122.058-.526,1.084-.981,2.207-1.5,3.291s-1.122,2.226-1.687,3.335q-1.674,3.284-3.509,6.472a.072.072,0,1,1-.128-.064Z" transform="translate(-154.01 -166.575)" fill="#263238"/>
      <path id="Path_51760" data-name="Path 51760" d="M214.784,208.7a15.46,15.46,0,0,1-3.438-2.386,11.444,11.444,0,0,1-.237-1.924c-.4-5.972-.6-12.02-.494-17.992l.237,2.951.16,3c.148,2.989.4,8.98.494,12a15.2,15.2,0,0,0,.128,1.809,21.351,21.351,0,0,0,3.207,2.514Z" transform="translate(-152.909 -151.393)" fill="#263238"/>
      <path id="Path_51761" data-name="Path 51761" d="M211.588,189.23a3.515,3.515,0,0,1-.738,2.611A17.318,17.318,0,0,1,211.588,189.23Z" transform="translate(-153.003 -152.408)" fill="#263238"/>
      <path id="Path_51762" data-name="Path 51762" d="M194.133,188.216a104.552,104.552,0,0,0-2.918,11.27c-.776,3.8-1.559,7.607-2,11.449a12.129,12.129,0,0,0-.051,2.848c.443,2.886,2.636,5.054,4.689,6.991,1.418,1.315,2.912,2.566,4.432,3.759s3.047,2.405,4.593,3.592a102.067,102.067,0,0,1-9.3-7.056c-3.047-2.694-5.677-5.85-4.817-10.186a113.051,113.051,0,0,1,5.375-22.674Z" transform="translate(-145.022 -152.042)" fill="#263238"/>
      <path id="Path_51763" data-name="Path 51763" d="M195.615,189.35a9.532,9.532,0,0,0-.257,2.983A2.745,2.745,0,0,1,195.615,189.35Z" transform="translate(-147.332 -152.451)" fill="#263238"/>
      <path id="Path_51764" data-name="Path 51764" d="M208.68,164.547c.058.641,3.9,5.035,6.658,5.3.9.083.032-4.92.032-4.92l.135-.353,1.841-4.888-5.388-4.644-.783-.641s-.417,1.373-.917,3.079l-.077.244a1.177,1.177,0,0,1-.083.282c-.077.25-.154.513-.231.776s-.109.391-.16.6l-.167.641a33.652,33.652,0,0,0-.86,4.528Z" transform="translate(-152.225 -139.919)" fill="#f7a9a0"/>
      <path id="Path_51765" data-name="Path 51765" d="M211.14,157.487a10.449,10.449,0,0,0,5.247,7.056l1.841-4.888-5.388-4.644-.783-.641S211.64,155.781,211.14,157.487Z" transform="translate(-153.107 -139.908)" fill="#263238"/>
      <path id="Path_51766" data-name="Path 51766" d="M225.635,144.329c.641,9.14-4.747,10.571-6.716,10.712-1.79.122-7.9.327-9.5-8.7s2.444-12.226,6.517-12.732S224.975,135.182,225.635,144.329Z" transform="translate(-152.363 -132.439)" fill="#f7a9a0"/>
      <path id="Path_51767" data-name="Path 51767" d="M231.614,148.149a5.09,5.09,0,0,1-.641-.128,1.013,1.013,0,0,1-.641-.25.321.321,0,0,1,0-.4.808.808,0,0,1,.8-.192,1.225,1.225,0,0,1,.75.417.346.346,0,0,1-.263.552Z" transform="translate(-159.964 -137.318)" fill="#263238"/>
      <path id="Path_51768" data-name="Path 51768" d="M222.519,148.422c.212-.032.4-.1.641-.154a1.02,1.02,0,0,0,.59-.282.327.327,0,0,0,0-.4.815.815,0,0,0-.808-.154,1.193,1.193,0,0,0-.725.449.346.346,0,0,0,.3.539Z" transform="translate(-157.059 -137.404)" fill="#263238"/>
      <path id="Path_51769" data-name="Path 51769" d="M224.509,151.53s-.051.032-.051.058c.038.641,0,1.347-.577,1.571v.032C224.6,153.076,224.643,152.114,224.509,151.53Z" transform="translate(-157.676 -138.89)" fill="#263238"/>
      <path id="Path_51770" data-name="Path 51770" d="M223.567,150.54c-1.007-.045-1.026,1.969-.1,2.014S224.381,150.578,223.567,150.54Z" transform="translate(-157.285 -138.534)" fill="#263238"/>
      <path id="Path_51771" data-name="Path 51771" d="M222.695,150.664c-.18.115-.353.314-.564.334s-.43-.192-.59-.4h0c0,.385.135.783.545.847s.641-.289.757-.674C222.829,150.728,222.765,150.619,222.695,150.664Z" transform="translate(-156.837 -138.556)" fill="#263238"/>
      <path id="Path_51772" data-name="Path 51772" d="M230.129,151.53a.046.046,0,0,1,.045.051c-.032.641.038,1.347.6,1.565h0C230.084,153.069,230.033,152.114,230.129,151.53Z" transform="translate(-159.903 -138.89)" fill="#263238"/>
      <path id="Path_51773" data-name="Path 51773" d="M230.665,150.529c1-.058,1.046,1.956.115,2.008S229.844,150.574,230.665,150.529Z" transform="translate(-159.894 -138.53)" fill="#263238"/>
      <path id="Path_51774" data-name="Path 51774" d="M231.625,150.652c.16.1.321.3.513.3s.378-.212.513-.423h0c0,.385-.1.789-.468.872s-.59-.25-.693-.641C231.5,150.722,231.554,150.607,231.625,150.652Z" transform="translate(-160.405 -138.531)" fill="#263238"/>
      <path id="Path_51775" data-name="Path 51775" d="M224.762,159.373c.148.154.282.359.507.391a1.655,1.655,0,0,0,.68-.115v.032a.84.84,0,0,1-.808.3.642.642,0,0,1-.462-.577.044.044,0,1,1,.083-.026Z" transform="translate(-157.962 -141.691)" fill="#263238"/>
      <path id="Path_51776" data-name="Path 51776" d="M227.665,152.478s.128.936.128,1.373c0,.045-.1.064-.257.071h0a2.091,2.091,0,0,1-2.033-.776c-.032-.045,0-.09.064-.064a3.1,3.1,0,0,0,1.924.545c.032-.122-.276-1.591-.205-1.591a3.6,3.6,0,0,1,.994.224c-.212-1.924-.738-3.849-.924-5.773,0-.064.1-.09.115,0a31.815,31.815,0,0,1,1.283,6.2C228.749,152.882,227.838,152.568,227.665,152.478Z" transform="translate(-158.253 -137.061)" fill="#263238"/>
      <path id="Path_51777" data-name="Path 51777" d="M227.132,157.407a2.194,2.194,0,0,1-.866.738,1.058,1.058,0,0,1-.641.071c-.449-.1-.481-.507-.41-.86a2.431,2.431,0,0,1,.173-.545,2.937,2.937,0,0,0,1.745.6Z" transform="translate(-158.144 -140.783)" fill="#263238"/>
      <path id="Path_51778" data-name="Path 51778" d="M226.266,158.449a1.058,1.058,0,0,1-.641.071c-.449-.1-.481-.507-.41-.86A1.046,1.046,0,0,1,226.266,158.449Z" transform="translate(-158.144 -141.087)" fill="#ff9cbd"/>
      <path id="Path_51779" data-name="Path 51779" d="M209.973,147.756a3.733,3.733,0,0,0,1.873-3.207,9.673,9.673,0,0,0,3.733-3.457c-.045.192-.391,1.565-.584,2.258a10.052,10.052,0,0,0,7.113-5.972,9.949,9.949,0,0,1,2.752,3.457,10.8,10.8,0,0,0-2.174-5.741,5.664,5.664,0,0,0-5.382-1.969,8.108,8.108,0,0,0-7.736,2.976C206.125,140.418,209.973,147.756,209.973,147.756Z" transform="translate(-152.03 -132.248)" fill="#263238"/>
      <path id="Path_51780" data-name="Path 51780" d="M223.881,144.038a10.61,10.61,0,0,1-2.861,1.283h0a9.032,9.032,0,0,0,4.028-2.829,8.793,8.793,0,0,0,1.116-1.815,5.939,5.939,0,0,0,.609-2.232.045.045,0,1,1,.09,0,6.864,6.864,0,0,1-.3,2.283,6.158,6.158,0,0,1-1.142,1.988,7.056,7.056,0,0,1-1.533,1.334" transform="translate(-156.65 -134.181)" fill="#263238"/>
      <path id="Path_51781" data-name="Path 51781" d="M210.966,152.284S209,149.4,207.694,150.09s.135,4.862,1.655,5.452a1.546,1.546,0,0,0,2.085-.8Z" transform="translate(-151.689 -138.335)" fill="#f7a9a0"/>
      <path id="Path_51782" data-name="Path 51782" d="M208.67,152v.038a3.913,3.913,0,0,1,1.988,2.482.853.853,0,0,0-1.283-.257v.058a.962.962,0,0,1,1.046.346,4.97,4.97,0,0,1,.494.859c.045.1.218.045.186-.064h0C211.165,154.078,210.165,152.154,208.67,152Z" transform="translate(-152.222 -139.058)" fill="#263238"/>
      <path id="Path_51783" data-name="Path 51783" d="M273.49,143.421c2.162-1.321,4.7-4.336,6.543-4.753a2.168,2.168,0,0,1,2.392.956,3.254,3.254,0,0,1,2.457-2.053c.892-.051,1.757,1.321,1.757,1.321a2.566,2.566,0,0,1,2.194-1.533c1.232,0,1.924,1.373,1.924,1.373a3.073,3.073,0,0,1,2.566-.776c2.566.815,3.63,11.308-.064,13.335-1.725.943-1.854-1.636-1.854-1.636s-.712,3.752-2.867,4.035-2.123-3.079-2.123-3.079-.718,3.63-2.983,3.695c-2.36.071-1.751-3.284-1.751-3.284s-1.341,2.5-3.085,2.149c-2.88-.571.167-5.356-.641-7.607l-3.938-.872Z" transform="translate(-175.465 -133.809)" fill="#f7a9a0"/>
      <path id="Path_51784" data-name="Path 51784" d="M273.513,142.537c-2.155,1.071-5.221-1.418-7.428-.693-2.989.981.366,4.112,4.888,4.413l3.553-.385Z" transform="translate(-172.402 -135.368)" fill="#f7a9a0"/>
      <path id="Path_51785" data-name="Path 51785" d="M300.61,139.82h.058a18.313,18.313,0,0,1,.481,10.9c-.032.115-.231.109-.218,0A37.406,37.406,0,0,0,300.61,139.82Z" transform="translate(-185.189 -134.691)" fill="#263238"/>
      <path id="Path_51786" data-name="Path 51786" d="M293.816,139.648c0-.045.064-.058.077,0a17.139,17.139,0,0,1-.212,11.9c-.058.128-.237.192-.186.038C294.393,148.936,294.457,143,293.816,139.648Z" transform="translate(-182.635 -134.615)" fill="#263238"/>
      <path id="Path_51787" data-name="Path 51787" d="M285.927,152.549a23.564,23.564,0,0,0,1.007-11.5c0-.051.071-.051.09,0a15.431,15.431,0,0,1,.673,6.382,10.494,10.494,0,0,1-1.642,5.176A.07.07,0,1,1,285.927,152.549Z" transform="translate(-179.923 -135.117)" fill="#263238"/>
    </g>
  </g>
</svg>
