<svg id="noun-info-3882048" xmlns="http://www.w3.org/2000/svg" width="20" height="20" viewBox="0 0 20 20">
  <path id="Path_50834" data-name="Path 50834" d="M89.41,9.406a10,10,0,1,1-10,10A10,10,0,0,1,89.41,9.406Zm-2.63,8.605c-.014-1,2.277-1.552,3.315-1.277,2.635.7-1.178,6.825-.519,7.732.366.5,2.032.108,2.032.565s-1.13,1.649-3.055,1.254-1.407-1.743-1.146-2.827,1.374-4.081,1.374-4.6c0-1.629-2.026-.418-2-.846Zm3.756-5.563a1.5,1.5,0,1,1-1.5,1.5A1.5,1.5,0,0,1,90.536,12.448Z" transform="translate(-79.41 -9.406)" fill="#0a2f2a" fill-rule="evenodd"/>
</svg>
