<svg xmlns="http://www.w3.org/2000/svg" width="21.109" height="27.381" viewBox="0 0 21.109 27.381">
  <path id="lock" d="M183.674,52.291V48.11a6.97,6.97,0,1,0-13.939,0v4.182a3.49,3.49,0,0,0-3.485,3.485v9.06a3.49,3.49,0,0,0,3.485,3.485h13.939a3.49,3.49,0,0,0,3.485-3.485v-9.06A3.489,3.489,0,0,0,183.674,52.291Zm-12.545-4.183a5.576,5.576,0,1,1,11.151,0V52.29H171.129Zm14.636,16.727a2.092,2.092,0,0,1-2.091,2.091H169.735a2.092,2.092,0,0,1-2.091-2.091v-9.06a2.092,2.092,0,0,1,2.091-2.091h13.939a2.092,2.092,0,0,1,2.091,2.091Z" transform="translate(-166.15 -41.04)" fill="#20776e" stroke="#20776e" stroke-width="0.2"/>
</svg>
