<svg xmlns="http://www.w3.org/2000/svg" width="24.31" height="27.482" viewBox="0 0 24.31 27.482">
  <g id="log" transform="translate(-193.051 -102.33)">
    <path id="Path_52714" data-name="Path 52714" d="M208.978,195.016l-4.888,4.888a.857.857,0,1,0,1.2,1.2l6.388-6.345a.857.857,0,0,0,0-1.2l-6.345-6.345a.857.857,0,0,0-1.2,1.2l4.845,4.888h-14.92a.857.857,0,0,0,0,1.715Z" transform="translate(0 -78.087)" fill="#20776e" stroke="#fff" stroke-width="0.3"/>
    <path id="Path_52715" data-name="Path 52715" d="M295.828,102.48H283.694a2.572,2.572,0,0,0-2.572,2.572v3.3a.857.857,0,0,0,1.715,0v-3.3a.858.858,0,0,1,.857-.857h12.133a.857.857,0,0,1,.857.857V127.09a.857.857,0,0,1-.857.857H283.694a.858.858,0,0,1-.857-.857v-3.73a.857.857,0,0,0-1.715,0v3.73a2.572,2.572,0,0,0,2.572,2.572h12.133a2.573,2.573,0,0,0,2.573-2.572V105.052a2.573,2.573,0,0,0-2.573-2.572Z" transform="translate(-81.19)" fill="#20776e" stroke="#fff" stroke-width="0.3"/>
  </g>
</svg>
