<svg xmlns="http://www.w3.org/2000/svg" width="21.52" height="21.521" viewBox="0 0 21.52 21.521">
  <g id="Group_66752" data-name="Group 66752" transform="translate(7597.05 -1662.149)">
    <g id="noun-male-auditor-4344848" transform="translate(-7685.722 1643.482)">
      <path id="Path_63179" data-name="Path 63179" d="M325.659,392.34a3.012,3.012,0,0,1-1.281,1.12,2.277,2.277,0,0,1,.786.82.339.339,0,0,1,.025.045c.026.048.056.092.08.144a2.347,2.347,0,0,0,1.315-1.67h0a1.364,1.364,0,0,0-.925-.46Z" transform="translate(-226.002 -358.287)" fill="#20776e"/>
      <path id="Path_63180" data-name="Path 63180" d="M247.33,373.278v.3a2.124,2.124,0,0,0,3.843,0v-.3A5.048,5.048,0,0,1,247.33,373.278Z" transform="translate(-152.126 -340.008)" fill="#20776e"/>
      <path id="Path_63181" data-name="Path 63181" d="M92.907,410.49H92.9a4.235,4.235,0,0,0-4.227,4.235v1.153h5.743c-1.242-1.449-1.467-4.34-1.507-5.387Z" transform="translate(0 -375.69)" fill="#20776e"/>
      <path id="Path_63182" data-name="Path 63182" d="M214.816,450l.612-2.76-.377-.377h0a.381.381,0,0,1-.18.212.391.391,0,0,1-.175.042.383.383,0,0,1-.143-.027,4.61,4.61,0,0,1-1.257-.8c.2,1.426.635,3.074,1.52,3.714Z" transform="translate(-119.493 -410.01)" fill="#20776e"/>
      <path id="Path_63183" data-name="Path 63183" d="M361.769,415.11v-3.647a4.219,4.219,0,0,0-2.69-.972h-.01c-.044,1.033-.286,3.866-1.6,5.387h4.518a1.521,1.521,0,0,1-.214-.768Z" transform="translate(-257.726 -375.691)" fill="#20776e"/>
      <path id="Path_63184" data-name="Path 63184" d="M268.858,475.8l-.6,2.7h2.12l-.6-2.7Z" transform="translate(-172.192 -438.311)" fill="#20776e"/>
      <path id="Path_63185" data-name="Path 63185" d="M325.037,446.73a4.619,4.619,0,0,1-1.236.786.38.38,0,0,1-.143.027.386.386,0,0,1-.175-.042.38.38,0,0,1-.18-.212l-.375.378.6,2.694a6.385,6.385,0,0,0,1.51-3.63Z" transform="translate(-224.612 -410.438)" fill="#20776e"/>
      <path id="Path_63186" data-name="Path 63186" d="M154.9,108.612a.761.761,0,0,1,.546.681,4.4,4.4,0,0,0,1.259,2.82,4.269,4.269,0,0,0,3.051,1.276,4.318,4.318,0,0,0,4-2.742,5.355,5.355,0,0,1,.077-6.135,3.051,3.051,0,0,0-2.049-1.864.344.344,0,0,0-.28.032,13.11,13.11,0,0,1-5.652,1.6h0a.346.346,0,0,0-.324.35v1.878a.384.384,0,1,1-.768,0c0-.161-.06-.644-.329-.74h0a.326.326,0,0,0-.3.038.341.341,0,0,0-.139.287,3.958,3.958,0,0,0,.322,2.031h0a.9.9,0,0,0,.588.49Z" transform="translate(-62.628 -80.51)" fill="#20776e"/>
      <path id="Path_63187" data-name="Path 63187" d="M387.33,116.612a4.617,4.617,0,1,0,1.352-3.259A4.612,4.612,0,0,0,387.33,116.612Zm3.187-1.425.384-.384h0a.384.384,0,0,1,.543.543l-.384.384a.384.384,0,0,1-.543-.543Zm2.69,0a.384.384,0,0,1,.543.543l-2.306,2.306a.384.384,0,0,1-.543-.543Zm-3.4-1.768h0a.384.384,0,0,1,.428.639,3.074,3.074,0,1,0,1.707-.521.384.384,0,1,1,0-.768,3.845,3.845,0,1,1-2.135.649Z" transform="translate(-286.362 -89.491)" fill="#20776e"/>
      <path id="Path_63188" data-name="Path 63188" d="M154.692,24.531l.072.028v-.442h0A1.114,1.114,0,0,1,155.822,23a12.44,12.44,0,0,0,5.261-1.468,1.1,1.1,0,0,1,.9-.137,3.945,3.945,0,0,1,2.417,1.938,5.405,5.405,0,0,1,.829-.684,5.8,5.8,0,0,0-1.39-2.276,5.7,5.7,0,0,0-4.077-1.706A5.8,5.8,0,0,0,154,24.494v.028a1.11,1.11,0,0,1,.7.009Z" transform="translate(-62.635)" fill="#20776e"/>
      <path id="Path_63189" data-name="Path 63189" d="M490.382,354.213c-.13,0-.257-.01-.384-.02v.788h.769v-.788C490.639,354.2,490.512,354.213,490.382,354.213Z" transform="translate(-384.802 -321.712)" fill="#20776e"/>
      <path id="Path_63190" data-name="Path 63190" d="M211.044,392.34a1.364,1.364,0,0,0-.922.461,2.347,2.347,0,0,0,1.315,1.67c.023-.052.053-.1.08-.144h0a.359.359,0,0,1,.025-.045,2.281,2.281,0,0,1,.785-.82,3.011,3.011,0,0,1-1.282-1.121Z" transform="translate(-116.45 -358.287)" fill="#20776e"/>
      <path id="Path_63191" data-name="Path 63191" d="M265.974,429.16a1.738,1.738,0,0,0-1.2.559l.593.593h1.219l.595-.595h0a1.7,1.7,0,0,0-1.2-.557Z" transform="translate(-168.848 -393.592)" fill="#20776e"/>
      <path id="Path_63192" data-name="Path 63192" d="M480.67,397.38a.769.769,0,0,0,1.537,0V392H480.67Z" transform="translate(-375.858 -357.962)" fill="#20776e"/>
    </g>
  </g>
</svg>
