<svg id="Group_46366" data-name="Group 46366" xmlns="http://www.w3.org/2000/svg" width="110.805" height="96.579" viewBox="0 0 110.805 96.579">
  <g id="Group_46349" data-name="Group 46349">
    <path id="Path_52594" data-name="Path 52594" d="M1371.463,694.562a48.342,48.342,0,0,1-19.953,39.105c-.229.167-.459.332-.692.491a48.355,48.355,0,0,1-47.587,4.4q-1.127-.513-2.225-1.084a48.209,48.209,0,0,1-10.05-6.94,48.289,48.289,0,1,1,80.507-35.971Z" transform="translate(-1274.882 -646.273)" fill="#f9ddbf"/>
    <g id="Group_46331" data-name="Group 46331" transform="translate(15.134 9.637)">
      <g id="Group_46330" data-name="Group 46330" transform="translate(0 0)">
        <path id="Path_52595" data-name="Path 52595" d="M1457.336,780.239a48.654,48.654,0,0,1-12.29,12.989c-.228.167-.459.332-.692.491-5.741-1.12-12.705-8.437-18.613-11.52a12.91,12.91,0,0,0-3.047-1.183c-3.426-.778-9.414,1.939-15.477,4.75a102.076,102.076,0,0,1-10.408,4.411c-.028.01-.054.02-.081.028-2.836.915-5.262,1.265-6.891.519a3.257,3.257,0,0,1-.865-.571,22.666,22.666,0,0,1-3.05-3.377c-3.667-5.1-4.572-12.339,8.487-21.045,4.2-2.8-14.827-1.873-6.9-21.97,5.465-13.853,15.692-28.677,29.421-28.284a24.014,24.014,0,0,1,11.733,3.81c4.691,2.993,11.388,16.612,14.883,25.623s-3.335,14.723,2.175,19.568C1451.468,769.533,1456.26,775.051,1457.336,780.239Z" transform="translate(-1383.553 -715.472)" fill="#233862"/>
        <path id="Path_52596" data-name="Path 52596" d="M1520.912,749.45s14.527-14.633,23.742-1.25c0,0,5.69-1.654,8.177,10.047,2.537,11.938-1.341,19.237-5.446,16.994-2.632-1.438-4.625,3.169-4.625,3.169Z" transform="translate(-1501.783 -738.787)" fill="#233862"/>
        <path id="Path_52597" data-name="Path 52597" d="M1512.97,1021.413c-.229.167-.459.332-.692.491a48.355,48.355,0,0,1-47.587,4.4q-1.127-.513-2.225-1.084a61.933,61.933,0,0,1,2.189-6.658v0l.078-.2a92.153,92.153,0,0,1,9.674-18.02.172.172,0,0,1,.03,0l.028,0,.052-.006h.006l.058-.006c.026,0,.052-.006.082-.008.08-.006.179-.016.294-.03.036,0,.069-.008.105-.01l.091-.008c.032,0,.06-.006.09-.008l.068-.006.072-.006.712-.066c1.833-.308,1.044-3.882,1.034-7.519,0-.819-.016-1.646-.036-2.452q-.006-.2-.012-.4c0-.121-.006-.241-.01-.358s-.006-.209-.01-.31c0-.04,0-.079,0-.117-.008-.259-.018-.511-.028-.76q-.012-.311-.024-.6c-.042-.938-.085-1.774-.123-2.436,0-.076-.008-.149-.012-.221a.076.076,0,0,1,0-.02c0-.046,0-.09-.008-.133-.006-.108-.014-.209-.02-.3,0-.068-.008-.129-.012-.189,0-.08-.008-.155-.014-.223a.189.189,0,0,0,0-.032c-.006-.105-.012-.193-.016-.262,0-.024,0-.046-.006-.066-.006-.078-.008-.117-.008-.117l13.888-2.75.837-.165.875-.173v.01c0,.915.012,1.8.042,2.653.336,9.692,2.672,15.31,4.46,15.781a14.141,14.141,0,0,0,3.631.706,12.944,12.944,0,0,1,3.4.6C1508.146,1003.2,1511.567,1011.435,1512.97,1021.413Z" transform="translate(-1451.477 -943.657)" fill="#ffb27d"/>
        <path id="Path_52598" data-name="Path 52598" d="M1565.266,984.734s.335,4.634.345,9c8.24-.232,12.595-7.749,14.38-11.915Z" transform="translate(-1539.96 -944.726)" fill="#e8945b"/>
        <path id="Path_52599" data-name="Path 52599" d="M1524.2,783.319s4.318-6.823,5.354-12.656c.74-4.165-1.381-19.6-16.9-17.38a21.076,21.076,0,0,0-8.741,3.3c-3.368,2.275-8.23,7.186-2.794,20.658l1.412,4.551Z" transform="translate(-1482.647 -747.83)" fill="#233862"/>
        <path id="Path_52600" data-name="Path 52600" d="M1505.378,829.126s19.495.322,19.508-11.822,2.539-20.28-9.908-21-14.87,3.912-15.86,7.964S1500.307,828.73,1505.378,829.126Z" transform="translate(-1482.824 -784.984)" fill="#ffb27d"/>
        <path id="Path_52601" data-name="Path 52601" d="M1550.688,779.374s5.338,14.247,13.529,16.353,11.745-.088,11.745-.088a23.2,23.2,0,0,1-7.587-13.7S1554.715,772.594,1550.688,779.374Z" transform="translate(-1527.412 -768.35)" fill="#233862"/>
        <path id="Path_52602" data-name="Path 52602" d="M1499.181,788.576a17.22,17.22,0,0,0-4.936,5.033c-1.778,2.71-3.551,5.116-3.287,10.481,0,0-4.021-9.683.5-15.161C1496.248,783.121,1499.181,788.576,1499.181,788.576Z" transform="translate(-1474.582 -776.395)" fill="#233862"/>
        <path id="Path_52603" data-name="Path 52603" d="M1453.153,1123.414c-3.482-4.643-14.751-5.373-14.751-5.373a.018.018,0,0,1,0,.006,31.945,31.945,0,0,1-6.851,10.659,16.372,16.372,0,0,1-2.157,1.736c-6.274,4.182-13.226,5.664-16.366,1.832a8.086,8.086,0,0,1-1.627-4.359c-.3-2.833,1.515-8.382,2.05-9.34.008-.012-.068-.01-.183,0l-.072.006-.068.006c-.03,0-.057,0-.089.008l-.091.008c-.036,0-.07.006-.105.01-.1.008-.207.02-.294.03-.03,0-.056,0-.082.008l-.058.006h-.006l-.052.006a.256.256,0,0,0-.028,0,.173.173,0,0,0-.03,0c-2.9.382-8.718,1.014-10.756,2.319l0,0c-.117.06-5.272,2.75-9.8,12.3q-.728,1.536-1.43,3.317a48.033,48.033,0,0,0,5.136,4.017,47.545,47.545,0,0,0,4.914,2.923q1.1.569,2.225,1.084a48.355,48.355,0,0,0,47.587-4.4c.232-.159.463-.324.692-.491a48.424,48.424,0,0,0,6.908-6.1C1456.408,1129.322,1454.893,1125.737,1453.153,1123.414Z" transform="translate(-1389.36 -1061.978)" fill="#f99746"/>
      </g>
    </g>
    <g id="Group_46343" data-name="Group 46343" transform="translate(25.234 21.255)" opacity="0.5">
      <g id="Group_46336" data-name="Group 46336" transform="translate(0 0)">
        <g id="Group_46332" data-name="Group 46332">
          <path id="Path_52604" data-name="Path 52604" d="M1513,852.569a1.072,1.072,0,1,1,1.072,1.072A1.072,1.072,0,0,1,1513,852.569Z" transform="translate(-1505.073 -844.172)" fill="#fff"/>
          <path id="Path_52605" data-name="Path 52605" d="M1513,954.078a1.072,1.072,0,1,1,1.072,1.072A1.072,1.072,0,0,1,1513,954.078Z" transform="translate(-1505.073 -931.544)" fill="#fff"/>
          <path id="Path_52606" data-name="Path 52606" d="M1513,905.168a1.072,1.072,0,1,1,1.072,1.072A1.072,1.072,0,0,1,1513,905.168Z" transform="translate(-1505.073 -889.445)" fill="#fff"/>
          <path id="Path_52607" data-name="Path 52607" d="M1456.08,905.168a1.072,1.072,0,1,1,1.072,1.072A1.072,1.072,0,0,1,1456.08,905.168Z" transform="translate(-1456.08 -889.445)" fill="#fff"/>
          <path id="Path_52608" data-name="Path 52608" d="M1575.757,852.569a1.072,1.072,0,1,1,1.072,1.072A1.072,1.072,0,0,1,1575.757,852.569Z" transform="translate(-1559.09 -844.172)" fill="#fff"/>
          <path id="Path_52609" data-name="Path 52609" d="M1575.757,905.168a1.072,1.072,0,1,1,1.072,1.072A1.072,1.072,0,0,1,1575.757,905.168Z" transform="translate(-1559.09 -889.445)" fill="#fff"/>
          <path id="Path_52610" data-name="Path 52610" d="M1575.757,954.078a1.072,1.072,0,1,1,1.072,1.072A1.072,1.072,0,0,1,1575.757,954.078Z" transform="translate(-1559.09 -931.544)" fill="#fff"/>
          <path id="Path_52611" data-name="Path 52611" d="M1575.757,1005.916a1.072,1.072,0,1,1,1.072,1.072A1.072,1.072,0,0,1,1575.757,1005.916Z" transform="translate(-1559.09 -976.163)" fill="#fff"/>
          <path id="Path_52612" data-name="Path 52612" d="M1640.962,905.168a1.072,1.072,0,1,1,1.072,1.072A1.072,1.072,0,0,1,1640.962,905.168Z" transform="translate(-1615.215 -889.445)" fill="#fff"/>
          <path id="Path_52613" data-name="Path 52613" d="M1687.4,905.168a1.072,1.072,0,1,1,1.072,1.072A1.072,1.072,0,0,1,1687.4,905.168Z" transform="translate(-1655.188 -889.445)" fill="#fff"/>
          <path id="Path_52614" data-name="Path 52614" d="M1640.962,954.078a1.072,1.072,0,1,1,1.072,1.072A1.072,1.072,0,0,1,1640.962,954.078Z" transform="translate(-1615.215 -931.544)" fill="#fff"/>
          <path id="Path_52615" data-name="Path 52615" d="M1575.757,799.968a1.072,1.072,0,1,1,1.072,1.072A1.072,1.072,0,0,1,1575.757,799.968Z" transform="translate(-1559.09 -798.896)" fill="#fff"/>
          <path id="Path_52616" data-name="Path 52616" d="M1638.514,852.569a1.072,1.072,0,1,1,1.072,1.072A1.072,1.072,0,0,1,1638.514,852.569Z" transform="translate(-1613.107 -844.172)" fill="#fff"/>
        </g>
        <g id="Group_46333" data-name="Group 46333" transform="translate(8.86 1.072)">
          <path id="Path_52617" data-name="Path 52617" d="M1519.7,828.34V813.919h.278v13.852l8.462-6.595V806.594h.278v14.718Z" transform="translate(-1519.699 -806.594)" fill="#fff"/>
        </g>
        <g id="Group_46334" data-name="Group 46334" transform="translate(0.865 0.891)">
          <path id="Path_52618" data-name="Path 52618" d="M1479.161,834.333l-9.125-7.537h8.987v-6.534h-8.983l9.12-7.644,9.221,7.439v6.53l6.138-6.464-6.714-7.223-8.644-7.245-8.651,7.25-7.809,7.216,7.35,6.488-.184.208-7.581-6.692,8.04-7.43,8.834-7.4L1488,812.7l6.9,7.421-6.52,6.866v.083h-.09Zm-8.352-7.259,8.355,6.9,8.681-6.9Zm8.492-.278h8.8V820.19l-8.94-7.212-8.359,7.006h8.5Z" transform="translate(-1462.289 -805.292)" fill="#fff"/>
        </g>
        <g id="Group_46335" data-name="Group 46335" transform="translate(17.6 16.061)">
          <path id="Path_52619" data-name="Path 52619" d="M1582.734,927.917h-.278v-7.289l8.539-6.4.167.222-8.428,6.32Z" transform="translate(-1582.456 -914.225)" fill="#fff"/>
        </g>
      </g>
      <g id="Group_46337" data-name="Group 46337" transform="translate(1.745 15.584)">
        <rect id="Rectangle_12242" data-name="Rectangle 12242" width="6.495" height="0.278" fill="#fff"/>
      </g>
      <g id="Group_46338" data-name="Group 46338" transform="translate(18.811 15.584)">
        <rect id="Rectangle_12243" data-name="Rectangle 12243" width="7.411" height="0.278" fill="#fff"/>
      </g>
      <g id="Group_46339" data-name="Group 46339" transform="translate(9.457 8.258)">
        <path id="Path_52620" data-name="Path 52620" d="M1541.481,865.218l-.6-6.745h-16.894V858.2h17.149l.625,7Z" transform="translate(-1523.985 -858.196)" fill="#fff"/>
      </g>
      <g id="Group_46340" data-name="Group 46340" transform="translate(17.515 8.291)">
        <path id="Path_52621" data-name="Path 52621" d="M1591.069,872.783l-9.221-6.917,8.874-7.438.178.213-8.605,7.213,8.941,6.706Z" transform="translate(-1581.849 -858.429)" fill="#fff"/>
      </g>
      <g id="Group_46341" data-name="Group 46341" transform="translate(8.913 8.288)">
        <rect id="Rectangle_12244" data-name="Rectangle 12244" width="0.278" height="11.117" transform="matrix(0.618, -0.786, 0.786, 0.618, 0, 0.218)" fill="#fff"/>
      </g>
      <g id="Group_46342" data-name="Group 46342" transform="translate(26.819 15.584)">
        <rect id="Rectangle_12245" data-name="Rectangle 12245" width="6.818" height="0.278" fill="#fff"/>
      </g>
    </g>
    <g id="Group_46348" data-name="Group 46348" transform="translate(14.347 16.878)">
      <g id="Group_46344" data-name="Group 46344" transform="translate(0 0.32)">
        <path id="Path_52622" data-name="Path 52622" d="M1380.251,776.947h-2.345v-7.178h7.818v2.345h-5.473Z" transform="translate(-1377.905 -769.769)" fill="#fff"/>
      </g>
      <g id="Group_46345" data-name="Group 46345" transform="translate(59.154)">
        <path id="Path_52623" data-name="Path 52623" d="M1809.845,775.288H1807.5v-5.473h-4.832V767.47h7.178Z" transform="translate(-1802.668 -767.47)" fill="#fff"/>
      </g>
      <g id="Group_46346" data-name="Group 46346" transform="translate(58.514 46.323)">
        <path id="Path_52624" data-name="Path 52624" d="M1805.886,1107.275h-7.818v-2.345h5.473V1100.1h2.345Z" transform="translate(-1798.068 -1100.098)" fill="#fff"/>
      </g>
      <g id="Group_46347" data-name="Group 46347" transform="translate(0 46.003)">
        <path id="Path_52625" data-name="Path 52625" d="M1385.083,1105.616h-7.178V1097.8h2.345v5.473h4.832Z" transform="translate(-1377.905 -1097.798)" fill="#fff"/>
      </g>
    </g>
  </g>
  <path id="Path_51387" data-name="Path 51387" d="M171.9,78.575a1.5,1.5,0,0,0-2.151,0l-9.512,9.512-9.512-9.512a1.521,1.521,0,1,0-2.151,2.151l9.512,9.512-9.512,9.512a1.5,1.5,0,0,0,0,2.151,1.542,1.542,0,0,0,2.151,0l9.512-9.512,9.512,9.512a1.542,1.542,0,0,0,2.151,0,1.5,1.5,0,0,0,0-2.151l-9.512-9.512,9.512-9.512a1.564,1.564,0,0,0,0-2.151Z" transform="translate(-61.55 -57.26)" fill="red"/>
</svg>
