<svg id="noun-upload-5108658" xmlns="http://www.w3.org/2000/svg" width="25" height="23.593" viewBox="0 0 25 23.593">
  <path id="Path_51239" data-name="Path 51239" d="M90.276,47.943a1.389,1.389,0,0,0-2.778,0v6.528a1.389,1.389,0,0,0,1.389,1.389h22.222a1.389,1.389,0,0,0,1.389-1.389V47.943a1.389,1.389,0,0,0-2.778,0v5.139H90.276Zm12.61-9.437-1.5-1.5V48.975a1.389,1.389,0,0,1-2.778,0V37.008l-1.5,1.5a1.389,1.389,0,0,1-1.964-1.964l3.869-3.869a1.388,1.388,0,0,1,1.964,0l3.87,3.869a1.389,1.389,0,1,1-1.964,1.964Z" transform="translate(-87.498 -32.267)" fill="#8ebab5" fill-rule="evenodd"/>
</svg>
