<svg xmlns="http://www.w3.org/2000/svg" width="28.304" height="32" viewBox="0 0 28.304 32">
  <g id="noun-webcam-1251634" transform="translate(-112.742 -11.762)">
    <path id="Path_50815" data-name="Path 50815" d="M126.894,11.762a14.146,14.146,0,0,0-7.579,26.094l-2.368,3.872a1.336,1.336,0,0,0,1.139,2.034H135.7a1.336,1.336,0,0,0,1.139-2.034l-2.368-3.872a14.146,14.146,0,0,0-7.579-26.094Zm6.424,29.328H120.471l1.233-2a14.1,14.1,0,0,0,10.385,0ZM126.894,37.4a11.494,11.494,0,1,1,8.114-3.366,11.48,11.48,0,0,1-8.114,3.366Z" transform="translate(0 0)" fill="#3b5854"/>
    <path id="Path_50816" data-name="Path 50816" d="M194.231,83.383a9.891,9.891,0,1,0,6.984,2.9,9.879,9.879,0,0,0-6.984-2.9Zm0,17.073a7.216,7.216,0,1,1,5.089-2.108,7.207,7.207,0,0,1-5.089,2.108Z" transform="translate(-67.336 -67.349)" fill="#849694"/>
    <path id="Path_50817" data-name="Path 50817" d="M286.02,180.99a4.061,4.061,0,1,0,2.868,1.189A4.058,4.058,0,0,0,286.02,180.99Zm0,5.445a1.386,1.386,0,1,1,.98-.406A1.39,1.39,0,0,1,286.02,186.435Z" transform="translate(-159.125 -159.134)" fill="#849694"/>
  </g>
</svg>
