<svg xmlns="http://www.w3.org/2000/svg" width="26.182" height="32" viewBox="0 0 26.182 32">
  <g id="noun-microphone-5114784" transform="translate(-139.996 -23.334)">
    <path id="Path_50819" data-name="Path 50819" d="M153.087,271.208A13.1,13.1,0,0,1,140,258.117a1.455,1.455,0,1,1,2.909,0,10.182,10.182,0,0,0,20.364,0,1.455,1.455,0,0,1,2.91,0,13.105,13.105,0,0,1-13.092,13.091Z" transform="translate(0 -218.784)" fill="#3b5854"/>
    <path id="Path_50820" data-name="Path 50820" d="M218.727,48.061A8.737,8.737,0,0,1,210,39.334V32.061a8.727,8.727,0,0,1,17.455,0v7.273a8.736,8.736,0,0,1-8.727,8.727Zm0-21.818a5.818,5.818,0,0,0-5.818,5.818v7.273a5.818,5.818,0,0,0,11.637,0V32.061a5.818,5.818,0,0,0-5.819-5.818Z" transform="translate(-65.64 0)" fill="#849694"/>
    <path id="Path_50821" data-name="Path 50821" d="M328.123,449.155a1.455,1.455,0,0,1-1.455-1.455v-2.909a1.455,1.455,0,1,1,2.909,0V447.7h0a1.455,1.455,0,0,1-1.454,1.455Z" transform="translate(-175.035 -393.821)" fill="#3b5854"/>
  </g>
</svg>
