<svg xmlns="http://www.w3.org/2000/svg" xmlns:xlink="http://www.w3.org/1999/xlink" width="124" height="148.943" viewBox="0 0 124 148.943">
  <defs>
    <linearGradient id="linear-gradient" x1="0.666" y1="0.729" x2="1.474" y2="1.845" gradientUnits="objectBoundingBox">
      <stop offset="0" stop-color="#fe7062"/>
      <stop offset="1" stop-color="#ff928e"/>
    </linearGradient>
    <linearGradient id="linear-gradient-2" x1="0.764" y1="0.768" x2="1.974" y2="2.07" xlink:href="#linear-gradient"/>
  </defs>
  <g id="Group_66773" data-name="Group 66773" transform="translate(-1311.402 -306)">
    <g id="Group_66776" data-name="Group 66776">
      <g id="Group_46373" data-name="Group 46373" transform="translate(792.235 186.119)">
        <circle id="Ellipse_1933" data-name="Ellipse 1933" cx="48.049" cy="48.049" r="48.049" transform="translate(532.665 215.98) rotate(-90)" fill="url(#linear-gradient)"/>
        <ellipse id="Ellipse_1934" data-name="Ellipse 1934" cx="42.375" cy="42.375" rx="42.375" ry="42.375" transform="translate(538.156 125.739)" fill="#ffdda9"/>
        <g id="Group_46371" data-name="Group 46371" transform="translate(550.487 133.932)">
          <g id="Group_46370" data-name="Group 46370" transform="translate(0 0)">
            <path id="Path_52675" data-name="Path 52675" d="M777.1,284.6c-4.545,8.57-20.258,38.109-26.311,48.307a2.229,2.229,0,0,1-2.841,1.055c-4.736-2.409-21.986-11.441-29.362-16.043a3.767,3.767,0,0,1-.959-5.024c4.8-8.978,18.4-34.176,25.616-45.169a3.074,3.074,0,0,1,3.643-1.38c5.379,2.226,23.257,10.3,29.532,14.456A2.894,2.894,0,0,1,777.1,284.6Z" transform="translate(-717.085 -266.155)" fill="#f6ab39"/>
            <path id="Path_52676" data-name="Path 52676" d="M822.806,313.143c-3.564,6.975-15.462,30.157-20.4,38.427a2.564,2.564,0,0,1-3.194,1.227c-4.486-2.115-19.594-9.686-25.6-13.815a2.884,2.884,0,0,1-.69-3.695c3.569-7.154,14.459-28.844,19.337-37.026a2.85,2.85,0,0,1,3.457-1.387c4.949,2.117,21.267,9.687,26.462,13.035A2.47,2.47,0,0,1,822.806,313.143Z" transform="translate(-766.31 -293.256)" fill="#ffdda9"/>
            <path id="Path_52677" data-name="Path 52677" d="M1101.628,335.058h0a.528.528,0,0,1-.667.267c-1.133-.544-4.324-2.075-5.755-2.75a.535.535,0,0,1-.11-.822l.039-.048a.514.514,0,0,1,.591-.187,52.283,52.283,0,0,1,5.775,2.829A.527.527,0,0,1,1101.628,335.058Z" transform="translate(-1052.444 -324.135)" fill="#c49145"/>
          </g>
        </g>
        <g id="Group_46372" data-name="Group 46372" transform="translate(561.325 145.191)">
          <path id="Path_52678" data-name="Path 52678" d="M927.58,388.87l2.2-.77a10.883,10.883,0,0,0,2.871,1.6l.5,2.274a.421.421,0,0,0,.362.328l2.919.342a.423.423,0,0,0,.429-.235l1.01-2.1a10.876,10.876,0,0,0,3.164-.9l1.962,1.257a.422.422,0,0,0,.488-.024l2.306-1.822a.422.422,0,0,0,.136-.47l-.77-2.2a10.868,10.868,0,0,0,1.6-2.871l2.275-.5a.421.421,0,0,0,.328-.362l.342-2.919a.421.421,0,0,0-.236-.428l-2.1-1.01a10.873,10.873,0,0,0-.9-3.164l1.257-1.961a.421.421,0,0,0-.024-.488l-1.822-2.306a.422.422,0,0,0-.469-.136l-2.2.77a10.871,10.871,0,0,0-2.871-1.6l-.5-2.275a.421.421,0,0,0-.362-.328l-2.919-.342a.436.436,0,0,0-.051,0,.421.421,0,0,0-.378.238l-1.01,2.1a10.872,10.872,0,0,0-3.164.9L930,368.21a.421.421,0,0,0-.488.024l-2.306,1.822a.421.421,0,0,0-.137.47l.77,2.2a10.874,10.874,0,0,0-1.6,2.871l-2.275.5a.421.421,0,0,0-.328.362l-.342,2.919a.421.421,0,0,0,.236.428l2.1,1.01a10.887,10.887,0,0,0,.9,3.164l-1.257,1.961a.421.421,0,0,0,.024.488l1.822,2.306A.421.421,0,0,0,927.58,388.87Zm-.558-4.859-.051-.11a10.443,10.443,0,0,1-.924-3.259l-.014-.12-2.305-1.1.328-2.9,2.511-.549.041-.114a10.439,10.439,0,0,1,1.653-2.957l.076-.095-.856-2.407,2.285-1.821,2.165,1.388.11-.052a10.43,10.43,0,0,1,3.259-.924l.12-.014,1.1-2.305,2.9.328.549,2.511.114.041a10.439,10.439,0,0,1,2.957,1.653l.095.075,2.407-.855,1.821,2.285-1.388,2.165.052.11a10.437,10.437,0,0,1,.924,3.259l.014.12,2.305,1.1-.341,2.906-2.5.547-.041.114a10.437,10.437,0,0,1-1.653,2.957l-.075.095.856,2.407-2.285,1.821-2.165-1.388-.11.052a10.433,10.433,0,0,1-3.258.924l-.12.014-1.1,2.305-2.9-.328-.549-2.511-.114-.041a10.441,10.441,0,0,1-2.957-1.653l-.095-.075-2.407.855-1.821-2.285Z" transform="translate(-910.927 -366.233)" fill="#c79344"/>
          <path id="Path_52679" data-name="Path 52679" d="M981.705,433.53a7.312,7.312,0,0,0,8.113-6.411,7.362,7.362,0,0,0,.017-1.556.22.22,0,1,0-.437.042,6.927,6.927,0,0,1-.016,1.463,6.87,6.87,0,1,1-2.634-6.248.22.22,0,0,0,.268-.348,7.3,7.3,0,0,0-3.609-1.466,7.413,7.413,0,0,0-.9-.051,7.313,7.313,0,0,0-.807,14.575Z" transform="translate(-957.039 -413.023)" fill="#c79344"/>
          <path id="Path_52680" data-name="Path 52680" d="M1018.37,458.486a2.833,2.833,0,1,0,1.019.187A2.823,2.823,0,0,0,1018.37,458.486Zm2.246,3.682a2.39,2.39,0,1,1-1.383-3.084A2.393,2.393,0,0,1,1020.616,462.168Z" transform="translate(-992.812 -448.107)" fill="#c79344"/>
          <path id="Path_52681" data-name="Path 52681" d="M843.5,562.79a3.668,3.668,0,0,0,.233-.737.22.22,0,1,0-.431-.087,3.192,3.192,0,1,1-1.854-3.553,3.185,3.185,0,0,1,1.321,1.07.22.22,0,1,0,.358-.255,3.631,3.631,0,1,0,.373,3.562Z" transform="translate(-833.938 -536.165)" fill="#c79344"/>
          <path id="Path_52682" data-name="Path 52682" d="M814.266,543.723l1.058-.045a5.347,5.347,0,0,0,1.035,1.076l-.084,1.055a.317.317,0,0,0,.189.315l1.3.565a.316.316,0,0,0,.36-.076l.716-.779a5.343,5.343,0,0,0,1.493.027l.687.806a.317.317,0,0,0,.356.089l1.316-.517a.317.317,0,0,0,.2-.308l-.044-1.058a5.347,5.347,0,0,0,1.076-1.035l1.055.084a.317.317,0,0,0,.315-.189l.565-1.3a.316.316,0,0,0-.076-.36l-.779-.716a5.335,5.335,0,0,0,.027-1.493l.806-.687a.317.317,0,0,0,.089-.357l-.516-1.316a.318.318,0,0,0-.308-.2l-1.058.045a5.345,5.345,0,0,0-1.035-1.076l.084-1.055a.317.317,0,0,0-.189-.315l-1.3-.565a.316.316,0,0,0-.359.076l-.716.779a5.361,5.361,0,0,0-1.493-.027l-.687-.806a.317.317,0,0,0-.357-.089l-1.316.516a.317.317,0,0,0-.2.308l.045,1.058a5.342,5.342,0,0,0-1.076,1.036l-1.055-.084a.315.315,0,0,0-.315.189l-.565,1.3a.316.316,0,0,0,.076.36l.779.716a5.34,5.34,0,0,0-.027,1.493l-.806.687a.317.317,0,0,0-.089.357l.516,1.316A.321.321,0,0,0,814.266,543.723Zm-.383-1.6.922-.787-.017-.12a4.9,4.9,0,0,1,.029-1.592l.022-.119-.892-.82.5-1.135,1.208.1.073-.1a4.906,4.906,0,0,1,1.147-1.1l.1-.069-.051-1.211,1.153-.452.786.922.12-.017a4.9,4.9,0,0,1,1.592.029l.119.022.82-.892,1.135.5-.1,1.208.1.073a4.907,4.907,0,0,1,1.1,1.147l.069.1,1.211-.051.452,1.153-.922.786.017.12a4.9,4.9,0,0,1-.029,1.592l-.022.119.892.82-.5,1.135-1.208-.1-.073.1a4.9,4.9,0,0,1-1.147,1.1l-.1.069.051,1.211-1.153.453-.787-.922-.12.017a4.921,4.921,0,0,1-1.592-.029l-.119-.022-.82.892-1.135-.5.1-1.208-.1-.073a4.91,4.91,0,0,1-1.1-1.147l-.069-.1-1.211.051Z" transform="translate(-813.42 -515.351)" fill="#c79344"/>
        </g>
        <path id="Path_52683" data-name="Path 52683" d="M777.007,296.589l50.716,73.023,3.441-4.008-49.59-72.281Z" transform="translate(-223.554 -163.354)" fill="url(#linear-gradient-2)"/>
      </g>
      <g id="Group_46361" data-name="Group 46361" transform="translate(1275.402 414.943)">
        <g id="Group_45897" data-name="Group 45897" transform="translate(0 0)">
          <text id="Foreign_Object_Detected" data-name="Foreign Object 
Detected" transform="translate(98 11)" fill="#c22f2f" stroke="rgba(0,0,0,0)" stroke-width="1" font-size="16" font-family="Poppins-Medium, Poppins" font-weight="500"><tspan x="-60" y="0">Foreign Object </tspan><tspan x="-36" y="22">Detected</tspan></text>
        </g>
      </g>
    </g>
  </g>
</svg>
