<svg xmlns="http://www.w3.org/2000/svg" xmlns:xlink="http://www.w3.org/1999/xlink" width="100" zoomAndPan="magnify" viewBox="0 0 75 74.999997" height="100" preserveAspectRatio="xMidYMid meet" version="1.0"><defs><clipPath id="4e204e0b98"><path d="M 35 3 L 40 3 L 40 72 L 35 72 Z M 35 3 " clip-rule="nonzero"/></clipPath><clipPath id="81dfec663d"><path d="M 2.515625 36.839844 L 38.222656 2.558594 L 71.984375 37.722656 L 36.277344 72.003906 Z M 2.515625 36.839844 " clip-rule="nonzero"/></clipPath><clipPath id="e7e3a066f6"><path d="M 2.515625 36.839844 L 38.222656 2.558594 L 71.984375 37.722656 L 36.277344 72.003906 Z M 2.515625 36.839844 " clip-rule="nonzero"/></clipPath><clipPath id="9f99eb156f"><path d="M 2.515625 36.839844 L 38.222656 2.558594 L 71.984375 37.722656 L 36.277344 72.003906 Z M 2.515625 36.839844 " clip-rule="nonzero"/></clipPath></defs><g clip-path="url(#4e204e0b98)"><g clip-path="url(#81dfec663d)"><g clip-path="url(#e7e3a066f6)"><g clip-path="url(#9f99eb156f)"><path fill="#383a47" d="M 37.476562 70.839844 C 37.265625 71.042969 37.011719 71.171875 36.722656 71.226562 C 36.433594 71.277344 36.152344 71.246094 35.886719 71.128906 C 35.617188 71.011719 35.402344 70.832031 35.246094 70.585938 C 35.089844 70.335938 35.011719 70.066406 35.019531 69.773438 L 36.640625 4.785156 C 36.644531 4.59375 36.683594 4.40625 36.761719 4.230469 C 36.839844 4.050781 36.949219 3.894531 37.089844 3.761719 C 37.226562 3.625 37.386719 3.523438 37.566406 3.449219 C 37.75 3.378906 37.9375 3.34375 38.128906 3.347656 C 38.320312 3.351562 38.507812 3.390625 38.683594 3.46875 C 38.859375 3.546875 39.015625 3.652344 39.148438 3.792969 C 39.28125 3.933594 39.382812 4.089844 39.453125 4.273438 C 39.519531 4.453125 39.550781 4.636719 39.546875 4.832031 L 37.929688 69.820312 C 37.917969 70.21875 37.769531 70.5625 37.476562 70.839844 Z M 37.476562 70.839844 " fill-opacity="1" fill-rule="nonzero"/></g></g></g></g></svg>