<svg xmlns="http://www.w3.org/2000/svg" width="22.662" height="22.021" viewBox="0 0 22.662 22.021">
  <g id="Group_66677" data-name="Group 66677" transform="translate(4659 1298)">
    <g id="Group_66688" data-name="Group 66688">
      <g id="Group_66690" data-name="Group 66690">
        <g id="Path_63298" data-name="Path 63298" transform="translate(-4659 -1298)" fill="#fff">
          <path d="M 18.02115821838379 21.52115821838379 L 3.999998092651367 21.52115821838379 C 2.070088148117065 21.52115821838379 0.499998152256012 19.95106887817383 0.499998152256012 18.02115821838379 L 0.499998152256012 3.999998092651367 C 0.499998152256012 2.070088148117065 2.070088148117065 0.499998152256012 3.999998092651367 0.499998152256012 L 18.02115821838379 0.499998152256012 C 19.95106887817383 0.499998152256012 21.52115821838379 2.070088148117065 21.52115821838379 3.999998092651367 L 21.52115821838379 18.02115821838379 C 21.52115821838379 19.95106887817383 19.95106887817383 21.52115821838379 18.02115821838379 21.52115821838379 Z" stroke="none"/>
          <path d="M 3.999998092651367 0.9999980926513672 C 2.345788955688477 0.9999980926513672 0.9999980926513672 2.345788955688477 0.9999980926513672 3.999998092651367 L 0.9999980926513672 18.02115821838379 C 0.9999980926513672 19.67536735534668 2.345788955688477 21.02115821838379 3.999998092651367 21.02115821838379 L 18.02115821838379 21.02115821838379 C 19.67536735534668 21.02115821838379 21.02115821838379 19.67536735534668 21.02115821838379 18.02115821838379 L 21.02115821838379 3.999998092651367 C 21.02115821838379 2.345788955688477 19.67536735534668 0.9999980926513672 18.02115821838379 0.9999980926513672 L 3.999998092651367 0.9999980926513672 M 3.999998092651367 -1.9073486328125e-06 L 18.02115821838379 -1.9073486328125e-06 C 20.23029899597168 -1.9073486328125e-06 22.02115821838379 1.790857315063477 22.02115821838379 3.999998092651367 L 22.02115821838379 18.02115821838379 C 22.02115821838379 20.23029899597168 20.23029899597168 22.02115821838379 18.02115821838379 22.02115821838379 L 3.999998092651367 22.02115821838379 C 1.790857315063477 22.02115821838379 -1.9073486328125e-06 20.23029899597168 -1.9073486328125e-06 18.02115821838379 L -1.9073486328125e-06 3.999998092651367 C -1.9073486328125e-06 1.790857315063477 1.790857315063477 -1.9073486328125e-06 3.999998092651367 -1.9073486328125e-06 Z" stroke="none" fill="#f6ab39"/>
        </g>
        <g id="Group_66689" data-name="Group 66689" transform="translate(-4656.26 -1297.587)">
          <g id="Layer_2" data-name="Layer 2" transform="translate(1.25 3.585)">
            <g id="_ÎÓÈ_1" data-name="—ÎÓÈ 1" transform="translate(0 0)">
              <circle id="Ellipse_2868" data-name="Ellipse 2868" cx="7" cy="7" r="7" fill="#485a69"/>
              <path id="Path_63263" data-name="Path 63263" d="M23.242,38.592l3.606.047v2.926l-3.6-.027Z" transform="translate(-17.977 -29.849)" fill="#f9dca4" fill-rule="evenodd"/>
              <path id="Path_63264" data-name="Path 63264" d="M18.336,44.531a6.981,6.981,0,0,1-5.115,2.222,7.071,7.071,0,0,1-.869-.054,6.955,6.955,0,0,1-2.529-.826,7.03,7.03,0,0,1-1.78-1.41l.291-.7,3.155-1.407c0,1.027.417,1.394,1.806,1.415,1.715.026,1.8-.364,1.8-1.423l2.9,1.423Z" transform="translate(-6.221 -32.753)" fill="#d5e1ed" fill-rule="evenodd"/>
              <path id="Path_63265" data-name="Path 63265" d="M26.849,38.634v.771a2.067,2.067,0,0,1-3.607-.813Z" transform="translate(-17.977 -29.849)" fill-rule="evenodd" opacity="0.11"/>
              <path id="Path_63266" data-name="Path 63266" d="M21.229,8.432c4.821,0,2.942,7.989,0,7.989C18.45,16.421,16.408,8.432,21.229,8.432Z" transform="translate(-14.177 -6.522)" fill="#ffe8be" fill-rule="evenodd"/>
              <path id="Path_63267" data-name="Path 63267" d="M17.273,24.045c-.7.3-.1,1.741.333,1.735a7.243,7.243,0,0,1-.333-1.735Z" transform="translate(-13.112 -18.598)" fill="#f9dca4" fill-rule="evenodd"/>
              <path id="Path_63268" data-name="Path 63268" d="M43,24.045c.7.3.1,1.741-.333,1.735A7.248,7.248,0,0,0,43,24.045Z" transform="translate(-33.003 -18.598)" fill="#f9dca4" fill-rule="evenodd"/>
              <path id="Path_63269" data-name="Path 63269" d="M23.345,11.517s.241-1.975-.456-2.662c-.3.8-1.7,1.072-1.7,1.072a3.765,3.765,0,0,0,.728-.668,3.8,3.8,0,0,1-2.63.263,5.372,5.372,0,0,0,.819-.607,3.589,3.589,0,0,1-1.912.395c-.678.506-.376,2.076-.376,2.076-.909-2.4-.072-5.144,2.8-5.16,2.8-.016,3.663,2.684,2.723,5.291Z" transform="translate(-13.511 -4.815)" fill="#ecbe6a" fill-rule="evenodd"/>
              <path id="Path_63270" data-name="Path 63270" d="M20.3,42.179a3.94,3.94,0,0,0,1.8,1.46l-1.174,1.212L19.44,42.562Z" transform="translate(-15.036 -32.624)" fill="#fff" fill-rule="evenodd"/>
              <path id="Path_63271" data-name="Path 63271" d="M33,42.179a3.94,3.94,0,0,1-1.8,1.46l1.174,1.212,1.493-2.289Z" transform="translate(-24.134 -32.624)" fill="#fff" fill-rule="evenodd"/>
              <path id="Path_63272" data-name="Path 63272" d="M29.964,54.959q-.281.022-.567.022-.216,0-.429-.013l.234-1.984h.546Z" transform="translate(-22.405 -40.982)" fill="#3dbc93" fill-rule="evenodd"/>
              <path id="Path_63273" data-name="Path 63273" d="M28.472,49.277l.62-.638.62.638-.62.638Z" transform="translate(-22.022 -37.62)" fill="#3dbc93" fill-rule="evenodd"/>
            </g>
          </g>
          <path id="Path_63285" data-name="Path 63285" d="M3.843,0A3.843,3.843,0,1,0,7.686,3.843,3.847,3.847,0,0,0,3.843,0ZM3.518,1.422a.325.325,0,0,1,.651,0V4.613a.325.325,0,0,1-.651,0ZM3.843,6.43a.462.462,0,1,1,.47-.461A.466.466,0,0,1,3.843,6.43Z" transform="translate(12.236 1)" fill="#f04844"/>
        </g>
      </g>
    </g>
  </g>
</svg>
