<svg xmlns="http://www.w3.org/2000/svg" width="22.532" height="22.3" viewBox="0 0 22.532 22.3">
  <g id="Group_66756" data-name="Group 66756" transform="translate(7598.394 -1661.35)">
    <g id="noun-online-test-2671455" transform="translate(-7692.968 1634.142)">
      <path id="Path_63211" data-name="Path 63211" d="M115.411,100.93h-2.275a.756.756,0,0,1,.063.3v1.545h2.064v9.585H96.418v-9.585h2.064V100.93H96.271a1.7,1.7,0,0,0-1.7,1.692v11.233a1.7,1.7,0,0,0,1.7,1.7h19.141a1.7,1.7,0,0,0,1.7-1.7V102.622a1.7,1.7,0,0,0-1.7-1.692Zm-9.57,13.839a.953.953,0,1,1,.951-.955A.955.955,0,0,1,105.841,114.769Z" transform="translate(0 -70.47)" fill="#20776e"/>
      <path id="Path_63212" data-name="Path 63212" d="M213.643,448.662a.282.282,0,0,1-.251.159H200.755a.278.278,0,0,1-.251-.159.285.285,0,0,1,.037-.295l1.744-2.076a.286.286,0,0,1,.214-.1h1.508v-1.246h6.134v1.246h1.508a.273.273,0,0,1,.21.1l1.744,2.076a.278.278,0,0,1,.04.295Z" transform="translate(-101.233 -399.312)" fill="#20776e"/>
      <path id="Path_63213" data-name="Path 63213" d="M432.575,33.4l-2.534-2.537v3.114h3.11Z" transform="translate(-320.67 -3.49)" fill="#20776e"/>
      <path id="Path_63214" data-name="Path 63214" d="M205.764,31.036a.277.277,0,0,1-.277-.277V27.208h-9.506a.274.274,0,0,0-.277.277v13.85h13.611v-10.3Zm-8.146-.578h7.126v.553h-7.126Zm9.955,9.765-10-.1.006-.553,10,.1Zm.048-1.881h-10v-.553h10Zm-1.343-2.368,0,.553-7.323-.036,0-.553Zm-7.317-1.316,0-.553,7.324.036,0,.553Zm8.661-1.815h-10v-.553h10Z" transform="translate(-96.67)" fill="#20776e"/>
    </g>
  </g>
</svg>
