<svg id="noun-scan-4586494" xmlns="http://www.w3.org/2000/svg" width="32" height="32" viewBox="0 0 32 32">
  <path id="Path_51377" data-name="Path 51377" d="M121.47,49.868a1.6,1.6,0,0,0-1.6,1.6v4a1.6,1.6,0,0,1-3.2,0v-4a4.8,4.8,0,0,1,4.8-4.8h4a1.6,1.6,0,1,1,0,3.2Z" transform="translate(-116.67 -46.668)" fill="#0a2f2a"/>
  <path id="Path_51378" data-name="Path 51378" d="M431.67,48.268a1.6,1.6,0,0,1,1.6-1.6h4a4.8,4.8,0,0,1,4.8,4.8v4a1.6,1.6,0,0,1-3.2,0v-4a1.6,1.6,0,0,0-1.6-1.6h-4a1.6,1.6,0,0,1-1.6-1.6Z" transform="translate(-410.07 -46.668)" fill="#0a2f2a"/>
  <path id="Path_51379" data-name="Path 51379" d="M118.268,361.67a1.6,1.6,0,0,1,1.6,1.6v4a1.6,1.6,0,0,0,1.6,1.6h4a1.6,1.6,0,1,1,0,3.2h-4a4.8,4.8,0,0,1-4.8-4.8v-4A1.6,1.6,0,0,1,118.268,361.67Z" transform="translate(-116.668 -340.07)" fill="#0a2f2a"/>
  <path id="Path_51380" data-name="Path 51380" d="M451.332,361.67a1.6,1.6,0,0,1,1.6,1.6v4a4.8,4.8,0,0,1-4.8,4.8h-3.2a1.6,1.6,0,1,1,0-3.2h3.2a1.6,1.6,0,0,0,1.6-1.6v-4A1.6,1.6,0,0,1,451.332,361.67Z" transform="translate(-420.932 -340.07)" fill="#0a2f2a"/>
  <path id="Path_51381" data-name="Path 51381" d="M234.934,163.33a1.6,1.6,0,0,0-1.6,1.6v12.8a1.6,1.6,0,0,0,1.6,1.6h12.8a1.6,1.6,0,0,0,1.6-1.6v-12.8a1.6,1.6,0,0,0-1.6-1.6Z" transform="translate(-225.334 -155.33)" fill="#0a2f2a"/>
</svg>
