<svg xmlns="http://www.w3.org/2000/svg" width="18.016" height="18.834" viewBox="0 0 18.016 18.834">
  <g id="Group_66761" data-name="Group 66761" transform="translate(2682.008 13502.417)">
    <path id="noun-reload-4821454" d="M158.249,88.853a9,9,0,1,1-.005-18,9.083,9.083,0,0,1,3.352.638,1.57,1.57,0,0,1,1.345-1.462,1.517,1.517,0,0,1,.217-.015,1.579,1.579,0,0,1,1.559,1.348l.441,3.094a1.572,1.572,0,0,1-1.333,1.776l-3.1.441a1.725,1.725,0,0,1-.221.016,1.57,1.57,0,0,1-1.254-2.513c.023-.03.047-.06.071-.087a6,6,0,0,0-1.083-.1,5.816,5.816,0,0,0-4.144,1.7,5.869,5.869,0,1,0,9.964,3.351,1.573,1.573,0,0,1,1.345-1.768,1.494,1.494,0,0,1,.214-.015,1.574,1.574,0,0,1,1.553,1.357,9,9,0,0,1-8.925,10.229Z" transform="translate(-2831.251 -13572.436)" fill="#fff"/>
  </g>
</svg>
