<svg xmlns="http://www.w3.org/2000/svg" width="614" height="779.001" viewBox="0 0 614 779.001">
  <g id="Group_60973" data-name="Group 60973" transform="translate(-278 -94)">
    <rect id="Rectangle_12110" data-name="Rectangle 12110" width="614" height="779" rx="12" transform="translate(278 94)" fill="rgba(246,171,57,0.12)"/>
    <path id="Path_51529" data-name="Path 51529" d="M450.018,457.666c19.476-34.259,56.625-60.565,95.951-58.031a181.569,181.569,0,0,0-47.753,115.15c-.646,16.515.356,34.951-10.61,47.317-6.823,7.695-17.252,11.421-27.505,12.2s-20.506-1.071-30.624-2.916l-2.454.753C426.089,532.746,430.542,491.926,450.018,457.666Z" transform="translate(52.145 255.016)" fill="rgba(25,135,84,0.24)"/>
    <path id="Path_51534" data-name="Path 51534" d="M623.194,566.108c-.687.127-1.375.255-2.069.4a173.565,173.565,0,0,0-27.138,7.5c-.687.239-1.379.492-2.057.75a182.98,182.98,0,0,0-57.55,35.022,177.693,177.693,0,0,0-18.64,19.533c-7.884,9.632-15.665,20.7-25.967,26.983a30.487,30.487,0,0,1-3.317,1.8l-59.347-24.616c-.107-.124-.22-.234-.327-.358l-2.414-.875c.269-.38.557-.769.826-1.149.155-.221.324-.437.479-.658.108-.146.216-.291.305-.429.036-.049.072-.1.1-.132.089-.138.186-.256.269-.38q2.4-3.265,4.857-6.507c.006-.014.006-.014.024-.022,12.516-16.439,26.515-31.977,42.427-44.9.479-.389.963-.791,1.469-1.168a169.57,169.57,0,0,1,22.92-15.5,149.9,149.9,0,0,1,13.6-6.723,124.652,124.652,0,0,1,37.766-9.632c25.947-2.409,52.376,3.506,72.276,19.807C622.2,565.265,622.691,565.677,623.194,566.108Z" transform="translate(53.168 196.619)" fill="rgba(25,135,84,0.24)"/>
    <path id="Path_51539" data-name="Path 51539" d="M389.376,579.056c-8.311-40.187-18.7-53.585-18.7-53.585l-3.969-3.078-4.773-3.708.023-.477-1.132-.385-.266-.207-.436-.335-.07.075-.148.153-21.6-7.342-27.4-9.307-12.688-16.493a21.946,21.946,0,0,0-17.556-8.563l-40.523.3a21.946,21.946,0,0,0-14.762,5.856L198.74,506.667l-41.5,19.821-.07-.07-.436.311L150.32,529.8l.265,1.377-3.969,2.864s-10.389,12.467-18.7,49.861c-2.114,9.515-3.155,29.925-3.531,55.076a9.6,9.6,0,0,0,9.6,9.742H383.321a9.6,9.6,0,0,0,9.6-9.732C392.55,611.615,391.51,589.374,389.376,579.056Z" transform="translate(173.934 224.285)" fill="#26844e"/>
    <path id="Path_51540" data-name="Path 51540" d="M593.635,191.732a32.518,32.518,0,1,0,0,65.036H835.976a32.518,32.518,0,1,0,0-65.036Z" transform="translate(-1.885 338.645)" fill="#e5e5e5"/>
    <path id="Path_51541" data-name="Path 51541" d="M598.07,202.747a25.937,25.937,0,0,0,0,51.874H840.411a25.937,25.937,0,0,0,0-51.874Z" transform="translate(-6.318 334.211)" fill="#fff"/>
    <circle id="ab6171fa-7d69-4734-b81c-8dff60f9761b" cx="53.089" cy="53.089" r="53.089" transform="translate(387.607 578.689)" fill="#ffbe91"/>
    <path id="Path_51543" data-name="Path 51543" d="M257.352,259.683c2.685-2.142,5.823-4.113,9.256-4s6.914,3.211,6.2,6.572a54.556,54.556,0,0,1,65.654-24.619c8.532,3.01,16.9,9.033,18.86,17.866.5,2.267.611,4.754,2.027,6.595,1.785,2.321,5.2,2.847,8.013,2.03l.084-.025a2.508,2.508,0,0,1,3.031,3.541l-2.414,4.5a19.346,19.346,0,0,0,9.217-.2,2.506,2.506,0,0,1,2.661,3.9c-7.961,10.929-21.26,17.987-34.832,17.9-9.646-.059-19.391-3.383-28.779-1.165a25,25,0,0,0-16.814,35.093c-2.884-3.154-8.459-2.408-11.409.685s-3.714,7.709-3.416,11.973c.454,6.521,3.01,12.666,5.7,18.647-22.583-.711-43.944-16.553-51.134-37.979C232.043,299.488,239.611,273.836,257.352,259.683Z" transform="translate(128.779 321.42)" fill="#2f2e41"/>
    <path id="Path_51544" data-name="Path 51544" d="M87.464,495.253l14.89,81.015,8.934.778Z" transform="translate(263.105 295.953)" opacity="0.2"/>
    <path id="Path_51545" data-name="Path 51545" d="M345.953,485.026l-14.89,87.066-8.935.836Z" transform="translate(168.637 300.07)" opacity="0.2"/>
    <path id="Path_51546" data-name="Path 51546" d="M272.464,191.576a5.293,5.293,0,0,1-7.083-3.106,5.375,5.375,0,0,1,2.817-7.333c2.9-1.211,5.827.1,7.116,3.185A5.273,5.273,0,0,1,272.464,191.576Zm-5.469-16.418-2.27.948a2.449,2.449,0,0,1-3.11-1.141l-.112-.22c-2.443-4.405-2.722-9.759-.827-15.9,1.756-5.513,2.485-9.39,1.018-12.9-1.7-4.061-5.317-5.333-9.934-3.49-1.791.748-2.361.736-3.77,2.134a3.236,3.236,0,0,1-2.343.952,3.128,3.128,0,0,1-2.239-.982,3.2,3.2,0,0,1-.022-4.36,24.814,24.814,0,0,1,8.391-5.762c9.921-4.143,14.916,1.973,17.2,7.447,2.235,5.354.978,10.321-1.042,16.754-1.693,5.345-1.595,9.306.329,13.245a2.438,2.438,0,0,1-1.27,3.28Z" transform="translate(126.367 362.262)" fill="#14613e"/>
    <path id="Path_51547" data-name="Path 51547" d="M671.876,270.557H623.659a1.161,1.161,0,0,1,0-2.323h48.216a1.161,1.161,0,0,1,0,2.323Z" transform="translate(-26.594 307.848)" fill="#f8c474"/>
    <path id="Path_51548" data-name="Path 51548" d="M774.257,271.2H726.04a1.161,1.161,0,0,1,0-2.323h48.216a1.161,1.161,0,0,1,0,2.323Z" transform="translate(-67.811 307.586)" fill="#f8c474"/>
    <path id="Path_51549" data-name="Path 51549" d="M876.639,271.853H828.422a1.161,1.161,0,0,1,0-2.323h48.216a1.161,1.161,0,1,1,0,2.323Z" transform="translate(-109.027 307.326)" fill="#f8c474"/>
    <path id="Path_51550" data-name="Path 51550" d="M979.017,272.5H930.8a1.161,1.161,0,0,1,0-2.323h48.216a1.161,1.161,0,1,1,0,2.323Z" transform="translate(-150.242 307.064)" fill="#f8c474"/>
    <circle id="Ellipse_1878" data-name="Ellipse 1878" cx="8.961" cy="8.961" r="8.961" transform="translate(612.105 549.793)" fill="#f6ab39"/>
    <circle id="Ellipse_1879" data-name="Ellipse 1879" cx="8.961" cy="8.961" r="8.961" transform="translate(673.641 549.793)" fill="#f6ab39"/>
    <circle id="Ellipse_1880" data-name="Ellipse 1880" cx="8.961" cy="8.961" r="8.961" transform="translate(735.176 549.793)" fill="#f6ab39"/>
    <circle id="Ellipse_1881" data-name="Ellipse 1881" cx="8.961" cy="8.961" r="8.961" transform="translate(796.711 549.793)" fill="#f6ab39"/>
    <circle id="Ellipse_1882" data-name="Ellipse 1882" cx="82" cy="82" r="82" transform="translate(278 94)" fill="rgba(246,171,57,0.12)"/>
    <circle id="Ellipse_1883" data-name="Ellipse 1883" cx="54" cy="54" r="54" transform="translate(396 167)" fill="rgba(246,171,57,0.12)"/>
  </g>
</svg>
