<svg xmlns="http://www.w3.org/2000/svg" width="20.685" height="20.685" viewBox="0 0 20.685 20.685">
  <g id="Group_66755" data-name="Group 66755" transform="translate(7596.927 -1662.157)">
    <g id="noun-dashboard-2500511" transform="translate(-7680.925 1648.157)">
      <path id="Path_63204" data-name="Path 63204" d="M155.28,17.768V14a10.349,10.349,0,0,0-6.881,3.571l3.07,2.156a6.649,6.649,0,0,1,3.81-1.96Z" transform="translate(-61.898 -0.001)" fill="#20776e"/>
      <path id="Path_63205" data-name="Path 63205" d="M381.333,23.341H385.1A10.36,10.36,0,0,0,375.759,14v3.767a6.605,6.605,0,0,1,5.574,5.574Z" transform="translate(-280.417)" fill="#20776e"/>
      <path id="Path_63206" data-name="Path 63206" d="M87.721,152.419a6.554,6.554,0,0,1,.719-2.983l-3.07-2.156a10.352,10.352,0,0,0,4.681,14.567l1.241-3.549a6.618,6.618,0,0,1-3.571-5.879Z" transform="translate(0 -128.098)" fill="#20776e"/>
      <path id="Path_63207" data-name="Path 63207" d="M289.739,310.3a7.468,7.468,0,0,1-1.219-.109l-1.241,3.527a10.156,10.156,0,0,0,2.46.3,10.364,10.364,0,0,0,10.321-9.384h-3.767a6.619,6.619,0,0,1-6.554,5.661Z" transform="translate(-195.377 -279.337)" fill="#20776e"/>
      <path id="Path_63208" data-name="Path 63208" d="M266.657,190.093a.8.8,0,1,0-1.132-1.132l-5.443,5.443a.8.8,0,1,0,1.132,1.132Z" transform="translate(-169.007 -167.928)" fill="#20776e"/>
      <path id="Path_63209" data-name="Path 63209" d="M261.893,189.465a1.306,1.306,0,1,1-1.307-1.307,1.306,1.306,0,0,1,1.307,1.307" transform="translate(-168.467 -167.386)" fill="#20776e"/>
      <path id="Path_63210" data-name="Path 63210" d="M377.253,304.825a1.306,1.306,0,1,1-1.307-1.307,1.306,1.306,0,0,1,1.307,1.307" transform="translate(-279.341 -278.261)" fill="#20776e"/>
    </g>
  </g>
</svg>
