<svg xmlns="http://www.w3.org/2000/svg" width="21.113" height="21.113" viewBox="0 0 21.113 21.113">
  <g id="Group_66760" data-name="Group 66760" transform="translate(9981.826 12460)">
    <g id="noun-dashboard-4527077" transform="translate(-10130.576 -12538.75)">
      <path id="Path_63175" data-name="Path 63175" d="M148.75,253.75h9.18v11.934h-5.508a3.672,3.672,0,0,1-3.672-3.672Z" transform="translate(0 -165.82)" fill="#20776e"/>
      <path id="Path_63176" data-name="Path 63176" d="M152.422,78.75h5.508v6.426h-9.18V82.422a3.672,3.672,0,0,1,3.672-3.672Z" transform="translate(0 0)" fill="#20776e"/>
      <path id="Path_63177" data-name="Path 63177" d="M376.25,78.75h5.508a3.672,3.672,0,0,1,3.672,3.672v8.262h-9.18Z" transform="translate(-215.566 0)" fill="#20776e"/>
      <path id="Path_63178" data-name="Path 63178" d="M376.25,358.75h9.18V361.5a3.672,3.672,0,0,1-3.672,3.672H376.25Z" transform="translate(-215.566 -265.312)" fill="#20776e"/>
    </g>
  </g>
</svg>
