<svg xmlns="http://www.w3.org/2000/svg" width="22" height="22" viewBox="0 0 22 22">
  <g id="Group_66672" data-name="Group 66672" transform="translate(4816.839 1493.366)">
    <g id="Group_66687" data-name="Group 66687" transform="translate(-4816.839 -1493.366)">
      <g id="Group_66666" data-name="Group 66666" transform="translate(0 0)">
        <rect id="Rectangle_12450" data-name="Rectangle 12450" width="22" height="22" rx="4" transform="translate(0)" fill="#fff"/>
        <g id="Layer_2" data-name="Layer 2" transform="translate(4.036 3.96)">
          <g id="_ÎÓÈ_1" data-name="—ÎÓÈ 1" transform="translate(0 0)">
            <circle id="Ellipse_2868" data-name="Ellipse 2868" cx="7" cy="7" r="7" fill="#485a69"/>
            <path id="Path_63263" data-name="Path 63263" d="M0,0,3.606.047V2.974L0,2.946,0,0Z" transform="translate(5.265 8.742)" fill="#f9dca4" fill-rule="evenodd"/>
            <path id="Path_63264" data-name="Path 63264" d="M10.292,2.185A6.98,6.98,0,0,1,5.178,4.407a7.071,7.071,0,0,1-.869-.054A6.954,6.954,0,0,1,1.78,3.528,7.03,7.03,0,0,1,0,2.118l.291-.7L3.445.008c0,1.027.417,1.394,1.805,1.414,1.715.026,1.8-.364,1.8-1.423l2.9,1.423Z" transform="translate(1.822 9.592)" fill="#d5e1ed" fill-rule="evenodd"/>
            <path id="Path_63265" data-name="Path 63265" d="M3.607.042V.813A2.067,2.067,0,0,1,0,0Z" transform="translate(5.265 8.742)" fill-rule="evenodd" opacity="0.11"/>
            <path id="Path_63266" data-name="Path 63266" d="M2.9,0c4.821,0,2.942,7.989,0,7.989C.121,7.989-1.921,0,2.9,0Z" transform="translate(4.152 1.91)" fill="#ffe8be" fill-rule="evenodd"/>
            <path id="Path_63267" data-name="Path 63267" d="M.32,0c-.7.3-.1,1.741.333,1.735A7.243,7.243,0,0,1,.32,0Z" transform="translate(3.84 5.447)" fill="#f9dca4" fill-rule="evenodd"/>
            <path id="Path_63268" data-name="Path 63268" d="M.333,0c.7.3.1,1.741-.333,1.735A7.247,7.247,0,0,0,.333,0Z" transform="translate(9.665 5.447)" fill="#f9dca4" fill-rule="evenodd"/>
            <path id="Path_63269" data-name="Path 63269" d="M5.876,5.291s.241-1.974-.456-2.662c-.3.8-1.7,1.072-1.7,1.072a3.765,3.765,0,0,0,.728-.668,3.8,3.8,0,0,1-2.63.263,5.372,5.372,0,0,0,.819-.607,3.589,3.589,0,0,1-1.912.395C.049,3.59.35,5.16.35,5.16-.559,2.762.278.016,3.153,0c2.8-.016,3.663,2.684,2.722,5.291Z" transform="translate(3.957 1.41)" fill="#ecbe6a" fill-rule="evenodd"/>
            <path id="Path_63270" data-name="Path 63270" d="M.864,0a3.939,3.939,0,0,0,1.8,1.46L1.493,2.672,0,.383Z" transform="translate(4.404 9.554)" fill="#fff" fill-rule="evenodd"/>
            <path id="Path_63271" data-name="Path 63271" d="M1.8,0A3.939,3.939,0,0,1,0,1.46L1.174,2.672,2.667.383Z" transform="translate(7.068 9.554)" fill="#fff" fill-rule="evenodd"/>
            <path id="Path_63272" data-name="Path 63272" d="M1,1.974Q.716,2,.429,2,.213,2,0,1.984L.234,0H.779Z" transform="translate(6.562 12.002)" fill="#3dbc93" fill-rule="evenodd"/>
            <path id="Path_63273" data-name="Path 63273" d="M0,.638.62,0l.62.638-.62.638Z" transform="translate(6.45 11.018)" fill="#3dbc93" fill-rule="evenodd"/>
          </g>
        </g>
      </g>
      <g id="Group_66671" data-name="Group 66671" transform="translate(-0.121 2.273)">
        <line id="Line_1193" data-name="Line 1193" y2="5.7" transform="translate(2.445)" fill="none" stroke="#25857a" stroke-linecap="round" stroke-width="1"/>
        <line id="Line_1194" data-name="Line 1194" y2="4" transform="translate(5.778 0.803) rotate(90)" fill="none" stroke="#25857a" stroke-linecap="round" stroke-width="1"/>
      </g>
      <g id="Group_66668" data-name="Group 66668" transform="translate(22.553 20.144) rotate(180)">
        <line id="Line_1196" data-name="Line 1196" y2="5.7" transform="translate(2.445)" fill="none" stroke="#25857a" stroke-linecap="round" stroke-width="1"/>
        <line id="Line_1195" data-name="Line 1195" y2="4" transform="translate(5.778 0.803) rotate(90)" fill="none" stroke="#25857a" stroke-linecap="round" stroke-width="1"/>
      </g>
      <g id="Group_66669" data-name="Group 66669" transform="translate(14.774 2.273)">
        <line id="Line_1196-2" data-name="Line 1196" y2="5.7" transform="translate(5.334 0)" fill="none" stroke="#25857a" stroke-linecap="round" stroke-width="1"/>
        <line id="Line_1195-2" data-name="Line 1195" y2="4" transform="translate(5.778 0.803) rotate(90)" fill="none" stroke="#25857a" stroke-linecap="round" stroke-width="1"/>
      </g>
      <g id="Group_66670" data-name="Group 66670" transform="translate(8.658 20.144) rotate(180)">
        <line id="Line_1196-3" data-name="Line 1196" y2="5.7" transform="translate(6.334 0)" fill="none" stroke="#25857a" stroke-linecap="round" stroke-width="1"/>
        <line id="Line_1195-3" data-name="Line 1195" y2="4" transform="translate(6.778 0.803) rotate(90)" fill="none" stroke="#25857a" stroke-linecap="round" stroke-width="1"/>
      </g>
    </g>
  </g>
</svg>
