<svg xmlns="http://www.w3.org/2000/svg" width="21.522" height="21.522" viewBox="0 0 21.522 21.522">
  <path id="search2" d="M42.231,40.66l-4.017-3.975A9.682,9.682,0,0,0,37.5,23.829a9.667,9.667,0,0,0-13.664,13.68,9.679,9.679,0,0,0,12.875.716L40.688,42.2a1.033,1.033,0,0,0,.753.322.977.977,0,0,0,.753-.322A1.114,1.114,0,0,0,42.231,40.66Zm-4.017-9.991a7.358,7.358,0,0,1-2.223,5.3,7.591,7.591,0,0,1-5.308,2.22,7.379,7.379,0,0,1-5.308-2.22,7.569,7.569,0,0,1-2.223-5.3,7.358,7.358,0,0,1,2.223-5.3,7.527,7.527,0,0,1,5.308-2.22,7.379,7.379,0,0,1,5.308,2.22A7.505,7.505,0,0,1,38.214,30.669Z" transform="translate(-21 -21)" fill="#bccbc8" opacity="0.977"/>
</svg>
