<svg xmlns="http://www.w3.org/2000/svg" width="24.634" height="27.181" viewBox="0 0 24.634 27.181">
  <g id="signout" transform="translate(-178.26 -69.998)">
    <path id="Path_52716" data-name="Path 52716" d="M190.578,173.332a12.324,12.324,0,0,1-8.155-21.559.8.8,0,0,1,1.1.062.788.788,0,0,1-.062,1.118,10.764,10.764,0,1,0,14.228,0,.781.781,0,0,1,1.041-1.165,12.313,12.313,0,0,1-8.155,21.543Z" transform="translate(0 -76.152)" fill="#20776e"/>
    <path id="Path_52717" data-name="Path 52717" d="M350.779,85.53a.769.769,0,0,1-.777-.777V70.774a.777.777,0,1,1,1.553,0V84.754A.769.769,0,0,1,350.779,85.53Z" transform="translate(-160.31)" fill="#20776e"/>
  </g>
</svg>
