<svg xmlns="http://www.w3.org/2000/svg" width="23.396" height="22" viewBox="0 0 23.396 22">
  <g id="Group_66682" data-name="Group 66682" transform="translate(4582 1272)">
    <g id="Layer_2" data-name="Layer 2" transform="translate(-4582 -1272)">
      <path id="Path_63292" data-name="Path 63292" d="M24.657,5.89H4.739A1.783,1.783,0,0,0,3,7.706V22.83a1.783,1.783,0,0,0,1.739,1.816h7.616v2.4H11.067a.422.422,0,0,0,0,.843h7.261a.422.422,0,0,0,0-.843H17.041v-2.4h7.616A1.783,1.783,0,0,0,26.4,22.83V7.706A1.783,1.783,0,0,0,24.657,5.89ZM4.743,6.733H24.657a.957.957,0,0,1,.932.973V19.544H3.807V7.706a.957.957,0,0,1,.932-.973Zm11.5,20.315H13.161v-2.4h3.078ZM24.657,23.8H4.739a.957.957,0,0,1-.932-.973V20.387H25.589V22.83a.957.957,0,0,1-.932.973Z" transform="translate(-3 -5.89)" fill="#25857a"/>
    </g>
    <path id="Path_63293" data-name="Path 63293" d="M4.863,0A4.863,4.863,0,1,0,9.725,4.863,4.867,4.867,0,0,0,4.863,0ZM4.451,1.8a.412.412,0,0,1,.824,0V5.837a.412.412,0,0,1-.824,0Zm.412,6.337a.584.584,0,1,1,.594-.584A.59.59,0,0,1,4.863,8.136Z" transform="translate(-4575.024 -1269.983)" fill="#f04844"/>
  </g>
</svg>
