<svg xmlns="http://www.w3.org/2000/svg" width="25.696" height="27.482" viewBox="0 0 25.696 27.482">
  <g id="userrrr" transform="translate(-122.251 -36.257)">
    <path id="Path_52713" data-name="Path 52713" d="M147.172,63.589H123.026a.625.625,0,0,1-.625-.625v-2c0-6.108,4.732-10.055,12.055-10.055h1.286c7.323,0,12.055,3.947,12.055,10.055v2a.625.625,0,0,1-.625.625Zm-23.521-1.25h22.9V60.963c0-6.492-5.581-8.805-10.805-8.805h-1.286c-5.224,0-10.805,2.313-10.805,8.805ZM135.1,49.444a5.775,5.775,0,0,1-5.768-5.768v-1.5a5.768,5.768,0,1,1,11.537,0v1.5A5.775,5.775,0,0,1,135.1,49.444Zm0-11.788a4.524,4.524,0,0,0-4.519,4.519v1.5a4.519,4.519,0,1,0,9.037,0v-1.5A4.524,4.524,0,0,0,135.1,37.656Z" transform="translate(0)" fill="#20776e" stroke="#20776e" stroke-width="0.3"/>
  </g>
</svg>
