<svg id="noun-warning-5096319" xmlns="http://www.w3.org/2000/svg" width="56" height="49.74" viewBox="0 0 56 49.74">
  <path id="Path_51418" data-name="Path 51418" d="M181.731,122.454,159.584,84.421a5.853,5.853,0,0,0-10.116,0l-22.146,38.034a5.853,5.853,0,0,0,5.058,8.8h44.293a5.853,5.853,0,0,0,5.058-8.8Zm-27.207,2.723a3.712,3.712,0,1,1,2.625-1.088A3.711,3.711,0,0,1,154.524,125.177Zm5.074-23.742-2.146,9.512a3,3,0,0,1-5.854,0l-2.146-9.512A5.2,5.2,0,0,1,159.6,99.146a5.3,5.3,0,0,1,0,2.289Z" transform="translate(-126.527 -81.513)" fill="#c22f2f"/>
</svg>
