<svg xmlns="http://www.w3.org/2000/svg" width="18" height="18" viewBox="0 0 18 18">
  <g id="noun-wrong-1890903" transform="translate(-84 -14)">
    <path id="Path_50836" data-name="Path 50836" d="M93,14a9,9,0,1,0,9,9A9.008,9.008,0,0,0,93,14Z" transform="translate(0 0)" fill="#c70000"/>
    <path id="Path_50835" data-name="Path 50835" d="M258.694,182.479a.709.709,0,0,0-.985,0l-2.122,2.122-2.122-2.122a.7.7,0,0,0-.985.985l2.122,2.122-2.122,2.122a.709.709,0,0,0,0,.985.686.686,0,0,0,.985,0l2.122-2.122,2.122,2.122a.686.686,0,0,0,.985,0,.709.709,0,0,0,0-.985l-2.122-2.122,2.122-2.122a.709.709,0,0,0,0-.985Z" transform="translate(-162.586 -162.586)" fill="#fff"/>
  </g>
</svg>
