<svg id="Group_66194" data-name="Group 66194" xmlns="http://www.w3.org/2000/svg" width="28.114" height="19.698" viewBox="0 0 28.114 19.698">
  <g id="user" transform="translate(0)">
    <g id="Group_6155" data-name="Group 6155" transform="translate(4.258)">
      <g id="Group_6154" data-name="Group 6154" transform="translate(0)">
        <path id="Path_15351" data-name="Path 15351" d="M126.194,0a5.194,5.194,0,1,0,5.194,5.194A5.2,5.2,0,0,0,126.194,0Z" transform="translate(-121)" fill="#20776e"/>
      </g>
    </g>
    <g id="Group_6157" data-name="Group 6157" transform="translate(0 11.542)">
      <g id="Group_6156" data-name="Group 6156">
        <path id="Path_15352" data-name="Path 15352" d="M47.507,302.239a8.467,8.467,0,0,0-5.8-2.239h-2.52a8.467,8.467,0,0,0-5.8,2.239,7.257,7.257,0,0,0-2.4,5.34.605.605,0,0,0,.63.577H49.273a.605.605,0,0,0,.63-.577A7.257,7.257,0,0,0,47.507,302.239Z" transform="translate(-31 -300)" fill="#20776e"/>
      </g>
    </g>
  </g>
  <g id="Group_6502" data-name="Group 6502" transform="translate(18.243 4.624)">
    <line id="Line_1159" data-name="Line 1159" x2="5.284" transform="translate(3.963 13.211)" fill="none" stroke="#20776e" stroke-miterlimit="10" stroke-width="1"/>
    <line id="Line_1160" data-name="Line 1160" x2="9.871" transform="translate(0 6.606)" fill="none" stroke="#20776e" stroke-miterlimit="10" stroke-width="1"/>
    <line id="Line_1161" data-name="Line 1161" x2="6.606" transform="translate(2.642)" fill="none" stroke="#20776e" stroke-miterlimit="10" stroke-width="1"/>
  </g>
</svg>
