<svg xmlns="http://www.w3.org/2000/svg" xmlns:xlink="http://www.w3.org/1999/xlink" width="22.423" height="21.983" viewBox="0 0 22.423 21.983">
  <defs>
    <clipPath id="clip-path">
      <rect width="22.424" height="21.983" fill="none"/>
    </clipPath>
  </defs>
  <g id="noun-benchmarking-1874007" clip-path="url(#clip-path)">
    <g id="noun-benchmarking-1874007-2" data-name="noun-benchmarking-1874007" transform="translate(-74.527 -9.334)">
      <path id="Path_51792" data-name="Path 51792" d="M183.7,15.339,182.5,15.1a5.807,5.807,0,0,0-.552-1.346l.69-1a.366.366,0,0,0-.034-.449l-1.518-1.553a.362.362,0,0,0-.449-.034l-1,.69a4.613,4.613,0,0,0-1.346-.552l-.173-1.208a.336.336,0,0,0-.345-.276l-2.174-.034a.372.372,0,0,0-.345.276l-.207,1.208a6.779,6.779,0,0,0-1.381.552l-1-.69a.366.366,0,0,0-.449.034l-1.553,1.518a.362.362,0,0,0-.034.449l.69,1a4.612,4.612,0,0,0-.552,1.346l-1.208.207a.336.336,0,0,0-.276.345v.1h4.314a3.208,3.208,0,0,1,6.074,0h4.314a.337.337,0,0,0-.276-.345Z" transform="translate(-90.898 0)" fill="#20776e"/>
      <path id="Path_51793" data-name="Path 51793" d="M96.879,187.427a.314.314,0,0,1-.276.138H74.861a.426.426,0,0,1-.276-.138.336.336,0,0,1-.034-.311l1.829-4.486a.331.331,0,0,1,.311-.207H94.774a.35.35,0,0,1,.311.207l1.829,4.486a.263.263,0,0,1-.034.311Z" transform="translate(0 -166.049)" fill="#20776e"/>
      <path id="Path_51794" data-name="Path 51794" d="M125.15,325.82v7.006a2.114,2.114,0,0,0,2.105,2.105h14.08a2.114,2.114,0,0,0,2.105-2.105V325.82Zm12.665,4.038-1.864,1.346.69,2.174a.328.328,0,0,1-.138.38.345.345,0,0,1-.414,0l-1.795-1.346-1.829,1.346a.314.314,0,0,1-.414,0,.41.41,0,0,1-.138-.38l.69-2.174-1.829-1.346a.345.345,0,0,1-.138-.38.331.331,0,0,1,.311-.241h2.312l.69-2.174a.343.343,0,0,1,.345-.241.332.332,0,0,1,.311.241l.69,2.174h2.278a.416.416,0,0,1,.345.242.369.369,0,0,1-.1.38Z" transform="translate(-48.564 -303.613)" fill="#20776e"/>
      <path id="Path_51795" data-name="Path 51795" d="M297.539,388.292l-.449-1.38-.449,1.38a.343.343,0,0,1-.345.242h-1.449l1.173.863a.345.345,0,0,1,.138.38l-.449,1.38,1.173-.863a.345.345,0,0,1,.414,0l1.173.863-.449-1.38a.328.328,0,0,1,.138-.38l1.173-.863h-1.449A.342.342,0,0,1,297.539,388.292Z" transform="translate(-211.358 -362.221)" fill="#20776e"/>
    </g>
  </g>
</svg>
