<svg xmlns="http://www.w3.org/2000/svg" width="18.407" height="19.174" viewBox="0 0 18.407 19.174">
  <path id="noun-home-5227143_1_" data-name="noun-home-5227143 (1)" d="M110.767,39.179h5.369a.767.767,0,0,0,.767-.767V33.044a2.3,2.3,0,0,1,4.6,0v5.369a.767.767,0,0,0,.767.767h5.369a.767.767,0,0,0,.767-.767V27.675a.767.767,0,0,0-.281-.594l-8.437-6.9a.767.767,0,0,0-.971,0l-8.437,6.9a.768.768,0,0,0-.281.594V38.412a.767.767,0,0,0,.767.767Z" transform="translate(-110 -20.005)" fill="#fff" fill-rule="evenodd"/>
</svg>
