<svg xmlns="http://www.w3.org/2000/svg" xmlns:xlink="http://www.w3.org/1999/xlink" width="58" height="58" viewBox="0 0 58 58">
  <defs>
    <filter id="Rectangle_5375" x="0" y="0" width="58" height="58" filterUnits="userSpaceOnUse">
      <feOffset dy="3" input="SourceAlpha"/>
      <feGaussianBlur stdDeviation="3" result="blur"/>
      <feFlood flood-color="#5462e2" flood-opacity="0.278"/>
      <feComposite operator="in" in2="blur"/>
      <feComposite in="SourceGraphic"/>
    </filter>
  </defs>
  <g id="Group_66398" data-name="Group 66398" transform="translate(9 6)">
    <g transform="matrix(1, 0, 0, 1, -9, -6)" filter="url(#Rectangle_5375)">
      <g id="Rectangle_5375-2" data-name="Rectangle 5375" transform="translate(9 6)" fill="#fff" stroke="#1e7067" stroke-width="2">
        <rect width="40" height="40" rx="5" stroke="none"/>
        <rect x="1" y="1" width="38" height="38" rx="4" fill="none"/>
      </g>
    </g>
    <g id="noun-arrow-1920798" transform="translate(11 13)">
      <path id="Path_63223" data-name="Path 63223" d="M84.192,88.99l6.088,6.088a.661.661,0,0,0,.935-.935l-4.962-4.962h15.211a.668.668,0,0,0,0-1.336H86.273l4.962-4.962a.646.646,0,0,0,0-.935.692.692,0,0,0-.954,0l-6.088,6.088a.633.633,0,0,0-.191.477.713.713,0,0,0,.191.477Z" transform="translate(-84.001 -81.756)" fill="#1e7067"/>
    </g>
  </g>
</svg>
