<svg xmlns="http://www.w3.org/2000/svg" width="27.046" height="27.046" viewBox="0 0 27.046 27.046">
  <g id="noun-plus-1052486" transform="translate(-84 -14)">
    <path id="Path_66020" data-name="Path 66020" d="M111.046,27.523A13.523,13.523,0,1,0,97.523,41.046,13.535,13.535,0,0,0,111.046,27.523Zm-6.263.4a1.519,1.519,0,0,1-1.509,1.509H99.43v3.843a1.519,1.519,0,0,1-1.509,1.509h-.8a1.519,1.519,0,0,1-1.509-1.509V29.43H91.772a1.519,1.519,0,0,1-1.509-1.509v-.8a1.519,1.519,0,0,1,1.509-1.509h3.843V21.772a1.519,1.519,0,0,1,1.509-1.509h.8a1.519,1.519,0,0,1,1.509,1.509v3.843h3.843a1.519,1.519,0,0,1,1.509,1.509Z" fill="#20776e"/>
  </g>
</svg>
