<svg id="noun-eye-78826" xmlns="http://www.w3.org/2000/svg" width="33.923" height="21" viewBox="0 0 33.923 21">
  <path id="Path_66057" data-name="Path 66057" d="M131.784,134.2c-1.921-1.717-8.9-10.2-16.827-10.2s-14.9,8.482-16.827,10.2a.4.4,0,0,0,0,.6c1.921,1.717,8.548,10.2,16.827,10.2s14.905-8.483,16.827-10.2a.4.4,0,0,0,0-.6m-16.827,6.358a6.057,6.057,0,1,1,6.057-6.057,6.057,6.057,0,0,1-6.057,6.057" transform="translate(-97.996 -124)" fill="#20776e"/>
  <path id="Path_66058" data-name="Path 66058" d="M311.635,238a3.635,3.635,0,1,0,3.635,3.635A3.634,3.634,0,0,0,311.635,238" transform="translate(-294.673 -231.135)" fill="#20776e"/>
</svg>
