<svg xmlns="http://www.w3.org/2000/svg" width="21.688" height="24.475" viewBox="0 0 21.688 24.475">
  <g id="noun-report-1212330" transform="translate(-106.848 -5.6)">
    <path id="Path_63218" data-name="Path 63218" d="M184.722,271.5h5.08a.874.874,0,1,0,0-1.748h-5.08a.874.874,0,1,0,0,1.748Z" transform="translate(-73.566 -252.369)" fill="#20776e"/>
    <path id="Path_63219" data-name="Path 63219" d="M183.85,343.422a.874.874,0,0,0,.874.874h7.827a.874.874,0,0,0,0-1.748h-7.827a.874.874,0,0,0-.874.874Z" transform="translate(-73.568 -321.92)" fill="#20776e"/>
    <path id="Path_63220" data-name="Path 63220" d="M192.549,415.35h-7.827a.874.874,0,1,0,0,1.748h7.827a.874.874,0,0,0,0-1.748Z" transform="translate(-73.566 -391.476)" fill="#20776e"/>
    <path id="Path_63221" data-name="Path 63221" d="M128.521,10.88v-.032a.873.873,0,0,0-.045-.145l-.02-.04a.841.841,0,0,0-.052-.1l-.03-.043a.857.857,0,0,0-.07-.085l-.032-.035L123.4,5.838a.871.871,0,0,0-.6-.237h-7.834a2.875,2.875,0,0,0-2.872,2.872v.874H109.72a2.875,2.875,0,0,0-2.872,2.872V27.2a2.875,2.875,0,0,0,2.872,2.872h10.7a2.875,2.875,0,0,0,2.872-2.872v-.874h2.373a2.875,2.875,0,0,0,2.872-2.872V11.01a.878.878,0,0,0-.015-.13ZM121.544,27.2a1.124,1.124,0,0,1-1.124,1.124h-10.7A1.124,1.124,0,0,1,108.6,27.2V12.219a1.124,1.124,0,0,1,1.124-1.124h6.973V13.78a1.875,1.875,0,0,0,1.873,1.873h3Zm5.245-3.746a1.124,1.124,0,0,1-1.124,1.124h-2.373v-2.7h.934a.874.874,0,0,0,0-1.748h-.934v-1.5h.934a.874.874,0,0,0,0-1.748h-.934v-2.1a.871.871,0,0,0-.275-.637l-4.865-4.558a.873.873,0,0,0-.6-.237h-3.714V8.472a1.124,1.124,0,0,1,1.124-1.124h6.973v2.685a1.876,1.876,0,0,0,1.873,1.873h3Z" fill="#20776e"/>
  </g>
</svg>
