<svg xmlns="http://www.w3.org/2000/svg" width="22.43" height="26.963" viewBox="0 0 22.43 26.963">
  <path id="noun-report-card-4853307" d="M143.214,28h14.328a1.611,1.611,0,0,1,1.6,1.6V40.068a1.2,1.2,0,0,0-.438-.085,1.223,1.223,0,0,0-.55.136l-.219.113-.2-.034a1.213,1.213,0,0,0-.581.032,1.2,1.2,0,0,0-.5.3l-.176.177-.185.029a1.232,1.232,0,0,0-.551.2,1.213,1.213,0,0,0-.394.452l-.111.219-.219.11a1.173,1.173,0,0,0-.43.369,1.2,1.2,0,0,0-.215.517l-.041.248-.177.173a1.214,1.214,0,0,0-.336,1.04l.04.246-.112.219a1.184,1.184,0,0,0,0,1.1l.113.219-.034.2a1.2,1.2,0,0,0,.032.581,1.174,1.174,0,0,0,.3.5l.177.176.029.186a1.207,1.207,0,0,0,.2.551l0,0a1.2,1.2,0,0,0,.448.391l.22.111.112.218a1.206,1.206,0,0,0,.347.42V51H143.214a1.61,1.61,0,0,1-1.6-1.6V29.6a1.6,1.6,0,0,1,.471-1.132l0,0a1.6,1.6,0,0,1,1.131-.47ZM159.1,43.183l.433.949,1.036.118a.43.43,0,0,1,.221.763l-.748.684.208,1.023a.429.429,0,0,1-.632.459l-.908-.513-.907.514a.429.429,0,0,1-.63-.469l.206-1.014-.769-.7a.428.428,0,0,1,.242-.742l1.036-.12.433-.949a.429.429,0,0,1,.78,0Zm1.852,5.493v4.8a.431.431,0,0,1-.758.28l-1.465-1.484L157.2,53.78a.429.429,0,0,1-.73-.306v-4.8l-.113-.017a.428.428,0,0,1-.317-.231l-.226-.446-.447-.225a.43.43,0,0,1-.234-.341l-.072-.47-.356-.353a.43.43,0,0,1-.119-.387l.078-.479-.229-.445a.43.43,0,0,1,0-.393l.229-.445-.08-.495a.427.427,0,0,1,.121-.371l.354-.352.076-.494a.429.429,0,0,1,.254-.33l.425-.214.225-.447a.43.43,0,0,1,.341-.234l.47-.073.354-.356a.43.43,0,0,1,.387-.119l.479.078.445-.229a.429.429,0,0,1,.413.012l.424.217.5-.08a.427.427,0,0,1,.371.121l.352.354.494.076a.43.43,0,0,1,.33.254l.214.425.446.225a.429.429,0,0,1,.234.341l.073.47.356.353a.43.43,0,0,1,.118.387l-.077.48.229.445a.43.43,0,0,1,0,.393l-.229.445.08.495a.427.427,0,0,1-.121.371l-.356.354-.076.493a.427.427,0,0,1-.23.317l-.446.226-.225.446a.43.43,0,0,1-.341.234l-.089.014Zm-1.867-6.812-.375-.192-.375.192a.432.432,0,0,1-.264.042l-.416-.068-.3.3a.429.429,0,0,1-.239.121l-.415.064-.19.377a.43.43,0,0,1-.19.19l-.375.189-.064.414a.439.439,0,0,1-.123.24l-.3.3.065.4a.428.428,0,0,1-.039.278l-.192.374.192.374a.43.43,0,0,1,.042.263l-.067.417.3.3a.433.433,0,0,1,.121.239l.064.415.377.19a.428.428,0,0,1,.19.19l.19.376.4.061a.426.426,0,0,1,.256.123l.3.3.4-.065a.426.426,0,0,1,.278.04l.375.192.359-.184a.429.429,0,0,1,.278-.05l.417.067.293-.3a.428.428,0,0,1,.242-.124l.415-.065.19-.376a.428.428,0,0,1,.19-.19l.376-.19.061-.4a.429.429,0,0,1,.124-.256l.3-.3-.065-.4a.427.427,0,0,1,.039-.278l.192-.374-.192-.374a.431.431,0,0,1-.042-.263l.067-.416-.3-.3a.433.433,0,0,1-.121-.239l-.064-.415-.376-.19a.431.431,0,0,1-.19-.19l-.189-.375-.415-.064a.435.435,0,0,1-.24-.123l-.3-.3-.417.068a.434.434,0,0,1-.262-.042Zm-14.193-9.109a.431.431,0,1,1,0-.861h10.971a.431.431,0,1,1,0,.861Zm0,14.346a.43.43,0,1,1,0-.861h6.334a.43.43,0,1,1,0,.861Zm0-3.586a.431.431,0,1,1,0-.861h6.334a.431.431,0,1,1,0,.861Zm0-3.587a.43.43,0,1,1,0-.861h8.6a.43.43,0,0,1,0,.861Zm0-3.587a.43.43,0,1,1,0-.861h10.971a.43.43,0,1,1,0,.861Z" transform="translate(-141.11 -27.496)" fill="#20776e" stroke="rgba(0,0,0,0)" stroke-miterlimit="10" stroke-width="1" fill-rule="evenodd"/>
</svg>
