<svg xmlns="http://www.w3.org/2000/svg" xmlns:xlink="http://www.w3.org/1999/xlink" width="58" height="58" viewBox="0 0 58 58">
  <defs>
    <filter id="Rectangle_5375" x="0" y="0" width="58" height="58" filterUnits="userSpaceOnUse">
      <feOffset dy="3" input="SourceAlpha"/>
      <feGaussianBlur stdDeviation="3" result="blur"/>
      <feFlood flood-color="#5462e2" flood-opacity="0.278"/>
      <feComposite operator="in" in2="blur"/>
      <feComposite in="SourceGraphic"/>
    </filter>
  </defs>
  <g id="Group_66263" data-name="Group 66263" transform="translate(-1813.694 -246)">
    <g transform="matrix(1, 0, 0, 1, 1813.69, 246)" filter="url(#Rectangle_5375)">
      <rect id="Rectangle_5375-2" data-name="Rectangle 5375" width="40" height="40" rx="5" transform="translate(9 6)" fill="#20776e"/>
    </g>
    <path id="Icon_awesome-search" data-name="Icon awesome-search" d="M22.962,20.129,18.429,15.6a1.09,1.09,0,0,0-.773-.318h-.741a9.453,9.453,0,1,0-1.637,1.637v.741a1.09,1.09,0,0,0,.318.773l4.533,4.533a1.087,1.087,0,0,0,1.541,0l1.287-1.287a1.1,1.1,0,0,0,0-1.546Zm-13.5-4.852a5.82,5.82,0,1,1,5.82-5.82A5.817,5.817,0,0,1,9.458,15.278Z" transform="translate(1831.055 260.359)" fill="#fff"/>
  </g>
</svg>
