<svg xmlns="http://www.w3.org/2000/svg" width="560.907" height="481.318" viewBox="0 0 560.907 481.318">
  <g id="undraw_done_re_oak4" transform="translate(0 0)">
    <path id="Path_438" data-name="Path 438" d="M310.256,682.786a19.949,19.949,0,0,0,19.264-3.393c6.747-5.663,8.863-14.991,10.584-23.629l5.091-25.553-10.659,7.339c-7.666,5.278-15.5,10.725-20.81,18.37S306.1,674,310.366,682.273" transform="translate(-268.137 -241.085)" fill="#589992"/>
    <path id="Path_439" data-name="Path 439" d="M312.256,720.162c-1.342-9.774-2.722-19.674-1.779-29.553.836-8.773,3.513-17.341,8.962-24.369a40.538,40.538,0,0,1,10.4-9.425c1.04-.656,2,.992.962,1.645a38.539,38.539,0,0,0-15.245,18.393c-3.319,8.441-3.852,17.643-3.28,26.61.346,5.423,1.08,10.81,1.817,16.191a.987.987,0,0,1-.666,1.172.959.959,0,0,1-1.172-.666Z" transform="translate(-268.492 -245.745)" fill="#589992"/>
    <path id="Path_442" data-name="Path 442" d="M324.424,711.3a14.685,14.685,0,0,0,12.8,6.606c6.479-.307,11.878-4.827,16.738-9.12l14.378-12.695-9.515-.455c-6.843-.328-13.863-.635-20.38,1.477s-12.529,7.189-13.72,13.936" transform="translate(-271.003 -252.569)" fill="#20776e"/>
    <path id="Path_443" data-name="Path 443" d="M308.073,734.252c6.459-11.428,13.95-24.129,27.336-28.188a30.5,30.5,0,0,1,11.5-1.187c1.221.105.916,1.987-.3,1.882a28.339,28.339,0,0,0-18.348,4.854c-5.174,3.522-9.2,8.418-12.611,13.609-2.089,3.181-3.959,6.5-5.83,9.806C309.217,736.087,307.469,735.323,308.073,734.252Z" transform="translate(-268.101 -254.217)" fill="#589992"/>
    <path id="Path_141" data-name="Path 141" d="M858.376,496.842H502.3a4.144,4.144,0,0,1-4.139-4.139V162.023a4.144,4.144,0,0,1,4.139-4.139H858.376a4.144,4.144,0,0,1,4.139,4.139V492.7a4.143,4.143,0,0,1-4.139,4.139Z" transform="translate(-301.606 -157.884)" fill="#fdeed7"/>
    <path id="Path_141-2" data-name="Path 141" d="M858.376,496.842H502.3a4.144,4.144,0,0,1-4.139-4.139V162.023a4.144,4.144,0,0,1,4.139-4.139H858.376a4.144,4.144,0,0,1,4.139,4.139V492.7a4.143,4.143,0,0,1-4.139,4.139ZM502.3,159.536a2.486,2.486,0,0,0-2.481,2.481V492.7a2.486,2.486,0,0,0,2.481,2.481H858.376a2.486,2.486,0,0,0,2.481-2.481V162.023a2.486,2.486,0,0,0-2.481-2.481Z" transform="translate(-301.606 -157.884)" fill="#cacaca"/>
    <path id="Path_142" data-name="Path 142" d="M706.809,262.185a2.81,2.81,0,0,0,0,5.62H860.987a2.81,2.81,0,1,0,0-5.62Z" transform="translate(-337.866 -176.257)" fill="#f8c474"/>
    <path id="Path_143" data-name="Path 143" d="M706.809,282.65a2.81,2.81,0,0,0,0,5.62H785.52a2.81,2.81,0,0,0,0-5.62Z" transform="translate(-337.866 -179.862)" fill="#f8c474"/>
    <path id="Path_142-2" data-name="Path 142" d="M543.24,392.705a2.81,2.81,0,0,0,0,5.62H832.324a2.81,2.81,0,1,0,0-5.62Z" transform="translate(-309.053 -199.248)" fill="#f8c474"/>
    <path id="Path_143-2" data-name="Path 143" d="M543.24,413.17a2.81,2.81,0,1,0,0,5.62H756.857a2.81,2.81,0,0,0,0-5.62Z" transform="translate(-309.053 -202.853)" fill="#f8c474"/>
    <path id="Path_142-3" data-name="Path 142" d="M543.24,433.172a2.81,2.81,0,0,0,0,5.62H832.324a2.81,2.81,0,1,0,0-5.62Z" transform="translate(-309.053 -206.376)" fill="#f8c474"/>
    <path id="Path_143-3" data-name="Path 143" d="M543.24,453.637a2.81,2.81,0,0,0,0,5.62H756.857a2.81,2.81,0,0,0,0-5.62Z" transform="translate(-309.053 -209.981)" fill="#f8c474"/>
    <path id="Path_142-4" data-name="Path 142" d="M543.24,474.172a2.81,2.81,0,0,0,0,5.62H832.324a2.81,2.81,0,0,0,0-5.62Z" transform="translate(-309.053 -213.599)" fill="#f8c474"/>
    <path id="Path_143-4" data-name="Path 143" d="M543.24,494.637a2.81,2.81,0,0,0,0,5.62H756.857a2.81,2.81,0,0,0,0-5.62Z" transform="translate(-309.053 -217.204)" fill="#f8c474"/>
    <path id="Path_51834" data-name="Path 51834" d="M590.787,307.565A40.369,40.369,0,1,1,631.156,267.2a40.369,40.369,0,0,1-40.368,40.368Z" transform="translate(-310.812 -170.029)" fill="#198754"/>
    <path id="Path_51835" data-name="Path 51835" d="M442.325,504.078a10.09,10.09,0,0,0-12.319-9.361l-13.343-18.8-13.405,5.322,19.216,26.291a10.145,10.145,0,0,0,19.851-3.447Z" transform="translate(-284.89 -213.905)" fill="#a0616a"/>
    <path id="Path_51836" data-name="Path 51836" d="M410.479,483.7,370.1,431.322l15.128-47.545c1.109-11.954,8.589-15.291,8.907-15.428l.486-.208,13.164,35.106-9.666,25.775,23.724,39.9Z" transform="translate(-279.05 -194.921)" fill="#f6ab39"/>
    <path id="Path_51837" data-name="Path 51837" d="M583.728,312.4a10.09,10.09,0,0,0-8.38,13.006l-17.716,14.757,6.342,12.954L588.7,331.926a10.145,10.145,0,0,0-4.972-19.525Z" transform="translate(-312.083 -185.087)" fill="#a0616a"/>
    <path id="Path_51838" data-name="Path 51838" d="M565.69,341.843l-49.1,44.3L468.017,374.74c-12-.181-15.91-7.381-16.07-7.687l-.245-.468,33.983-15.839,26.445,7.644,37.947-26.738Z" transform="translate(-293.423 -188.493)" fill="#f6ab39"/>
    <path id="Path_51839" data-name="Path 51839" d="M227.247,557.557H240.44l6.275-50.884h-19.47Z" transform="translate(-40.03 -89.251)" fill="#a0616a"/>
    <path id="Path_51840" data-name="Path 51840" d="M0,0H41.461V16.019H11.632A11.632,11.632,0,0,1,0,4.387V0Z" transform="translate(225.85 480.555) rotate(179.997)" fill="#2f2e41"/>
    <path id="Path_51841" data-name="Path 51841" d="M163.247,557.557h13.192l6.276-50.884h-19.47Z" transform="translate(-28.756 -89.251)" fill="#a0616a"/>
    <path id="Path_51842" data-name="Path 51842" d="M0,0H41.461V16.019H11.632A11.632,11.632,0,0,1,0,4.387V0Z" transform="translate(173.123 480.555) rotate(179.997)" fill="#2f2e41"/>
    <path id="Path_51843" data-name="Path 51843" d="M157.552,342.991l1.076,75.324,1.077,99,23.672-2.152L195.214,378.5,210.279,515.16h24.439l2.462-137.734-8.608-30.13Z" transform="translate(-27.753 -60.418)" fill="#2f2e41"/>
    <path id="Path_51844" data-name="Path 51844" d="M458.967,481.194c-25.758,0-49.468-11.656-49.788-11.816l-.266-.133-2.162-51.875c-.627-1.833-12.97-38-15.06-49.5C389.574,356.22,420.27,346,424,344.8l.846-9.371,34.4-3.707,4.36,11.99,12.341,4.627a6.1,6.1,0,0,1,3.783,7.171l-6.859,27.892,16.752,92.282-3.606.156A65.479,65.479,0,0,1,458.967,481.194Z" transform="translate(-282.834 -188.506)" fill="#f6ab39"/>
    <circle id="Ellipse_1899" data-name="Ellipse 1899" cx="24.767" cy="24.767" r="24.767" transform="translate(126.943 102.665) rotate(-28.663)" fill="#a0616a"/>
    <path id="Path_51845" data-name="Path 51845" d="M427.533,311.477c4.72,5.028,13.486,2.329,14.1-4.54a8.3,8.3,0,0,0-.01-1.6c-.318-3.043-2.075-5.8-1.654-9.017a4.729,4.729,0,0,1,.865-2.214c3.761-5.037,12.591,2.253,16.14-2.307,2.177-2.8-.382-7.2,1.288-10.322,2.2-4.124,8.734-2.09,12.829-4.348,4.556-2.513,4.284-9.5,1.284-13.755-3.658-5.185-10.07-7.952-16.4-8.351s-12.622,1.313-18.534,3.617c-6.718,2.618-13.379,6.236-17.513,12.143-5.027,7.183-5.511,16.841-3,25.24C418.458,301.13,423.678,307.372,427.533,311.477Z" transform="translate(-287.037 -174.984)" fill="#2f2e41"/>
    <path id="Path_51846" data-name="Path 51846" d="M574.291,741.611H260.4a.824.824,0,1,1,0-1.648H574.291a.824.824,0,0,1,0,1.648Z" transform="translate(-259.581 -260.418)" fill="#cacaca"/>
    <path id="Path_51847" data-name="Path 51847" d="M593.128,287.912a2.874,2.874,0,0,1-1.962-.771l-13.311-12.364a2.883,2.883,0,1,1,3.925-4.225l11.275,10.473,22.307-22.307a2.883,2.883,0,1,1,4.077,4.078l-24.271,24.271A2.878,2.878,0,0,1,593.128,287.912Z" transform="translate(-315.483 -175.497)" fill="#fff"/>
  </g>
</svg>
