<svg id="Component_658_11" data-name="Component 658 – 11" xmlns="http://www.w3.org/2000/svg" width="15.457" height="15.457" viewBox="0 0 15.457 15.457">
  <path id="Path_63290" data-name="Path 63290" d="M157.983,80.879h1.231A1.43,1.43,0,0,1,160.64,82.3v4.261H164.9a1.43,1.43,0,0,1,1.426,1.426v1.231a1.43,1.43,0,0,1-1.426,1.426H160.64V94.91a1.43,1.43,0,0,1-1.426,1.426h-1.231a1.43,1.43,0,0,1-1.426-1.426V90.649H152.3a1.43,1.43,0,0,1-1.426-1.426V87.992a1.43,1.43,0,0,1,1.426-1.426h4.261V82.3a1.43,1.43,0,0,1,1.426-1.426Z" transform="translate(-150.87 -80.879)" fill="#20776e" fill-rule="evenodd"/>
</svg>
