<svg id="noun_Plus_3248114" xmlns="http://www.w3.org/2000/svg" width="21.954" height="21.954" viewBox="0 0 21.954 21.954">
  <g id="_1-plus" data-name="1-plus">
    <path id="Path_16628" data-name="Path 16628" d="M11.977,1A10.977,10.977,0,1,0,22.954,11.977,10.977,10.977,0,0,0,11.977,1Zm0,20.49a9.513,9.513,0,1,1,9.513-9.513,9.513,9.513,0,0,1-9.513,9.513Z" transform="translate(-1 -1)" fill="#20776e"/>
    <path id="Path_16629" data-name="Path 16629" d="M18.977,13.123H14.586V8.732a.732.732,0,1,0-1.464,0v4.391H8.732a.732.732,0,0,0,0,1.464h4.391v4.391a.732.732,0,0,0,1.464,0V14.586h4.391a.732.732,0,0,0,0-1.464Z" transform="translate(-2.877 -2.877)" fill="#20776e"/>
  </g>
</svg>
