<svg xmlns="http://www.w3.org/2000/svg" width="13.702" height="16.587" viewBox="0 0 13.702 16.587">
  <g id="noun-bulk-upload-3834323" transform="translate(-128.239 -11.199)">
    <path id="Path_66018" data-name="Path 66018" d="M138.036,11.2h-8.95a.848.848,0,0,0-.847.847V24.037a.848.848,0,0,0,.847.847h8.95a.848.848,0,0,0,.847-.847V12.046a.859.859,0,0,0-.847-.847Zm-2.194,6.479a.5.5,0,0,1-.346.155.545.545,0,0,1-.328-.121l-1.158-1.089v4.423a.487.487,0,0,1-.432.484h-.035a.465.465,0,0,1-.467-.467V16.607L131.919,17.7a.481.481,0,0,1-.657-.017.394.394,0,0,1-.121-.328.472.472,0,0,1,.138-.328l2-1.9a.376.376,0,0,1,.518,0l2,1.9a.472.472,0,0,1,.138.328.337.337,0,0,1-.1.328Z" fill="#fff"/>
    <path id="Path_66019" data-name="Path 66019" d="M205.16,87.491h-8.933a1.349,1.349,0,0,1-1.348-1.348.5.5,0,1,1,1,0,.347.347,0,0,0,.346.346h8.95a.347.347,0,0,0,.346-.346V74.152a.347.347,0,0,0-.346-.346.5.5,0,0,1,0-1,1.349,1.349,0,0,1,1.348,1.348V86.144a1.376,1.376,0,0,1-1.365,1.348Z" transform="translate(-64.585 -59.705)" fill="#fff"/>
  </g>
</svg>
