<svg xmlns="http://www.w3.org/2000/svg" width="19.92" height="19.918" viewBox="0 0 19.92 19.918">
  <g id="_6231036" data-name="6231036" transform="translate(-32.261 479.746)">
    <path id="Path_66062" data-name="Path 66062" d="M35.675-479.7a.734.734,0,0,0-.423.632.131.131,0,0,1-.076.133c-.044.018-.209.085-.365.156l-.28.129-.133-.111a.624.624,0,0,0-.547-.147.7.7,0,0,0-.568.459.7.7,0,0,0,.15.715c.085.089.085.1-.044.378-.071.156-.138.316-.151.356s-.093.08-.213.1a.712.712,0,0,0-.5.316.8.8,0,0,0,0,.765.712.712,0,0,0,.5.316c.12.018.2.053.213.1s.08.2.151.356c.129.28.129.289.044.378a.633.633,0,0,0-.182.471.669.669,0,0,0,.6.7.624.624,0,0,0,.547-.147l.133-.111.28.129c.156.071.316.138.356.151s.08.093.1.214a.712.712,0,0,0,.316.5.8.8,0,0,0,.765,0,.712.712,0,0,0,.316-.5c.018-.12.053-.2.1-.214s.2-.08.356-.151c.28-.129.289-.129.378-.044a.639.639,0,0,0,.48.182.7.7,0,0,0,.7-.7.639.639,0,0,0-.182-.48c-.085-.089-.085-.1.044-.378.071-.156.138-.316.151-.356s.093-.08.213-.1a.712.712,0,0,0,.5-.316.8.8,0,0,0,0-.765.712.712,0,0,0-.5-.316c-.12-.018-.2-.053-.213-.1s-.08-.2-.151-.356c-.129-.28-.129-.289-.044-.378a.633.633,0,0,0,.182-.471.669.669,0,0,0-.6-.7.624.624,0,0,0-.547.147l-.133.111-.28-.129c-.156-.071-.316-.138-.356-.151s-.08-.093-.1-.213a.681.681,0,0,0-.64-.6.746.746,0,0,0-.347.04Zm.961,2.255a1.27,1.27,0,0,1,.609.636,1.056,1.056,0,0,1,.116.6.984.984,0,0,1-.147.658,1.313,1.313,0,0,1-.645.623,1.056,1.056,0,0,1-.6.116,1.056,1.056,0,0,1-.6-.116,1.313,1.313,0,0,1-.645-.623.984.984,0,0,1-.147-.658,1.278,1.278,0,0,1,.325-.938,1.8,1.8,0,0,1,.734-.445,1.592,1.592,0,0,1,1,.148Z" transform="translate(-0.153)" fill="#20776e"/>
    <path id="Path_66063" data-name="Path 66063" d="M208.57-415.717a.717.717,0,0,0-.4.487.717.717,0,0,0,.139.613c.231.271.107.262,3.678.262h3.269l.013.841c.013.769.022.854.107.965a.628.628,0,0,0,.6.307.628.628,0,0,0,.6-.307c.089-.116.093-.178.093-1.45s0-1.334-.093-1.45a1.213,1.213,0,0,0-.213-.213c-.12-.093-.16-.093-3.887-.1a36.163,36.163,0,0,0-3.909.045Z" transform="translate(-168.067 -61.136)" fill="#20776e"/>
    <path id="Path_66064" data-name="Path 66064" d="M290.516-319.984c-.071.036-.667.6-1.321,1.254-1.281,1.29-1.285,1.3-1.214,1.7.022.142.2.334,1.259,1.4,1.33,1.33,1.339,1.334,1.73,1.259a.777.777,0,0,0,.525-.525c.071-.378.04-.427-.925-1.4l-.894-.9.894-.9c.76-.76.9-.925.925-1.067a.712.712,0,0,0-.234-.715A.712.712,0,0,0,290.516-319.984Z" transform="translate(-244.32 -152.6)" fill="#20776e"/>
    <path id="Path_66065" data-name="Path 66065" d="M400.389-319.818a.727.727,0,0,0-.4.814c.027.142.165.307.925,1.067l.894.9-.894.9c-.965.974-1,1.023-.925,1.4a.777.777,0,0,0,.525.525c.391.076.4.071,1.73-1.259,1.063-1.063,1.236-1.254,1.259-1.4.071-.391.067-.4-1.214-1.694a17.518,17.518,0,0,0-1.33-1.254.743.743,0,0,0-.57,0Z" transform="translate(-351.347 -152.765)" fill="#20776e"/>
    <path id="Path_66066" data-name="Path 66066" d="M261.881-175.636a.754.754,0,0,0-.374.4,8.276,8.276,0,0,0-.049,1.254v1.13l-2.264.013c-2.21.013-2.268.018-2.388.107a.628.628,0,0,0-.307.6.628.628,0,0,0,.307.6c.12.093.165.093,2.873.093s2.753,0,2.873-.093a1.212,1.212,0,0,0,.213-.213c.089-.12.093-.173.093-1.806s0-1.686-.093-1.806a1.14,1.14,0,0,0-.2-.209.825.825,0,0,0-.684-.07Z" transform="translate(-214.262 -290.543)" fill="#20776e"/>
    <path id="Path_66067" data-name="Path 66067" d="M33.388-159.717a.754.754,0,0,0-.374.4,17.886,17.886,0,0,0-.049,1.961v1.832l-.2.053a.708.708,0,0,0-.5.633.708.708,0,0,0,.419.692c.213.093,8.886.093,9.1,0a.708.708,0,0,0,.419-.692.708.708,0,0,0-.5-.633l-.191-.053-.013-1.9c-.013-1.841-.018-1.9-.107-2.024a1.213,1.213,0,0,0-.213-.213c-.12-.093-.16-.093-3.887-.1a36.068,36.068,0,0,0-3.9.044Zm6.693,2.784v1.423H34.388v-2.846h5.693Z" transform="translate(0 -305.751)" fill="#20776e"/>
  </g>
</svg>
