<svg id="noun-edit-1714926" xmlns="http://www.w3.org/2000/svg" width="15.672" height="15.672" viewBox="0 0 15.672 15.672">
  <path id="Path_66021" data-name="Path 66021" d="M269.723,108.784c-.144.143-.287.287-.43.43l-.971.971-.983.982-1.582,1.582-.391.391a.491.491,0,0,1-.339.169c-.122.007-.244,0-.367,0l-1.041.008a.418.418,0,0,1-.412-.412c0-.047,0-.093,0-.139,0-.422-.005-.846.011-1.267a.5.5,0,0,1,.191-.361l2.049-2.049,1.189-1.189,1.1-1.1.291.291.291.291.081.081.732.732.291.291.17.169c.04.043.08.082.121.124Z" transform="translate(-255.908 -104.973)" fill="#20776e"/>
  <path id="Path_66022" data-name="Path 66022" d="M470.245,40.047a.068.068,0,0,0,0-.016c0-.005,0-.011,0-.016s0-.032-.007-.047,0-.011,0-.016a.244.244,0,0,0-.007-.03l0-.018,0-.016,0-.016a.05.05,0,0,0-.005-.015l-.011-.032-.011-.027c-.008-.018-.017-.036-.026-.054a.26.26,0,0,0-.015-.026.09.09,0,0,0-.01-.015c0-.005-.007-.01-.01-.015l-.01-.014-.012-.018-.008-.011-.007-.008s-.007-.01-.011-.014l-.037-.04c-.021-.022-.043-.044-.065-.065s-.029-.029-.044-.044l-.095-.095c-.15-.15-.3-.3-.45-.45l-.209-.209a2.008,2.008,0,0,0-.2-.188l-.045-.032-.005,0a.7.7,0,0,0-.544-.08l-.021.005a.752.752,0,0,0-.3.183l-.92.92.184.187a1.2,1.2,0,0,1,.1.1c.1.1.2.191.3.287h-.007v0h.007c.265.266.533.531.8.8l.017.015a0,0,0,0,1,0,0c.1.1.194.194.291.291l.291.291c.159-.159.456-.456.614-.615l.185-.185.117-.117.016-.016a.356.356,0,0,0,.03-.034h0a.844.844,0,0,0,.073-.106l.017-.03a.493.493,0,0,0,.022-.047c.007-.016.012-.032.018-.047s0-.011.005-.016.01-.034.014-.052a.166.166,0,0,0,.005-.026l0-.021c0-.014,0-.026.005-.04a.1.1,0,0,0,0-.021.513.513,0,0,0,0-.081Z" transform="translate(-454.716 -38.277)" fill="#20776e"/>
  <path id="Path_66023" data-name="Path 66023" d="M118.632,40.4a1.042,1.042,0,0,0-1.475,0,1.081,1.081,0,0,0-.306.737v5.543c0,.238,0,.474,0,.712a1.1,1.1,0,0,0,.028-.127c0,.007,0,.016,0,.023-.007.035-.014.069-.023.1h-.007c-.09,0-.182,0-.271,0h-9.853c-.457,0-.912,0-1.369,0h0v0h-.012V47.4l0,0,0,0h0v0l-.017-.007h.01s-.005-.005-.009-.007a.013.013,0,0,1,.009,0s-.005-.005-.007-.009l.009.005-.005-.01.007.007s0-.007,0-.01.009.014.012.021v0a0,0,0,0,0,0,0c0-.092,0-.184,0-.274V37.261c0-.455,0-.912,0-1.367v0a.006.006,0,0,1,0,0,.006.006,0,0,1,0-.005,0,0,0,0,1,0,0,0,0,0,0,0,0,0v-.007s.007,0,.01,0a.965.965,0,0,1,.1-.021c-.033.007-.066.016-.1.024.184-.009.373.007.554.007h4.9c.259,0,.518,0,.777,0l.012,0a1.081,1.081,0,0,0,.737-.306,1.066,1.066,0,0,0,.306-.737,1.044,1.044,0,0,0-.306-.733,1.088,1.088,0,0,0-.738-.3h-6.063c-.059,0-.12,0-.179,0a2.172,2.172,0,0,0-1.02.257,2.1,2.1,0,0,0-1.075,1.845c0,.354,0,.707,0,1.061v9.612c0,.273-.005.544,0,.816a2.789,2.789,0,0,0,.054.467,2.087,2.087,0,0,0,.165.45,1.255,1.255,0,0,0,.109.2,2.25,2.25,0,0,0,.3.373,2.135,2.135,0,0,0,1.445.587c.078,0,.155,0,.231,0h11.264a1.955,1.955,0,0,0,.648-.1,2.242,2.242,0,0,0,.811-.481,1.771,1.771,0,0,0,.412-.561,2.2,2.2,0,0,0,.228-.94V41.138a1.072,1.072,0,0,0-.3-.737Z" transform="translate(-103.264 -33.806)" fill="#20776e"/>
</svg>
