<svg xmlns="http://www.w3.org/2000/svg" width="20.98" height="21" viewBox="0 0 20.98 21">
  <path id="noun-label-1560820" d="M70.567.289a1.039,1.039,0,0,0-.3.738V8.469a.871.871,0,0,0,0,.217.4.4,0,0,0,.03.154.932.932,0,0,0,.232.4L82,20.709a.928.928,0,0,0,1.319,0l7.646-7.646a.928.928,0,0,0,0-1.318L79.491.273a.928.928,0,0,0-.515-.26A.52.52,0,0,0,78.8-.016H71.306a1.034,1.034,0,0,0-.739.307Zm1.92,1.947a1.109,1.109,0,0,1,1.567,0v0a1.108,1.108,0,1,1-1.566,0Z" transform="translate(-70.256 0.016)" fill="#20776e"/>
</svg>
