<svg xmlns="http://www.w3.org/2000/svg" width="14.258" height="18.14" viewBox="0 0 14.258 18.14">
  <path id="noun-bold-3871803" d="M170.886,44.911a4.37,4.37,0,0,0-1.224-1.3,5.135,5.135,0,0,0,1.283-3.589c0-3.317-2.423-5.06-5.746-5.027h-5.993a1.942,1.942,0,0,0-1.8,2.054V51.079a1.942,1.942,0,0,0,1.8,2.054h6.388c3.55.026,6.051-1.665,6.064-5.221a5.566,5.566,0,0,0-.771-3Zm-9.594-6.679h3.414c1.471.026,2.455.447,2.462,1.956-.013,1.483-1,1.911-2.462,1.93h-3.414Zm3.777,11.661h-3.777V46.006h3.777c2.248,0,2.54,1.037,2.54,1.943S167.317,49.893,165.069,49.893Z" transform="translate(-157.401 -34.993)" fill="#b0c2d2"/>
</svg>
