<svg xmlns="http://www.w3.org/2000/svg" width="18.615" height="18.615" viewBox="0 0 18.615 18.615">
  <g id="noun-question-670398" transform="translate(-86.799 -16.8)">
    <path id="Path_66038" data-name="Path 66038" d="M96.107,16.8a9.307,9.307,0,1,0,6.581,2.726A9.307,9.307,0,0,0,96.107,16.8ZM95.98,32.23a1.067,1.067,0,1,1,.753-.313A1.067,1.067,0,0,1,95.98,32.23Zm1.164-5.172s-.1.038-.1.1V28a1.061,1.061,0,1,1-2.121,0v-.846a2.242,2.242,0,0,1,1.547-2.109A1.5,1.5,0,0,0,97.5,23.568,1.547,1.547,0,0,0,95.975,22.1a1.5,1.5,0,0,0-1.349.855,1.061,1.061,0,1,1-1.911-.921,3.61,3.61,0,0,1,3.242-2.056h.022A3.659,3.659,0,0,1,99.615,23.5a3.614,3.614,0,0,1-2.463,3.549Z" fill="#20776e"/>
  </g>
</svg>
