<svg xmlns="http://www.w3.org/2000/svg" width="15.548" height="16.843" viewBox="0 0 15.548 16.843">
  <path id="noun-align-right-3871865" d="M154.9,61.569H140.648a.648.648,0,1,1,0-1.3H154.9a.648.648,0,1,1,0,1.3Zm0-5.183H144.535a.648.648,0,1,0,0,1.3H154.9a.648.648,0,1,0,0-1.3Zm0-3.887H140.648a.648.648,0,1,0,0,1.3H154.9a.648.648,0,1,0,0-1.3Zm0,11.661H144.535a.648.648,0,1,0,0,1.3H154.9a.648.648,0,1,0,0-1.3Zm0,3.887H140.648a.648.648,0,1,0,0,1.3H154.9a.648.648,0,1,0,0-1.3Z" transform="translate(-140 -52.5)" fill="#b0c2d2"/>
</svg>
