<svg xmlns="http://www.w3.org/2000/svg" width="27.978" height="21.983" viewBox="0 0 27.978 21.983">
  <path id="noun-headphone-5272179" d="M116.991,101.489v4a4.009,4.009,0,0,1-4,4h-2.6a5.373,5.373,0,0,1-5.4-5.4v-2.6A13.916,13.916,0,0,1,115.392,88a.982.982,0,1,1,.5,1.9A12.082,12.082,0,0,0,107,101.489v2.6a3.446,3.446,0,0,0,2.5,3.3,4.133,4.133,0,0,1-.5-1.9v-4a4,4,0,1,1,7.994,0Zm5.4-13.589a.982.982,0,1,0-.5,1.9,12.064,12.064,0,0,1,9.093,11.691v2.6a3.446,3.446,0,0,1-2.5,3.3,4.133,4.133,0,0,0,.5-1.9v-4a4,4,0,0,0-7.994,0v4a4.009,4.009,0,0,0,4,4h2.6a5.373,5.373,0,0,0,5.4-5.4v-2.6A14.1,14.1,0,0,0,122.386,87.9Zm-3.4-.4a1,1,0,1,0,1,1A.944.944,0,0,0,118.989,87.5Z" transform="translate(-105 -87.5)" fill="#20776e"/>
</svg>
