<svg id="noun-administration-99475" xmlns="http://www.w3.org/2000/svg" width="19.833" height="24.186" viewBox="0 0 19.833 24.186">
  <path id="Path_63265" data-name="Path 63265" d="M190.589,21.04a6.087,6.087,0,0,0,.952-.241l.612,1.07,1.982-1.151-.6-1.05a6.7,6.7,0,0,0,.714-.7l1.042.6,1.141-1.992-1.027-.593a5.862,5.862,0,0,0,.265-.971h1.253V13.726h-1.251a5.607,5.607,0,0,0-.252-.941l1.082-.635-1.14-1.98-1.092.627a6.526,6.526,0,0,0-.688-.687l.626-1.083-1.984-1.151-.625,1.09a6.339,6.339,0,0,0-.939-.257V7.384h-2.3V8.715a6.282,6.282,0,0,0-.91.231L186.795,7.8,184.81,8.956l.652,1.127a6.336,6.336,0,0,0-.677.663l-1.129-.648-1.141,1.982,1.1.646a6.269,6.269,0,0,0-.264.929h-1.329v2.292h1.3a5.948,5.948,0,0,0,.238.917l-1.13.647,1.15,1.991,1.1-.637a5.779,5.779,0,0,0,.68.7l-.625,1.081,1.983,1.151.6-1.052a6.26,6.26,0,0,0,.962.265v1.277h2.3Zm-3.91-6.173a2.83,2.83,0,1,1,2.83,2.837A2.833,2.833,0,0,1,186.68,14.867Z" transform="translate(-179.56 -7.384)" fill="#20776e"/>
  <path id="Path_63266" data-name="Path 63266" d="M134.4,355.027a.149.149,0,0,1-.059-.012.147.147,0,0,1-.085-.112l-.826-5.709a9.2,9.2,0,0,0-6.979,8.929v.093h9.768v-4.38L134.477,355a.141.141,0,0,1-.081.025Z" transform="translate(-126.447 -334.031)" fill="#20776e"/>
  <path id="Path_63267" data-name="Path 63267" d="M354.205,355.11,351.68,359.1h0l1.772,1.189Z" transform="translate(-341.689 -339.685)" fill="#20776e"/>
  <path id="Path_63268" data-name="Path 63268" d="M356.007,349.2l-.826,5.709a.146.146,0,0,1-.085.112.15.15,0,0,1-.059.012.144.144,0,0,1-.081-.025l-1.738-1.166v4.38h9.774v-.093a9.207,9.207,0,0,0-6.984-8.929Zm2.409,8.1a.107.107,0,0,1-.107.108h-2.458a.107.107,0,0,1-.107-.108v-1.782a.107.107,0,0,1,.107-.108h2.458a.107.107,0,0,1,.107.108Z" transform="translate(-343.158 -334.037)" fill="#20776e"/>
  <path id="Path_63269" data-name="Path 63269" d="M292.017,360.29l1.773-1.189h0l-2.525-3.986Z" transform="translate(-283.958 -339.689)" fill="#20776e"/>
  <path id="Path_63270" data-name="Path 63270" d="M447.271,511.417c.081.139.152.172.24.172s.159-.032.24-.172a1.967,1.967,0,0,0,.089-.553h-.658A1.979,1.979,0,0,0,447.271,511.417Z" transform="translate(-432.955 -488.529)" fill="#20776e"/>
  <path id="Path_63271" data-name="Path 63271" d="M420.488,514.255l.032.071-.038-.068.029.056-.029-.056.023.047-.026-.046-.033.014a.077.077,0,0,1-.023,0v.027l0,0v-.029l-.005.035.005-.035-.006.036.007-.039a.2.2,0,0,0-.079-.032l-.023,0-.007.174h0v-.175h0a.369.369,0,0,0-.241.128.384.384,0,0,1-.081.064.239.239,0,0,1-.013-.02.327.327,0,0,0-.054-.075l-.093.091a0,0,0,0,0,0,0l.091-.091-.091.089a0,0,0,0,1,0,0l.089-.089-.089.086h0l.087-.086-.087.084.086-.085-.086.084s0,0,0,0l.083-.084-.083.079h0v0l.081-.079-.081.076h0l.08-.076-.08.074h0l.08-.075-.08.073v0l.078-.073-.078.072h0l.078-.072-.078.071h0l.077-.071-.077.071h0l.077-.07-.077.069h0l.076-.069-.077.068a.018.018,0,0,0,0,0l.073-.069-.041-.044-.048,0,0,.072,0,0v-.069h-.017l-.018.006v.033l0,0h0v-.03h0a.529.529,0,0,0-.093.014l0,.014h0l0-.015-.027.006a.2.2,0,0,1-.034,0h0a.113.113,0,0,0-.007.227h.031a.576.576,0,0,0,.059-.008.115.115,0,0,0,.081-.009l.011.019a.234.234,0,0,0,.164.13l0-.01,0,.01.03,0,.01-.085v.085h0a.364.364,0,0,0,.236-.125c.015-.014.036-.034.054-.048l.159.141.034-.039a.963.963,0,0,1,.141-.142l-.068-.091Z" transform="translate(-406.491 -491.757)" fill="#20776e"/>
  <path id="Path_63272" data-name="Path 63272" d="M419.55,493.685a.27.27,0,0,1,.065-.054.634.634,0,0,0,.054.223l.042.086.092-.026a.409.409,0,0,0,.176-.133l-.084-.077.1.061.01-.011a.881.881,0,0,1,.081-.081l.008.015a.335.335,0,0,0,.116.138.317.317,0,0,0,.159.042v-.227a.091.091,0,0,1-.044-.011.381.381,0,0,1-.033-.053.258.258,0,0,0-.109-.124.2.2,0,0,0-.082-.018h0v.16h0v-.16h0a.3.3,0,0,0-.2.1c-.019.019-.038.039-.056.058,0-.02,0-.042,0-.065s0-.062-.005-.093l-.012-.144-.137.046s-.352.131-.353.318v.017l.091-.006Z" transform="translate(-406.336 -471.74)" fill="#20776e"/>
  <path id="Path_63273" data-name="Path 63273" d="M443.016,499.594l.038-.016.033-.014-.044-.1.07.094-.081-.211-.068.028a.47.47,0,0,1-.16.05v.227A.549.549,0,0,0,443.016,499.594Z" transform="translate(-428.77 -477.518)" fill="#20776e"/>
  <path id="Path_63274" data-name="Path 63274" d="M448.954,498.563a.282.282,0,0,1,.041-.013.286.286,0,0,0,.1.06h0l.005-.022h0l-.006.021h.005a.511.511,0,0,0,.133.018h0a.528.528,0,0,0,.062,0,1.134,1.134,0,0,0,.124-.016l-.039-.223a.918.918,0,0,1-.1.013v.013l-.007,0h0V498.4l-.036,0h-.015a.105.105,0,0,0-.04-.007.084.084,0,0,1-.021,0v0h0l-.008,0,0-.018-.1.061.042-.106a.255.255,0,0,0-.077-.017h-.014v0a.376.376,0,0,0-.133.03l.02.113.058.1Z" transform="translate(-434.57 -476.543)" fill="#20776e"/>
  <path id="Path_63275" data-name="Path 63275" d="M447.959,499.256l.081.212-.08-.212.081.212-.079-.213-.009,0,.086.21Z" transform="translate(-433.692 -477.436)" fill="#20776e"/>
</svg>
