<svg xmlns="http://www.w3.org/2000/svg" width="20.488" height="17.275" viewBox="0 0 20.488 17.275">
  <path id="noun-number-list-3871818" d="M142.672,91.719H127.684a.789.789,0,1,1,0-1.578h14.988a.789.789,0,1,1,0,1.578Zm0,4.733H127.684a.789.789,0,1,0,0,1.578h14.988a.789.789,0,1,0,0-1.578Zm0,6.311H127.684a.789.789,0,1,0,0,1.578h14.988a.789.789,0,1,0,0-1.578Zm-17.465-13.84v4.014c-.034.413-.951.413-.984,0V89.725l-.183.114c-.411.247-.651-.491-.284-.675l.833-.5c.2-.114.613,0,.618.265ZM123.5,99.548c-.154,0-.439-.11-.429-.3v-.612a.837.837,0,0,1,.142-.464c.412-.617,1.245-.941,1.7-1.511.6-.755-.755-1.262-.808-.36-.068.516-1.06.494-.959-.151h0a1.307,1.307,0,0,1,1.426-1.212,1.367,1.367,0,0,1,1.471,1.307,1.91,1.91,0,0,1-.975,1.5c-.336.3-.957.477-.975.953h1.654c.4.033.39.82,0,.858Zm2.389,4.178a1.058,1.058,0,0,0-.461-.322,1.339,1.339,0,0,0,.3-1.713,1.455,1.455,0,0,0-1.221-.464,1.248,1.248,0,0,0-1.439,1.13c-.024.345.179.408.511.4.311,0,.45-.089.461-.36-.017-.269.242-.328.467-.322.291.008.475.108.467.454,0,.26-.044.444-.259.515a.949.949,0,0,1-.233.028c-.387-.01-.385.764,0,.757a.891.891,0,0,1,.432.095c.251.123.218.8.044.969-.212.2-1.022.226-1.013-.237-.013-.314-.174-.316-.5-.328-.313.01-.463.037-.467.36h0a1.328,1.328,0,0,0,1.5,1.193,1.6,1.6,0,0,0,1.382-.6,1.583,1.583,0,0,0,.032-1.555Z" transform="translate(-122.973 -88.614)" fill="#b0c2d2"/>
</svg>
