<svg id="noun-sub-bullet-3031236" xmlns="http://www.w3.org/2000/svg" width="18.139" height="17.275" viewBox="0 0 18.139 17.275">
  <path id="Path_66026" data-name="Path 66026" d="M223.817,48.4H210.861a.864.864,0,1,1,0-1.727h12.956a.864.864,0,1,1,0,1.727Z" transform="translate(-206.542 -46.668)" fill="#b0c2d2"/>
  <path id="Path_66027" data-name="Path 66027" d="M291.226,188.393H280.861a.864.864,0,1,1,0-1.727h10.365a.864.864,0,1,1,0,1.727Z" transform="translate(-273.951 -181.484)" fill="#b0c2d2"/>
  <path id="Path_66028" data-name="Path 66028" d="M358.635,328.393h-7.774a.864.864,0,1,1,0-1.727h7.774a.864.864,0,1,1,0,1.727Z" transform="translate(-341.359 -316.301)" fill="#b0c2d2"/>
  <path id="Path_66029" data-name="Path 66029" d="M426.043,468.393h-5.183a.864.864,0,1,1,0-1.727h5.183a.864.864,0,1,1,0,1.727Z" transform="translate(-408.768 -451.118)" fill="#b0c2d2"/>
  <path id="Path_66030" data-name="Path 66030" d="M118.393,47.532a.864.864,0,1,1-.864-.864.864.864,0,0,1,.864.864" transform="translate(-116.666 -46.668)" fill="#b0c2d2"/>
  <path id="Path_66031" data-name="Path 66031" d="M188.393,187.532a.864.864,0,1,1-.864-.864.864.864,0,0,1,.864.864" transform="translate(-184.075 -181.485)" fill="#b0c2d2"/>
  <path id="Path_66032" data-name="Path 66032" d="M258.393,327.532a.864.864,0,1,1-.864-.864.864.864,0,0,1,.864.864" transform="translate(-251.483 -316.303)" fill="#b0c2d2"/>
  <path id="Path_66033" data-name="Path 66033" d="M328.393,467.532a.864.864,0,1,1-.864-.864.864.864,0,0,1,.864.864" transform="translate(-318.892 -451.12)" fill="#b0c2d2"/>
</svg>
