<svg xmlns="http://www.w3.org/2000/svg" width="16.815" height="18.344" viewBox="0 0 16.815 18.344">
  <path id="noun-text-colour-4414429" d="M173.552,86.82a.764.764,0,0,1,.137,1.516l-.137.012H158.265a.764.764,0,0,1-.137-1.516l.137-.012Zm-7.034-16.513.074.12,6.879,13.758a.764.764,0,0,1-1.295.8l-.073-.117-2.082-4.164h-8.227l-2.082,4.164a.765.765,0,0,1-.9.392l-.128-.05a.765.765,0,0,1-.392-.9l.05-.128,6.879-13.758a.765.765,0,0,1,1.293-.12Zm-.61,2.171-3.349,6.7h6.7Z" transform="translate(-157.501 -70.005)" fill="#b0c2d2" fill-rule="evenodd"/>
</svg>
