<svg id="noun-clipboard-4426919" xmlns="http://www.w3.org/2000/svg" width="16.828" height="22.244" viewBox="0 0 16.828 22.244">
  <path id="Path_63264" data-name="Path 63264" d="M170.49,24.268a.969.969,0,0,1,.967.967v17.8a.969.969,0,0,1-.967.967H155.6a.969.969,0,0,1-.967-.967v-17.8a.969.969,0,0,1,.967-.967H158.6V25.3a.943.943,0,0,0,.942.942h7a.943.943,0,0,0,.942-.942V24.269Zm-10.946-1.257a.224.224,0,0,0-.224.224V25.3a.225.225,0,0,0,.224.224h7a.225.225,0,0,0,.224-.224V23.235a.224.224,0,0,0-.224-.224h-1.9a1.644,1.644,0,0,0-3.2,0h-1.9ZM157.965,29h10.158a.359.359,0,1,0,0-.717H157.965a.359.359,0,0,0,0,.718Zm0,11.974h10.158a.359.359,0,1,0,0-.717H157.965a.359.359,0,0,0,0,.718Zm0-2.993h10.158a.359.359,0,1,0,0-.717H157.965a.359.359,0,0,0,0,.718Zm0-2.994h10.158a.359.359,0,1,0,0-.717H157.965a.359.359,0,0,0,0,.718Zm0-2.994h10.158a.359.359,0,1,0,0-.717H157.965a.359.359,0,0,0,0,.718Z" transform="translate(-154.629 -21.754)" fill="#20776e" fill-rule="evenodd"/>
</svg>
