<svg xmlns="http://www.w3.org/2000/svg" width="31.077" height="26.243" viewBox="0 0 31.077 26.243">
  <path id="noun-image-5328916" d="M110.426,76.885l5.281,6.829,3.114-4.025a1.442,1.442,0,0,1,.265-.265,1.462,1.462,0,0,1,1.79,0,1.484,1.484,0,0,1,.264.265l5.61,7.254a1.449,1.449,0,0,1,.31.893,1.491,1.491,0,0,1-.162.666,1.506,1.506,0,0,1-.412.5,1.452,1.452,0,0,1-.9.3h-24.1a1.452,1.452,0,0,1-.9-.3,1.494,1.494,0,0,1-.574-1.166,1.448,1.448,0,0,1,.31-.893l7.779-10.058a1.449,1.449,0,0,1,.263-.265l.038-.027a1.463,1.463,0,0,1,1.753.027,1.428,1.428,0,0,1,.264.265Zm-8.454-9.675h23.136a3.985,3.985,0,0,1,3.971,3.971v18.3a3.985,3.985,0,0,1-3.971,3.971H101.972A3.985,3.985,0,0,1,98,89.482v-18.3a3.985,3.985,0,0,1,3.971-3.971Zm15.682,4.146a2.7,2.7,0,1,1-1.906,4.6l-.029-.032a2.7,2.7,0,0,1,1.935-4.57Z" transform="translate(-98.001 -67.21)" fill="#20776e" fill-rule="evenodd"/>
</svg>
