<svg xmlns="http://www.w3.org/2000/svg" width="32.657" height="27.326" viewBox="0 0 32.657 27.326">
  <g id="noun-key-security-4833266" transform="translate(-100.587 -71.249)">
    <path id="Path_70132" data-name="Path 70132" d="M382.868,236.225a.286.286,0,0,0-.251-.424h-1.2a.965.965,0,0,0-.934.719v0a9.667,9.667,0,0,0,0,4.871v0a.962.962,0,0,0,.929.713l1.108,0a.286.286,0,0,0,.256-.416,5.893,5.893,0,0,1,.091-5.471Zm-.715.149a6.474,6.474,0,0,0-.079,5.164l-.661,0a.389.389,0,0,1-.375-.288,9.109,9.109,0,0,1,0-4.584.392.392,0,0,1,.379-.291h.737Z" transform="translate(-261.254 -153.765)" fill="#707070" fill-rule="evenodd"/>
    <path id="Path_70133" data-name="Path 70133" d="M220.755,241.031l-.409-.418a.57.57,0,0,0-.858.049l-.392.5h-1.184a.7.7,0,0,0-.559.277l-1.285,1.684a.519.519,0,0,0,.035.671l1.327,1.407a.516.516,0,0,0,.375.162h9.386a.287.287,0,0,0,.281-.342,9.041,9.041,0,0,1,0-3.518.287.287,0,0,0-.281-.342h-4.576l-.681-.608a.57.57,0,0,0-.808.049l-.373.424Zm4.929,1.949h-4.116a.286.286,0,0,0,0,.573h4.116a.286.286,0,0,0,0-.573Z" transform="translate(-107.81 -158.074)" fill="#707070" fill-rule="evenodd"/>
    <path id="Path_70134" data-name="Path 70134" d="M123.8,90.588a.287.287,0,0,0-.128-.3,5.89,5.89,0,0,1,1.507-10.669.287.287,0,0,0,.207-.246,5.052,5.052,0,0,0-3.272-5.262l-6.427-2.377a7.748,7.748,0,0,0-5.375,0l-6.427,2.377a5.052,5.052,0,0,0-3.251,5.433l1.43,10.3a9.77,9.77,0,0,0,5.126,7.3h0a12.473,12.473,0,0,0,11.618,0h0a9.768,9.768,0,0,0,4.992-6.55Zm-.6.07a9.2,9.2,0,0,1-4.655,5.973h0a11.9,11.9,0,0,1-11.084,0h0a9.2,9.2,0,0,1-4.825-6.872l-1.43-10.3a4.479,4.479,0,0,1,2.883-4.817l6.427-2.377a7.173,7.173,0,0,1,4.978,0l6.427,2.377a4.479,4.479,0,0,1,2.917,4.476A6.463,6.463,0,0,0,123.2,90.659h0Z" transform="translate(0)" fill="#707070" fill-rule="evenodd"/>
    <path id="Path_70135" data-name="Path 70135" d="M153.669,114.97h.713a7.083,7.083,0,0,1,2.146-2.126l.017-.122a2.7,2.7,0,0,0-1.738-2.9l-6.427-2.377a5.4,5.4,0,0,0-3.744,0l-6.427,2.377a2.7,2.7,0,0,0-1.738,2.9l1.43,10.3a7.417,7.417,0,0,0,3.892,5.543,10.124,10.124,0,0,0,9.429,0,7.417,7.417,0,0,0,3.816-5.1,7.088,7.088,0,0,1-.77-1.042h-.6a1.534,1.534,0,0,1-1.457-1.052H143.5a1.088,1.088,0,0,1-.792-.342l-1.327-1.407a1.092,1.092,0,0,1-.074-1.412l1.285-1.684a1.276,1.276,0,0,1,1.014-.5h.9l.22-.283a1.143,1.143,0,0,1,1.7-.12,1.143,1.143,0,0,1,1.584-.06l.518.462h3.676a1.536,1.536,0,0,1,1.46-1.055Zm-12.232-3.929a1.647,1.647,0,1,0,1.647,1.647A1.648,1.648,0,0,0,141.436,111.041Zm10.142,0a1.647,1.647,0,1,0,1.647,1.647A1.648,1.648,0,0,0,151.579,111.041Zm-5.071,0a1.647,1.647,0,1,0,1.647,1.647A1.648,1.648,0,0,0,146.507,111.041Z" transform="translate(-33.507 -33.507)" fill="#707070" fill-rule="evenodd"/>
    <path id="Path_70136" data-name="Path 70136" d="M408.053,186.75a6.462,6.462,0,1,0,6.462,6.462,6.465,6.465,0,0,0-6.462-6.462Zm.44,4.886v3.151a1.426,1.426,0,1,0,2.852,0v-3.151a1.426,1.426,0,1,0-2.852,0Zm-3.841-.236v3.623a.286.286,0,0,0,.573,0V191.4a.286.286,0,0,0-.573,0Zm1.913,0v3.623a.286.286,0,0,0,.573,0V191.4a.286.286,0,0,0-.573,0Z" transform="translate(-281.27 -107.929)" fill="#707070" fill-rule="evenodd"/>
  </g>
</svg>
