<svg xmlns="http://www.w3.org/2000/svg" width="19.568" height="19.925" viewBox="0 0 19.568 19.925">
  <path id="noun-assign-4574720" d="M139.8,56a9.963,9.963,0,1,1-9.543,12.833,1.455,1.455,0,0,1,1.393-1.873h7.9a.582.582,0,0,1,.411.993l-1.577,1.576a1,1,0,0,0-.1,1.285l.1.124a1,1,0,0,0,1.285.105l.124-.105,4.27-4.27a1,1,0,0,0,.105-1.285l-.105-.124-4.247-4.247a1.017,1.017,0,0,0-1.424-.029,1,1,0,0,0-.112,1.292l.1.124,1.576,1.575a.582.582,0,0,1-.411.993h-7.9a1.455,1.455,0,0,1-1.392-1.876,9.968,9.968,0,0,1,9.2-7.083Z" transform="translate(-130.195 -56)" fill="#20776e" fill-rule="evenodd"/>
</svg>
