<svg xmlns="http://www.w3.org/2000/svg" width="23" height="23" viewBox="0 0 23 23">
  <path id="noun-question-5269588" d="M128.17,46.668a11.5,11.5,0,1,0,11.5,11.5A11.534,11.534,0,0,0,128.17,46.668Zm0,17.25a1.15,1.15,0,1,1,1.15-1.15A1.086,1.086,0,0,1,128.17,63.918Zm1.15-4.83v.23a1.15,1.15,0,0,1-2.3,0v-1.15a1.086,1.086,0,0,1,1.15-1.15,1.15,1.15,0,0,0,0-2.3,1.306,1.306,0,0,0-.92.345,1.118,1.118,0,0,1-1.61.115,1.222,1.222,0,0,1-.115-1.61,3.744,3.744,0,0,1,2.645-1.15,3.388,3.388,0,0,1,3.45,3.45A3.35,3.35,0,0,1,129.32,59.088Z" transform="translate(-116.67 -46.668)" fill="#20776e"/>
</svg>
