<svg id="noun-setting-2193905" xmlns="http://www.w3.org/2000/svg" width="22.001" height="21.928" viewBox="0 0 22.001 21.928">
  <path id="Path_63224" data-name="Path 63224" d="M69.148,8.709l2.564-.659a8.187,8.187,0,0,1,.806-1.832L71.126,3.947a11.711,11.711,0,0,1,1.905-1.905L75.3,3.434a8.194,8.194,0,0,1,1.832-.806L77.794.063A7.961,7.961,0,0,1,79.113-.01,8.411,8.411,0,0,1,80.5.063l.659,2.564A8.187,8.187,0,0,1,83,3.434l2.271-1.392a11.711,11.711,0,0,1,1.905,1.905L85.781,6.218a8.194,8.194,0,0,1,.806,1.832l2.564.659c0,.44.073.879.073,1.319,0,.513-.073.953-.073,1.392l-2.564.659A8.729,8.729,0,0,1,86,13.545l-2.125-1.978a3.4,3.4,0,0,0,.293-1.539,5.019,5.019,0,1,0-5.056,5.056,6.8,6.8,0,0,0,1.759-.293l1.905,2.052a6.224,6.224,0,0,1-1.612.659l-.659,2.564c-.44,0-.879.073-1.392.073-.44,0-.879-.073-1.319-.073L77.135,17.5A8.187,8.187,0,0,1,75.3,16.7l-2.271,1.392a11.711,11.711,0,0,1-1.905-1.905l1.392-2.271a8.194,8.194,0,0,1-.806-1.832l-2.564-.659a8.411,8.411,0,0,1-.073-1.392,7.964,7.964,0,0,1,.073-1.319Zm8.793,2.125a1.7,1.7,0,0,0,2.052-2.052L78.16,7.024l.293-.073a3.2,3.2,0,0,1,3.737,4.176l8.353,7.913A1.658,1.658,0,1,1,88.2,21.385l-7.84-8.426A3.169,3.169,0,0,1,76.108,9.3L76.181,9l1.759,1.832Zm10.844,9.6a.571.571,0,0,0,.806-.806A.571.571,0,0,0,88.785,20.433Z" transform="translate(-69.075 0.01)" fill="#20776e" fill-rule="evenodd"/>
</svg>
