<svg xmlns="http://www.w3.org/2000/svg" width="23.087" height="18.14" viewBox="0 0 23.087 18.14">
  <path id="noun-bullet-list-3871822" d="M109.947,103.166a2.477,2.477,0,1,1-.725-1.748A2.474,2.474,0,0,1,109.947,103.166ZM107.474,87.5a2.477,2.477,0,1,0,1.748.725A2.474,2.474,0,0,0,107.474,87.5Zm4.123,3.3h15.666a.825.825,0,1,0,0-1.649H111.6a.825.825,0,1,0,0,1.649Zm15.666,11.544H111.6a.825.825,0,1,0,0,1.649h15.666a.825.825,0,1,0,0-1.649ZM107.474,94.1a2.477,2.477,0,1,0,1.748.725A2.474,2.474,0,0,0,107.474,94.1Zm19.789,1.649H111.6a.825.825,0,1,0,0,1.649h15.666a.825.825,0,1,0,0-1.649Z" transform="translate(-105 -87.5)" fill="#b0c2d2"/>
</svg>
