<svg id="noun-survey-3881626" xmlns="http://www.w3.org/2000/svg" width="23.55" height="23.557" viewBox="0 0 23.55 23.557">
  <path id="Path_63225" data-name="Path 63225" d="M77.116,10.4a8.985,8.985,0,0,0,1.427,2.789.367.367,0,0,1-.033.482l-1.717,1.717L74.65,13.245a.557.557,0,0,0-.787,0l-.52.52a.557.557,0,0,0,0,.787L75.485,16.7l-2.143,2.143a.557.557,0,0,0,0,.787l.52.52a.557.557,0,0,0,.787,0L76.793,18l2.143,2.142a.557.557,0,0,0,.787,0l.52-.52a.557.557,0,0,0,0-.787L78.1,16.7l1.717-1.717a.366.366,0,0,1,.482-.033,8.98,8.98,0,0,0,2.789,1.427.729.729,0,0,1,.519.749A6.828,6.828,0,1,1,76.367,9.88a.729.729,0,0,1,.748.519ZM87.838.236a7.656,7.656,0,1,1-9.377,5.414A7.656,7.656,0,0,1,87.838.236ZM83.114,6.813l1.394,1.616,3.966-3.8a.388.388,0,0,1,.547.011l.8.831a.388.388,0,0,1-.011.547l-4.4,4.222a1.351,1.351,0,0,1-.461.293,1.337,1.337,0,0,1-1.493-.384l-1.79-2.075a.387.387,0,0,1,.04-.545l.871-.754a.387.387,0,0,1,.546.04Z" transform="translate(-69.965 0.026)" fill="#20776e" fill-rule="evenodd"/>
  <g id="Group_66306" data-name="Group 66306" transform="translate(0.001 23.553)">
    <path id="Path_63226" data-name="Path 63226" d="M0-.03H0Z" transform="translate(0 0.031)" fill="#20776e"/>
  </g>
  <g id="Group_66307" data-name="Group 66307" transform="translate(0.003 23.553)">
    <path id="Path_63227" data-name="Path 63227" d="M0-.031H0Z" transform="translate(0 0.031)" fill="#20776e"/>
  </g>
  <g id="Group_66308" data-name="Group 66308" transform="translate(0.004 23.553)">
    <path id="Path_63228" data-name="Path 63228" d="M0-.031H0Z" transform="translate(0 0.031)" fill="#20776e"/>
  </g>
  <g id="Group_66309" data-name="Group 66309" transform="translate(0.005 23.553)">
    <path id="Path_63229" data-name="Path 63229" d="M0-.031H0Zm0,0H0Z" transform="translate(0 0.031)" fill="#20776e"/>
  </g>
  <g id="Group_66310" data-name="Group 66310" transform="translate(0.006 23.553)">
    <path id="Path_63230" data-name="Path 63230" d="M0-.031H0Z" transform="translate(0 0.031)" fill="#20776e"/>
  </g>
  <g id="Group_66311" data-name="Group 66311" transform="translate(0.007 23.553)">
    <path id="Path_63231" data-name="Path 63231" d="M0-.031H0Z" transform="translate(0 0.031)" fill="#20776e"/>
  </g>
  <g id="Group_66312" data-name="Group 66312" transform="translate(0.008 23.553)">
    <path id="Path_63232" data-name="Path 63232" d="M0-.031H0Zm0,0H0Z" transform="translate(0 0.031)" fill="#20776e"/>
  </g>
  <g id="Group_66313" data-name="Group 66313" transform="translate(0.01 23.553)">
    <path id="Path_63233" data-name="Path 63233" d="M0-.03H0Zm0,0H0Z" transform="translate(0 0.031)" fill="#20776e"/>
  </g>
  <g id="Group_66314" data-name="Group 66314" transform="translate(0.012 23.553)">
    <path id="Path_63234" data-name="Path 63234" d="M0-.031H0Z" transform="translate(0 0.031)" fill="#20776e"/>
  </g>
  <g id="Group_66315" data-name="Group 66315" transform="translate(0.013 23.553)">
    <path id="Path_63235" data-name="Path 63235" d="M0-.03H0v0H0Zm0,0H0Z" transform="translate(0 0.031)" fill="#20776e"/>
  </g>
  <g id="Group_66316" data-name="Group 66316" transform="translate(0.015 23.553)">
    <path id="Path_63236" data-name="Path 63236" d="M0-.031H0Zm0,0H0Z" transform="translate(0 0.031)" fill="#20776e"/>
  </g>
  <g id="Group_66317" data-name="Group 66317" transform="translate(0.016 23.553)">
    <path id="Path_63237" data-name="Path 63237" d="M0-.03H0v0H0Zm0,0H0Z" transform="translate(0 0.031)" fill="#20776e"/>
  </g>
  <g id="Group_66318" data-name="Group 66318" transform="translate(0.017 23.553)">
    <path id="Path_63238" data-name="Path 63238" d="M0-.031H0Z" transform="translate(0 0.031)" fill="#20776e"/>
  </g>
  <g id="Group_66319" data-name="Group 66319" transform="translate(0.018 23.553)">
    <path id="Path_63239" data-name="Path 63239" d="M0-.031H0Zm0,0H0Z" transform="translate(0 0.031)" fill="#20776e"/>
  </g>
  <g id="Group_66320" data-name="Group 66320" transform="translate(0.02 23.553)">
    <path id="Path_63240" data-name="Path 63240" d="M0-.031H0Z" transform="translate(0 0.031)" fill="#20776e"/>
  </g>
  <g id="Group_66321" data-name="Group 66321" transform="translate(0.021 23.553)">
    <path id="Path_63241" data-name="Path 63241" d="M0-.031H0Z" transform="translate(0 0.031)" fill="#20776e"/>
  </g>
  <g id="Group_66322" data-name="Group 66322" transform="translate(0.022 23.553)">
    <path id="Path_63242" data-name="Path 63242" d="M0-.031H0Zm0,0H0Z" transform="translate(0 0.031)" fill="#20776e"/>
  </g>
  <g id="Group_66323" data-name="Group 66323" transform="translate(0.023 23.553)">
    <path id="Path_63243" data-name="Path 63243" d="M0-.031H0Z" transform="translate(0 0.031)" fill="#20776e"/>
  </g>
  <g id="Group_66324" data-name="Group 66324" transform="translate(0.024 23.553)">
    <path id="Path_63244" data-name="Path 63244" d="M0-.031H0Z" transform="translate(0 0.031)" fill="#20776e"/>
  </g>
  <g id="Group_66325" data-name="Group 66325" transform="translate(0.025 23.553)">
    <path id="Path_63245" data-name="Path 63245" d="M0-.031H0Z" transform="translate(0 0.031)" fill="#20776e"/>
  </g>
  <g id="Group_66326" data-name="Group 66326" transform="translate(0.001 23.555)">
    <path id="Path_63246" data-name="Path 63246" d="M0-.031H0Z" transform="translate(0 0.031)" fill="#20776e"/>
  </g>
  <g id="Group_66327" data-name="Group 66327" transform="translate(0.002 23.555)">
    <path id="Path_63247" data-name="Path 63247" d="M0-.031H0Z" transform="translate(0 0.031)" fill="#20776e"/>
  </g>
  <g id="Group_66328" data-name="Group 66328" transform="translate(0.003 23.555)">
    <path id="Path_63248" data-name="Path 63248" d="M0-.031H0Zm0,0H0Z" transform="translate(0 0.031)" fill="#20776e"/>
  </g>
  <g id="Group_66329" data-name="Group 66329" transform="translate(0.004 23.555)">
    <path id="Path_63249" data-name="Path 63249" d="M0-.031H0Z" transform="translate(0 0.031)" fill="#20776e"/>
  </g>
  <g id="Group_66330" data-name="Group 66330" transform="translate(0.007 23.555)">
    <path id="Path_63250" data-name="Path 63250" d="M0-.031H0Z" transform="translate(0 0.031)" fill="#20776e"/>
  </g>
  <g id="Group_66331" data-name="Group 66331" transform="translate(0.008 23.555)">
    <path id="Path_63251" data-name="Path 63251" d="M0-.031H0Z" transform="translate(0 0.031)" fill="#20776e"/>
  </g>
  <g id="Group_66332" data-name="Group 66332" transform="translate(0.009 23.555)">
    <path id="Path_63252" data-name="Path 63252" d="M0-.031H0Z" transform="translate(0 0.031)" fill="#20776e"/>
  </g>
  <g id="Group_66333" data-name="Group 66333" transform="translate(0.011 23.555)">
    <path id="Path_63253" data-name="Path 63253" d="M0-.031H0Z" transform="translate(0 0.031)" fill="#20776e"/>
  </g>
  <g id="Group_66334" data-name="Group 66334" transform="translate(0.013 23.555)">
    <path id="Path_63254" data-name="Path 63254" d="M0-.031H0Zm0,0H0Z" transform="translate(0 0.031)" fill="#20776e"/>
  </g>
  <g id="Group_66335" data-name="Group 66335" transform="translate(0.014 23.555)">
    <path id="Path_63255" data-name="Path 63255" d="M0-.031H0Z" transform="translate(0 0.031)" fill="#20776e"/>
  </g>
  <g id="Group_66336" data-name="Group 66336" transform="translate(0.015 23.555)">
    <path id="Path_63256" data-name="Path 63256" d="M0-.031H0Z" transform="translate(0 0.031)" fill="#20776e"/>
  </g>
  <g id="Group_66337" data-name="Group 66337" transform="translate(0.017 23.555)">
    <path id="Path_63257" data-name="Path 63257" d="M0-.031H0Zm0,0H0Z" transform="translate(0 0.031)" fill="#20776e"/>
  </g>
  <g id="Group_66338" data-name="Group 66338" transform="translate(0.019 23.555)">
    <path id="Path_63258" data-name="Path 63258" d="M0-.031H0Z" transform="translate(0 0.031)" fill="#20776e"/>
  </g>
  <g id="Group_66339" data-name="Group 66339" transform="translate(0.019 23.555)">
    <path id="Path_63259" data-name="Path 63259" d="M0-.031H0Zm0,0H0Z" transform="translate(0 0.031)" fill="#20776e"/>
  </g>
  <g id="Group_66340" data-name="Group 66340" transform="translate(0.021 23.555)">
    <path id="Path_63260" data-name="Path 63260" d="M0-.031H0Zm0,0H0Z" transform="translate(0 0.031)" fill="#20776e"/>
  </g>
  <g id="Group_66341" data-name="Group 66341" transform="translate(0.021 23.555)">
    <path id="Path_63261" data-name="Path 63261" d="M0-.031H0Z" transform="translate(0 0.031)" fill="#20776e"/>
  </g>
  <g id="Group_66342" data-name="Group 66342" transform="translate(0.022 23.555)">
    <path id="Path_63262" data-name="Path 63262" d="M0-.031H0Z" transform="translate(0 0.031)" fill="#20776e"/>
  </g>
  <g id="Group_66343" data-name="Group 66343" transform="translate(0.024 23.555)">
    <path id="Path_63263" data-name="Path 63263" d="M0-.031H0Z" transform="translate(0 0.031)" fill="#20776e"/>
  </g>
</svg>
