<svg xmlns="http://www.w3.org/2000/svg" width="22.767" height="19.724" viewBox="0 0 22.767 19.724">
  <path id="noun-print-2467162" d="M107.431,54.66h-2.466V51.723a2.375,2.375,0,0,0-2.368-2.368H95.2a2.375,2.375,0,0,0-2.375,2.368V54.66H90.356a2.846,2.846,0,0,0-2.846,2.846v6.451A2.846,2.846,0,0,0,90.356,66.8h2.466a2.368,2.368,0,0,0,2.36,2.277h7.407a2.368,2.368,0,0,0,2.36-2.277h2.474a2.846,2.846,0,0,0,2.854-2.846V57.506a2.846,2.846,0,0,0-2.846-2.846Zm-13.85,4.417H92.063a.759.759,0,1,1,0-1.518h1.518a.759.759,0,1,1,0,1.518Zm.759-7.354a.857.857,0,0,1,.858-.85h7.4a.858.858,0,0,1,.85.85V54.66H94.34Zm9.107,14.988a.85.85,0,0,1-.85.85H95.19a.85.85,0,0,1-.85-.85V64.526h9.107Z" transform="translate(-87.51 -49.355)" fill="#20776e"/>
</svg>
