<svg xmlns="http://www.w3.org/2000/svg" width="19.705" height="15.761" viewBox="0 0 19.705 15.761">
  <g id="noun-programming-2648077" transform="translate(-70.006 -56.038)">
    <path id="Path_66015" data-name="Path 66015" d="M472.059,155.31l-3.284-3.284a1.231,1.231,0,1,0-1.742,1.742l2.357,2.357a.08.08,0,0,1,0,.113l-2.294,2.294a1.293,1.293,0,0,0-.133,1.729,1.231,1.231,0,0,0,1.812.076l3.284-3.284a1.231,1.231,0,0,0,0-1.741Z" transform="translate(-382.709 -92.262)" fill="#849694"/>
    <path id="Path_66016" data-name="Path 66016" d="M75.392,152.027a1.231,1.231,0,0,0-1.742,0l-3.284,3.284a1.231,1.231,0,0,0,0,1.741l3.284,3.284a1.231,1.231,0,0,0,1.811-.076,1.293,1.293,0,0,0-.133-1.729l-2.294-2.294a.08.08,0,0,1,0-.113l2.357-2.357a1.231,1.231,0,0,0,0-1.741Z" transform="translate(0 -92.263)" fill="#849694"/>
    <path id="Path_66017" data-name="Path 66017" d="M265.873,70.587l3.483-13.933a.882.882,0,0,1,1-.6l.8.2a.821.821,0,0,1,.6,1l-3.483,13.933a.882.882,0,0,1-1,.6l-.8-.2A.821.821,0,0,1,265.873,70.587Z" transform="translate(-188.951)" fill="#849694"/>
  </g>
</svg>
