<svg xmlns="http://www.w3.org/2000/svg" width="19.578" height="10.349" viewBox="0 0 19.578 10.349">
  <g id="noun-view-1863827" transform="translate(-91.267 -143.23)">
    <path id="Path_66034" data-name="Path 66034" d="M110.754,148.16a12,12,0,0,0-19.4,0,.428.428,0,0,0,0,.53,12.032,12.032,0,0,0,19.4-.041.372.372,0,0,0,0-.489Zm-9.7,4.156a3.911,3.911,0,1,1,3.911-3.911A3.912,3.912,0,0,1,101.056,152.316Z" fill="#fff"/>
    <path id="Path_66035" data-name="Path 66035" d="M316.157,244.768a1.385,1.385,0,1,1-1.385-1.385,1.385,1.385,0,0,1,1.385,1.385" transform="translate(-213.715 -96.364)" fill="#fff"/>
  </g>
</svg>
