<svg xmlns="http://www.w3.org/2000/svg" width="19.986" height="20.158" viewBox="0 0 19.986 20.158">
  <path id="Path_66041" data-name="Path 66041" d="M89.828,17.592l-7.8-7.145a3.35,3.35,0,0,0-3.021-4.811,3.41,3.41,0,0,0-1.455.336l1.79,1.79a.309.309,0,0,1,0,.448.279.279,0,0,1-.224.112.316.316,0,0,1-.224-.1L76.528,5.86A3.952,3.952,0,0,1,79.006,5a4,4,0,0,1,4,4,4.2,4.2,0,0,1-.208,1.279l2.254,2.062a6.881,6.881,0,0,0,.719-1.886H87.03a.936.936,0,0,0,.879-.991v-1a.947.947,0,0,0-.879-.991H85.768a6.555,6.555,0,0,0-.943-2.254l.9-.9A.941.941,0,0,0,85.64,3l-.7-.7a.941.941,0,0,0-1.327-.08l-.9.9a7.4,7.4,0,0,0-2.254-.943V.889a.936.936,0,0,0-.989-.88h-.991a.947.947,0,0,0-.991.879V2.151a6.556,6.556,0,0,0-2.254.943l-.9-.9a.941.941,0,0,0-1.327.08l-.7.7a.941.941,0,0,0-.08,1.327l.9.9a7.4,7.4,0,0,0-.943,2.254h-1.3a.936.936,0,0,0-.879.991V9.44a.947.947,0,0,0,.879.991h1.263a6.555,6.555,0,0,0,.943,2.254l-.9.9a.941.941,0,0,0,.08,1.327l.7.7a.941.941,0,0,0,1.327.08l.9-.9a7.4,7.4,0,0,0,2.254.943V17a.936.936,0,0,0,.991.879h.991A.947.947,0,0,0,80.429,17V15.738a6.679,6.679,0,0,0,1.694-.607l-2.062-2.27A3.822,3.822,0,0,1,79.006,13a4,4,0,0,1-3.277-6.282l2.35,2.35a.309.309,0,0,1,0,.448.476.476,0,0,1-.24.08.316.316,0,0,1-.224-.1L75.873,7.778a3.513,3.513,0,0,0-.24,1.231,3.356,3.356,0,0,0,3.357,3.357,3.531,3.531,0,0,0,1.247-.24L87.43,19.99a.579.579,0,0,0,.831,0L89.8,18.439a.6.6,0,0,0,.032-.847Zm-1.694.7a.309.309,0,0,1-.448,0l-1.918-1.918a.317.317,0,1,1,.448-.448l1.918,1.918a.309.309,0,0,1,0,.456Z" transform="translate(-70.005 -0.007)" fill="#849694"/>
</svg>
